<svg width="110" height="40" viewBox="0 0 110 40" fill="none" xmlns="http://www.w3.org/2000/svg">
<rect width="110" height="40" rx="8" fill="#32BCAD"/>
<path d="M28 22V19H25V17H28V14H30V17H33V19H30V22H28ZM19 20C17.9 20 16.9583 19.6083 16.175 18.825C15.3917 18.0417 15 17.1 15 16C15 14.9 15.3917 13.9583 16.175 13.175C16.9583 12.3917 17.9 12 19 12C20.1 12 21.0417 12.3917 21.825 13.175C22.6083 13.9583 23 14.9 23 16C23 17.1 22.6083 18.0417 21.825 18.825C21.0417 19.6083 20.1 20 19 20ZM11 28V25.2C11 24.6333 11.1458 24.1125 11.4375 23.6375C11.7292 23.1625 12.1167 22.8 12.6 22.55C13.6333 22.0333 14.6833 21.6458 15.75 21.3875C16.8167 21.1292 17.9 21 19 21C20.1 21 21.1833 21.1292 22.25 21.3875C23.3167 21.6458 24.3667 22.0333 25.4 22.55C25.8833 22.8 26.2708 23.1625 26.5625 23.6375C26.8542 24.1125 27 24.6333 27 25.2V28H11ZM13 26H25V25.2C25 25.0167 24.9542 24.85 24.8625 24.7C24.7708 24.55 24.65 24.4333 24.5 24.35C23.6 23.9 22.6917 23.5625 21.775 23.3375C20.8583 23.1125 19.9333 23 19 23C18.0667 23 17.1417 23.1125 16.225 23.3375C15.3083 23.5625 14.4 23.9 13.5 24.35C13.35 24.4333 13.2292 24.55 13.1375 24.7C13.0458 24.85 13 25.0167 13 25.2V26ZM19 18C19.55 18 20.0208 17.8042 20.4125 17.4125C20.8042 17.0208 21 16.55 21 16C21 15.45 20.8042 14.9792 20.4125 14.5875C20.0208 14.1958 19.55 14 19 14C18.45 14 17.9792 14.1958 17.5875 14.5875C17.1958 14.9792 17 15.45 17 16C17 16.55 17.1958 17.0208 17.5875 17.4125C17.9792 17.8042 18.45 18 19 18Z" fill="white"/>
<path d="M46.4756 21.4863L47.8018 21.8213C47.5238 22.9105 47.0225 23.7422 46.2979 24.3164C45.5778 24.8861 44.696 25.1709 43.6523 25.1709C42.5723 25.1709 41.6927 24.9521 41.0137 24.5146C40.3392 24.0726 39.8242 23.4346 39.4688 22.6006C39.1178 21.7666 38.9424 20.8711 38.9424 19.9141C38.9424 18.8704 39.1406 17.9613 39.5371 17.1865C39.9382 16.4072 40.5055 15.8171 41.2393 15.416C41.9775 15.0104 42.7887 14.8076 43.6729 14.8076C44.6755 14.8076 45.5186 15.0628 46.2021 15.5732C46.8857 16.0837 47.362 16.8014 47.6309 17.7266L46.3252 18.0342C46.0928 17.305 45.7555 16.7741 45.3135 16.4414C44.8714 16.1087 44.3154 15.9424 43.6455 15.9424C42.8753 15.9424 42.2305 16.127 41.7109 16.4961C41.196 16.8652 40.8337 17.362 40.624 17.9863C40.4144 18.6061 40.3096 19.2464 40.3096 19.9072C40.3096 20.7594 40.4326 21.5046 40.6787 22.1426C40.9294 22.776 41.3167 23.25 41.8408 23.5645C42.3649 23.8789 42.9323 24.0361 43.543 24.0361C44.2858 24.0361 44.9147 23.8219 45.4297 23.3936C45.9447 22.9652 46.2933 22.3294 46.4756 21.4863ZM54.0225 24.1045C53.5667 24.4919 53.127 24.7653 52.7031 24.9248C52.2839 25.0843 51.8327 25.1641 51.3496 25.1641C50.5521 25.1641 49.9391 24.9704 49.5107 24.583C49.0824 24.1911 48.8682 23.6921 48.8682 23.0859C48.8682 22.7305 48.9479 22.4069 49.1074 22.1152C49.2715 21.819 49.4834 21.582 49.7432 21.4043C50.0075 21.2266 50.3037 21.0921 50.6318 21.001C50.8734 20.9372 51.238 20.8757 51.7256 20.8164C52.7191 20.6979 53.4505 20.5566 53.9199 20.3926C53.9245 20.224 53.9268 20.1169 53.9268 20.0713C53.9268 19.57 53.8105 19.2168 53.5781 19.0117C53.2637 18.7337 52.7965 18.5947 52.1768 18.5947C51.598 18.5947 51.1696 18.6973 50.8916 18.9023C50.6182 19.1029 50.4154 19.4606 50.2832 19.9756L49.0801 19.8115C49.1895 19.2965 49.3695 18.8818 49.6201 18.5674C49.8708 18.2484 50.2331 18.0046 50.707 17.8359C51.181 17.6628 51.7301 17.5762 52.3545 17.5762C52.9743 17.5762 53.4779 17.6491 53.8652 17.7949C54.2526 17.9408 54.5374 18.1253 54.7197 18.3486C54.902 18.5674 55.0296 18.8454 55.1025 19.1826C55.1436 19.3923 55.1641 19.7705 55.1641 20.3174V21.958C55.1641 23.1019 55.1891 23.8265 55.2393 24.1318C55.2939 24.4326 55.3988 24.722 55.5537 25H54.2686C54.141 24.7448 54.0589 24.4463 54.0225 24.1045ZM53.9199 21.3564C53.4733 21.5387 52.8034 21.6937 51.9102 21.8213C51.4043 21.8942 51.0465 21.9762 50.8369 22.0674C50.6273 22.1585 50.4655 22.293 50.3516 22.4707C50.2376 22.6439 50.1807 22.8376 50.1807 23.0518C50.1807 23.3799 50.3037 23.6533 50.5498 23.8721C50.8005 24.0908 51.165 24.2002 51.6436 24.2002C52.1175 24.2002 52.5391 24.0977 52.9082 23.8926C53.2773 23.6829 53.5485 23.3981 53.7217 23.0381C53.8538 22.7601 53.9199 22.3499 53.9199 21.8076V21.3564ZM61.7881 25V24.084C61.3278 24.804 60.651 25.1641 59.7578 25.1641C59.179 25.1641 58.6458 25.0046 58.1582 24.6855C57.6751 24.3665 57.2992 23.9222 57.0303 23.3525C56.766 22.7783 56.6338 22.1198 56.6338 21.377C56.6338 20.6523 56.7546 19.9961 56.9961 19.4082C57.2376 18.8158 57.5999 18.3623 58.083 18.0479C58.5661 17.7334 59.1061 17.5762 59.7031 17.5762C60.1406 17.5762 60.5303 17.6696 60.8721 17.8564C61.2139 18.0387 61.4919 18.278 61.7061 18.5742V14.9785H62.9297V25H61.7881ZM57.8984 21.377C57.8984 22.3066 58.0944 23.0016 58.4863 23.4619C58.8783 23.9222 59.3408 24.1523 59.874 24.1523C60.4118 24.1523 60.8675 23.9336 61.2412 23.4961C61.6195 23.054 61.8086 22.3818 61.8086 21.4795C61.8086 20.486 61.6172 19.7568 61.2344 19.292C60.8516 18.8271 60.3799 18.5947 59.8193 18.5947C59.2725 18.5947 58.8145 18.818 58.4453 19.2646C58.0807 19.7113 57.8984 20.4154 57.8984 21.377ZM69.6084 24.1045C69.1527 24.4919 68.7129 24.7653 68.2891 24.9248C67.8698 25.0843 67.4186 25.1641 66.9355 25.1641C66.138 25.1641 65.5251 24.9704 65.0967 24.583C64.6683 24.1911 64.4541 23.6921 64.4541 23.0859C64.4541 22.7305 64.5339 22.4069 64.6934 22.1152C64.8574 21.819 65.0693 21.582 65.3291 21.4043C65.5934 21.2266 65.8896 21.0921 66.2178 21.001C66.4593 20.9372 66.8239 20.8757 67.3115 20.8164C68.305 20.6979 69.0365 20.5566 69.5059 20.3926C69.5104 20.224 69.5127 20.1169 69.5127 20.0713C69.5127 19.57 69.3965 19.2168 69.1641 19.0117C68.8496 18.7337 68.3825 18.5947 67.7627 18.5947C67.1839 18.5947 66.7555 18.6973 66.4775 18.9023C66.2041 19.1029 66.0013 19.4606 65.8691 19.9756L64.666 19.8115C64.7754 19.2965 64.9554 18.8818 65.2061 18.5674C65.4567 18.2484 65.819 18.0046 66.293 17.8359C66.7669 17.6628 67.3161 17.5762 67.9404 17.5762C68.5602 17.5762 69.0638 17.6491 69.4512 17.7949C69.8385 17.9408 70.1234 18.1253 70.3057 18.3486C70.488 18.5674 70.6156 18.8454 70.6885 19.1826C70.7295 19.3923 70.75 19.7705 70.75 20.3174V21.958C70.75 23.1019 70.7751 23.8265 70.8252 24.1318C70.8799 24.4326 70.9847 24.722 71.1396 25H69.8545C69.7269 24.7448 69.6449 24.4463 69.6084 24.1045ZM69.5059 21.3564C69.0592 21.5387 68.3893 21.6937 67.4961 21.8213C66.9902 21.8942 66.6325 21.9762 66.4229 22.0674C66.2132 22.1585 66.0514 22.293 65.9375 22.4707C65.8236 22.6439 65.7666 22.8376 65.7666 23.0518C65.7666 23.3799 65.8896 23.6533 66.1357 23.8721C66.3864 24.0908 66.751 24.2002 67.2295 24.2002C67.7035 24.2002 68.125 24.0977 68.4941 23.8926C68.8633 23.6829 69.1344 23.3981 69.3076 23.0381C69.4398 22.7601 69.5059 22.3499 69.5059 21.8076V21.3564ZM72.1719 22.833L73.3887 22.6416C73.457 23.1292 73.6462 23.5029 73.9561 23.7627C74.2705 24.0225 74.708 24.1523 75.2686 24.1523C75.8337 24.1523 76.2529 24.0384 76.5264 23.8105C76.7998 23.5781 76.9365 23.307 76.9365 22.9971C76.9365 22.7191 76.8158 22.5003 76.5742 22.3408C76.4056 22.2314 75.9863 22.0924 75.3164 21.9238C74.4141 21.696 73.7874 21.5 73.4365 21.3359C73.0902 21.1673 72.8258 20.9372 72.6436 20.6455C72.4658 20.3493 72.377 20.0234 72.377 19.668C72.377 19.3444 72.4499 19.0459 72.5957 18.7725C72.7461 18.4945 72.9489 18.2643 73.2041 18.082C73.3955 17.9408 73.6553 17.8223 73.9834 17.7266C74.3161 17.6263 74.6715 17.5762 75.0498 17.5762C75.6195 17.5762 76.1185 17.6582 76.5469 17.8223C76.9798 17.9863 77.2988 18.2096 77.5039 18.4922C77.709 18.7702 77.8503 19.1439 77.9277 19.6133L76.7246 19.7773C76.6699 19.4036 76.5104 19.112 76.2461 18.9023C75.9863 18.6927 75.6172 18.5879 75.1387 18.5879C74.5736 18.5879 74.1702 18.6813 73.9287 18.8682C73.6872 19.055 73.5664 19.2738 73.5664 19.5244C73.5664 19.6839 73.6165 19.8275 73.7168 19.9551C73.8171 20.0872 73.9743 20.1966 74.1885 20.2832C74.3115 20.3288 74.6738 20.4336 75.2754 20.5977C76.1458 20.8301 76.752 21.0215 77.0938 21.1719C77.4401 21.3177 77.7113 21.5319 77.9072 21.8145C78.1032 22.097 78.2012 22.4479 78.2012 22.8672C78.2012 23.2773 78.0804 23.6647 77.8389 24.0293C77.6019 24.3893 77.2578 24.6696 76.8066 24.8701C76.3555 25.0661 75.8451 25.1641 75.2754 25.1641C74.332 25.1641 73.612 24.9681 73.1152 24.5762C72.623 24.1842 72.3086 23.6032 72.1719 22.833ZM82.3506 23.8994L82.5283 24.9863C82.182 25.0592 81.8721 25.0957 81.5986 25.0957C81.152 25.0957 80.8057 25.0251 80.5596 24.8838C80.3135 24.7425 80.1403 24.5579 80.04 24.3301C79.9398 24.0977 79.8896 23.6123 79.8896 22.874V18.6973H78.9873V17.7402H79.8896V15.9424L81.1133 15.2041V17.7402H82.3506V18.6973H81.1133V22.9424C81.1133 23.2933 81.1338 23.5189 81.1748 23.6191C81.2204 23.7194 81.291 23.7992 81.3867 23.8584C81.487 23.9176 81.6283 23.9473 81.8105 23.9473C81.9473 23.9473 82.1273 23.9313 82.3506 23.8994ZM83.5469 25V17.7402H84.6543V18.8408C84.9368 18.3258 85.1966 17.9863 85.4336 17.8223C85.6751 17.6582 85.9395 17.5762 86.2266 17.5762C86.6413 17.5762 87.0628 17.7083 87.4912 17.9727L87.0674 19.1143C86.7666 18.9365 86.4658 18.8477 86.165 18.8477C85.8962 18.8477 85.6546 18.9297 85.4404 19.0938C85.2262 19.2533 85.0736 19.4766 84.9824 19.7637C84.8457 20.2012 84.7773 20.6797 84.7773 21.1992V25H83.5469ZM92.96 24.1045C92.5042 24.4919 92.0645 24.7653 91.6406 24.9248C91.2214 25.0843 90.7702 25.1641 90.2871 25.1641C89.4896 25.1641 88.8766 24.9704 88.4482 24.583C88.0199 24.1911 87.8057 23.6921 87.8057 23.0859C87.8057 22.7305 87.8854 22.4069 88.0449 22.1152C88.209 21.819 88.4209 21.582 88.6807 21.4043C88.945 21.2266 89.2412 21.0921 89.5693 21.001C89.8109 20.9372 90.1755 20.8757 90.6631 20.8164C91.6566 20.6979 92.388 20.5566 92.8574 20.3926C92.862 20.224 92.8643 20.1169 92.8643 20.0713C92.8643 19.57 92.748 19.2168 92.5156 19.0117C92.2012 18.7337 91.734 18.5947 91.1143 18.5947C90.5355 18.5947 90.1071 18.6973 89.8291 18.9023C89.5557 19.1029 89.3529 19.4606 89.2207 19.9756L88.0176 19.8115C88.127 19.2965 88.307 18.8818 88.5576 18.5674C88.8083 18.2484 89.1706 18.0046 89.6445 17.8359C90.1185 17.6628 90.6676 17.5762 91.292 17.5762C91.9118 17.5762 92.4154 17.6491 92.8027 17.7949C93.1901 17.9408 93.4749 18.1253 93.6572 18.3486C93.8395 18.5674 93.9671 18.8454 94.04 19.1826C94.0811 19.3923 94.1016 19.7705 94.1016 20.3174V21.958C94.1016 23.1019 94.1266 23.8265 94.1768 24.1318C94.2314 24.4326 94.3363 24.722 94.4912 25H93.2061C93.0785 24.7448 92.9964 24.4463 92.96 24.1045ZM92.8574 21.3564C92.4108 21.5387 91.7409 21.6937 90.8477 21.8213C90.3418 21.8942 89.984 21.9762 89.7744 22.0674C89.5648 22.1585 89.403 22.293 89.2891 22.4707C89.1751 22.6439 89.1182 22.8376 89.1182 23.0518C89.1182 23.3799 89.2412 23.6533 89.4873 23.8721C89.738 24.0908 90.1025 24.2002 90.5811 24.2002C91.055 24.2002 91.4766 24.0977 91.8457 23.8926C92.2148 23.6829 92.486 23.3981 92.6592 23.0381C92.7913 22.7601 92.8574 22.3499 92.8574 21.8076V21.3564ZM96.002 25V17.7402H97.1094V18.8408C97.3919 18.3258 97.6517 17.9863 97.8887 17.8223C98.1302 17.6582 98.3945 17.5762 98.6816 17.5762C99.0964 17.5762 99.5179 17.7083 99.9463 17.9727L99.5225 19.1143C99.2217 18.9365 98.9209 18.8477 98.6201 18.8477C98.3512 18.8477 98.1097 18.9297 97.8955 19.0938C97.6813 19.2533 97.5286 19.4766 97.4375 19.7637C97.3008 20.2012 97.2324 20.6797 97.2324 21.1992V25H96.002Z" fill="white"/>
</svg>
