<svg width="106" height="103" viewBox="0 0 106 103" fill="none" xmlns="http://www.w3.org/2000/svg">
<path d="M30.4756 96.4863L31.8018 96.8213C31.5238 97.9105 31.0225 98.7422 30.2979 99.3164C29.5778 99.8861 28.696 100.171 27.6523 100.171C26.5723 100.171 25.6927 99.9521 25.0137 99.5146C24.3392 99.0726 23.8242 98.4346 23.4688 97.6006C23.1178 96.7666 22.9424 95.8711 22.9424 94.9141C22.9424 93.8704 23.1406 92.9613 23.5371 92.1865C23.9382 91.4072 24.5055 90.8171 25.2393 90.416C25.9775 90.0104 26.7887 89.8076 27.6729 89.8076C28.6755 89.8076 29.5186 90.0628 30.2021 90.5732C30.8857 91.0837 31.362 91.8014 31.6309 92.7266L30.3252 93.0342C30.0928 92.305 29.7555 91.7741 29.3135 91.4414C28.8714 91.1087 28.3154 90.9424 27.6455 90.9424C26.8753 90.9424 26.2305 91.127 25.7109 91.4961C25.196 91.8652 24.8337 92.362 24.624 92.9863C24.4144 93.6061 24.3096 94.2464 24.3096 94.9072C24.3096 95.7594 24.4326 96.5046 24.6787 97.1426C24.9294 97.776 25.3167 98.25 25.8408 98.5645C26.3649 98.8789 26.9323 99.0361 27.543 99.0361C28.2858 99.0361 28.9147 98.8219 29.4297 98.3936C29.9447 97.9652 30.2933 97.3294 30.4756 96.4863ZM38.0225 99.1045C37.5667 99.4919 37.127 99.7653 36.7031 99.9248C36.2839 100.084 35.8327 100.164 35.3496 100.164C34.5521 100.164 33.9391 99.9704 33.5107 99.583C33.0824 99.1911 32.8682 98.6921 32.8682 98.0859C32.8682 97.7305 32.9479 97.4069 33.1074 97.1152C33.2715 96.819 33.4834 96.582 33.7432 96.4043C34.0075 96.2266 34.3037 96.0921 34.6318 96.001C34.8734 95.9372 35.238 95.8757 35.7256 95.8164C36.7191 95.6979 37.4505 95.5566 37.9199 95.3926C37.9245 95.224 37.9268 95.1169 37.9268 95.0713C37.9268 94.57 37.8105 94.2168 37.5781 94.0117C37.2637 93.7337 36.7965 93.5947 36.1768 93.5947C35.598 93.5947 35.1696 93.6973 34.8916 93.9023C34.6182 94.1029 34.4154 94.4606 34.2832 94.9756L33.0801 94.8115C33.1895 94.2965 33.3695 93.8818 33.6201 93.5674C33.8708 93.2484 34.2331 93.0046 34.707 92.8359C35.181 92.6628 35.7301 92.5762 36.3545 92.5762C36.9743 92.5762 37.4779 92.6491 37.8652 92.7949C38.2526 92.9408 38.5374 93.1253 38.7197 93.3486C38.902 93.5674 39.0296 93.8454 39.1025 94.1826C39.1436 94.3923 39.1641 94.7705 39.1641 95.3174V96.958C39.1641 98.1019 39.1891 98.8265 39.2393 99.1318C39.2939 99.4326 39.3988 99.722 39.5537 100H38.2686C38.141 99.7448 38.0589 99.4463 38.0225 99.1045ZM37.9199 96.3564C37.4733 96.5387 36.8034 96.6937 35.9102 96.8213C35.4043 96.8942 35.0465 96.9762 34.8369 97.0674C34.6273 97.1585 34.4655 97.293 34.3516 97.4707C34.2376 97.6439 34.1807 97.8376 34.1807 98.0518C34.1807 98.3799 34.3037 98.6533 34.5498 98.8721C34.8005 99.0908 35.165 99.2002 35.6436 99.2002C36.1175 99.2002 36.5391 99.0977 36.9082 98.8926C37.2773 98.6829 37.5485 98.3981 37.7217 98.0381C37.8538 97.7601 37.9199 97.3499 37.9199 96.8076V96.3564ZM45.7881 100V99.084C45.3278 99.804 44.651 100.164 43.7578 100.164C43.179 100.164 42.6458 100.005 42.1582 99.6855C41.6751 99.3665 41.2992 98.9222 41.0303 98.3525C40.766 97.7783 40.6338 97.1198 40.6338 96.377C40.6338 95.6523 40.7546 94.9961 40.9961 94.4082C41.2376 93.8158 41.5999 93.3623 42.083 93.0479C42.5661 92.7334 43.1061 92.5762 43.7031 92.5762C44.1406 92.5762 44.5303 92.6696 44.8721 92.8564C45.2139 93.0387 45.4919 93.278 45.7061 93.5742V89.9785H46.9297V100H45.7881ZM41.8984 96.377C41.8984 97.3066 42.0944 98.0016 42.4863 98.4619C42.8783 98.9222 43.3408 99.1523 43.874 99.1523C44.4118 99.1523 44.8675 98.9336 45.2412 98.4961C45.6195 98.054 45.8086 97.3818 45.8086 96.4795C45.8086 95.486 45.6172 94.7568 45.2344 94.292C44.8516 93.8271 44.3799 93.5947 43.8193 93.5947C43.2725 93.5947 42.8145 93.818 42.4453 94.2646C42.0807 94.7113 41.8984 95.4154 41.8984 96.377ZM53.6084 99.1045C53.1527 99.4919 52.7129 99.7653 52.2891 99.9248C51.8698 100.084 51.4186 100.164 50.9355 100.164C50.138 100.164 49.5251 99.9704 49.0967 99.583C48.6683 99.1911 48.4541 98.6921 48.4541 98.0859C48.4541 97.7305 48.5339 97.4069 48.6934 97.1152C48.8574 96.819 49.0693 96.582 49.3291 96.4043C49.5934 96.2266 49.8896 96.0921 50.2178 96.001C50.4593 95.9372 50.8239 95.8757 51.3115 95.8164C52.305 95.6979 53.0365 95.5566 53.5059 95.3926C53.5104 95.224 53.5127 95.1169 53.5127 95.0713C53.5127 94.57 53.3965 94.2168 53.1641 94.0117C52.8496 93.7337 52.3825 93.5947 51.7627 93.5947C51.1839 93.5947 50.7555 93.6973 50.4775 93.9023C50.2041 94.1029 50.0013 94.4606 49.8691 94.9756L48.666 94.8115C48.7754 94.2965 48.9554 93.8818 49.2061 93.5674C49.4567 93.2484 49.819 93.0046 50.293 92.8359C50.7669 92.6628 51.3161 92.5762 51.9404 92.5762C52.5602 92.5762 53.0638 92.6491 53.4512 92.7949C53.8385 92.9408 54.1234 93.1253 54.3057 93.3486C54.488 93.5674 54.6156 93.8454 54.6885 94.1826C54.7295 94.3923 54.75 94.7705 54.75 95.3174V96.958C54.75 98.1019 54.7751 98.8265 54.8252 99.1318C54.8799 99.4326 54.9847 99.722 55.1396 100H53.8545C53.7269 99.7448 53.6449 99.4463 53.6084 99.1045ZM53.5059 96.3564C53.0592 96.5387 52.3893 96.6937 51.4961 96.8213C50.9902 96.8942 50.6325 96.9762 50.4229 97.0674C50.2132 97.1585 50.0514 97.293 49.9375 97.4707C49.8236 97.6439 49.7666 97.8376 49.7666 98.0518C49.7666 98.3799 49.8896 98.6533 50.1357 98.8721C50.3864 99.0908 50.751 99.2002 51.2295 99.2002C51.7035 99.2002 52.125 99.0977 52.4941 98.8926C52.8633 98.6829 53.1344 98.3981 53.3076 98.0381C53.4398 97.7601 53.5059 97.3499 53.5059 96.8076V96.3564ZM56.1719 97.833L57.3887 97.6416C57.457 98.1292 57.6462 98.5029 57.9561 98.7627C58.2705 99.0225 58.708 99.1523 59.2686 99.1523C59.8337 99.1523 60.2529 99.0384 60.5264 98.8105C60.7998 98.5781 60.9365 98.307 60.9365 97.9971C60.9365 97.7191 60.8158 97.5003 60.5742 97.3408C60.4056 97.2314 59.9863 97.0924 59.3164 96.9238C58.4141 96.696 57.7874 96.5 57.4365 96.3359C57.0902 96.1673 56.8258 95.9372 56.6436 95.6455C56.4658 95.3493 56.377 95.0234 56.377 94.668C56.377 94.3444 56.4499 94.0459 56.5957 93.7725C56.7461 93.4945 56.9489 93.2643 57.2041 93.082C57.3955 92.9408 57.6553 92.8223 57.9834 92.7266C58.3161 92.6263 58.6715 92.5762 59.0498 92.5762C59.6195 92.5762 60.1185 92.6582 60.5469 92.8223C60.9798 92.9863 61.2988 93.2096 61.5039 93.4922C61.709 93.7702 61.8503 94.1439 61.9277 94.6133L60.7246 94.7773C60.6699 94.4036 60.5104 94.112 60.2461 93.9023C59.9863 93.6927 59.6172 93.5879 59.1387 93.5879C58.5736 93.5879 58.1702 93.6813 57.9287 93.8682C57.6872 94.055 57.5664 94.2738 57.5664 94.5244C57.5664 94.6839 57.6165 94.8275 57.7168 94.9551C57.8171 95.0872 57.9743 95.1966 58.1885 95.2832C58.3115 95.3288 58.6738 95.4336 59.2754 95.5977C60.1458 95.8301 60.752 96.0215 61.0938 96.1719C61.4401 96.3177 61.7113 96.5319 61.9072 96.8145C62.1032 97.097 62.2012 97.4479 62.2012 97.8672C62.2012 98.2773 62.0804 98.6647 61.8389 99.0293C61.6019 99.3893 61.2578 99.6696 60.8066 99.8701C60.3555 100.066 59.8451 100.164 59.2754 100.164C58.332 100.164 57.612 99.9681 57.1152 99.5762C56.623 99.1842 56.3086 98.6032 56.1719 97.833ZM66.3506 98.8994L66.5283 99.9863C66.182 100.059 65.8721 100.096 65.5986 100.096C65.152 100.096 64.8057 100.025 64.5596 99.8838C64.3135 99.7425 64.1403 99.5579 64.04 99.3301C63.9398 99.0977 63.8896 98.6123 63.8896 97.874V93.6973H62.9873V92.7402H63.8896V90.9424L65.1133 90.2041V92.7402H66.3506V93.6973H65.1133V97.9424C65.1133 98.2933 65.1338 98.5189 65.1748 98.6191C65.2204 98.7194 65.291 98.7992 65.3867 98.8584C65.487 98.9176 65.6283 98.9473 65.8105 98.9473C65.9473 98.9473 66.1273 98.9313 66.3506 98.8994ZM67.5469 100V92.7402H68.6543V93.8408C68.9368 93.3258 69.1966 92.9863 69.4336 92.8223C69.6751 92.6582 69.9395 92.5762 70.2266 92.5762C70.6413 92.5762 71.0628 92.7083 71.4912 92.9727L71.0674 94.1143C70.7666 93.9365 70.4658 93.8477 70.165 93.8477C69.8962 93.8477 69.6546 93.9297 69.4404 94.0938C69.2262 94.2533 69.0736 94.4766 68.9824 94.7637C68.8457 95.2012 68.7773 95.6797 68.7773 96.1992V100H67.5469ZM76.96 99.1045C76.5042 99.4919 76.0645 99.7653 75.6406 99.9248C75.2214 100.084 74.7702 100.164 74.2871 100.164C73.4896 100.164 72.8766 99.9704 72.4482 99.583C72.0199 99.1911 71.8057 98.6921 71.8057 98.0859C71.8057 97.7305 71.8854 97.4069 72.0449 97.1152C72.209 96.819 72.4209 96.582 72.6807 96.4043C72.945 96.2266 73.2412 96.0921 73.5693 96.001C73.8109 95.9372 74.1755 95.8757 74.6631 95.8164C75.6566 95.6979 76.388 95.5566 76.8574 95.3926C76.862 95.224 76.8643 95.1169 76.8643 95.0713C76.8643 94.57 76.748 94.2168 76.5156 94.0117C76.2012 93.7337 75.734 93.5947 75.1143 93.5947C74.5355 93.5947 74.1071 93.6973 73.8291 93.9023C73.5557 94.1029 73.3529 94.4606 73.2207 94.9756L72.0176 94.8115C72.127 94.2965 72.307 93.8818 72.5576 93.5674C72.8083 93.2484 73.1706 93.0046 73.6445 92.8359C74.1185 92.6628 74.6676 92.5762 75.292 92.5762C75.9118 92.5762 76.4154 92.6491 76.8027 92.7949C77.1901 92.9408 77.4749 93.1253 77.6572 93.3486C77.8395 93.5674 77.9671 93.8454 78.04 94.1826C78.0811 94.3923 78.1016 94.7705 78.1016 95.3174V96.958C78.1016 98.1019 78.1266 98.8265 78.1768 99.1318C78.2314 99.4326 78.3363 99.722 78.4912 100H77.2061C77.0785 99.7448 76.9964 99.4463 76.96 99.1045ZM76.8574 96.3564C76.4108 96.5387 75.7409 96.6937 74.8477 96.8213C74.3418 96.8942 73.984 96.9762 73.7744 97.0674C73.5648 97.1585 73.403 97.293 73.2891 97.4707C73.1751 97.6439 73.1182 97.8376 73.1182 98.0518C73.1182 98.3799 73.2412 98.6533 73.4873 98.8721C73.738 99.0908 74.1025 99.2002 74.5811 99.2002C75.055 99.2002 75.4766 99.0977 75.8457 98.8926C76.2148 98.6829 76.486 98.3981 76.6592 98.0381C76.7913 97.7601 76.8574 97.3499 76.8574 96.8076V96.3564ZM80.002 100V92.7402H81.1094V93.8408C81.3919 93.3258 81.6517 92.9863 81.8887 92.8223C82.1302 92.6582 82.3945 92.5762 82.6816 92.5762C83.0964 92.5762 83.5179 92.7083 83.9463 92.9727L83.5225 94.1143C83.2217 93.9365 82.9209 93.8477 82.6201 93.8477C82.3512 93.8477 82.1097 93.9297 81.8955 94.0938C81.6813 94.2533 81.5286 94.4766 81.4375 94.7637C81.3008 95.2012 81.2324 95.6797 81.2324 96.1992V100H80.002Z" fill="#003C44"/>
<circle cx="52.5" cy="41.5" r="41.5" fill="#32BCAD"/>
<path d="M63 45.3333V40.3333H58V37H63V32H66.3333V37H71.3333V40.3333H66.3333V45.3333H63ZM48 42C46.1667 42 44.5972 41.3472 43.2917 40.0417C41.9861 38.7361 41.3333 37.1667 41.3333 35.3333C41.3333 33.5 41.9861 31.9306 43.2917 30.625C44.5972 29.3194 46.1667 28.6667 48 28.6667C49.8333 28.6667 51.4028 29.3194 52.7083 30.625C54.0139 31.9306 54.6667 33.5 54.6667 35.3333C54.6667 37.1667 54.0139 38.7361 52.7083 40.0417C51.4028 41.3472 49.8333 42 48 42ZM34.6667 55.3333V50.6667C34.6667 49.7222 34.9097 48.8542 35.3958 48.0625C35.8819 47.2708 36.5278 46.6667 37.3333 46.25C39.0556 45.3889 40.8056 44.7431 42.5833 44.3125C44.3611 43.8819 46.1667 43.6667 48 43.6667C49.8333 43.6667 51.6389 43.8819 53.4167 44.3125C55.1945 44.7431 56.9445 45.3889 58.6667 46.25C59.4722 46.6667 60.1181 47.2708 60.6042 48.0625C61.0903 48.8542 61.3333 49.7222 61.3333 50.6667V55.3333H34.6667ZM38 52H58V50.6667C58 50.3611 57.9236 50.0833 57.7708 49.8333C57.6181 49.5833 57.4167 49.3889 57.1667 49.25C55.6667 48.5 54.1528 47.9375 52.625 47.5625C51.0972 47.1875 49.5556 47 48 47C46.4445 47 44.9028 47.1875 43.375 47.5625C41.8472 47.9375 40.3333 48.5 38.8333 49.25C38.5833 49.3889 38.3819 49.5833 38.2292 49.8333C38.0764 50.0833 38 50.3611 38 50.6667V52ZM48 38.6667C48.9167 38.6667 49.7014 38.3403 50.3542 37.6875C51.007 37.0347 51.3333 36.25 51.3333 35.3333C51.3333 34.4167 51.007 33.6319 50.3542 32.9792C49.7014 32.3264 48.9167 32 48 32C47.0833 32 46.2986 32.3264 45.6458 32.9792C44.9931 33.6319 44.6667 34.4167 44.6667 35.3333C44.6667 36.25 44.9931 37.0347 45.6458 37.6875C46.2986 38.3403 47.0833 38.6667 48 38.6667Z" fill="white"/>
</svg>
