<svg width="106" height="104" viewBox="0 0 106 104" fill="none" xmlns="http://www.w3.org/2000/svg">
<path d="M30.4756 97.4863L31.8018 97.8213C31.5238 98.9105 31.0225 99.7422 30.2979 100.316C29.5778 100.886 28.696 101.171 27.6523 101.171C26.5723 101.171 25.6927 100.952 25.0137 100.515C24.3392 100.073 23.8242 99.4346 23.4688 98.6006C23.1178 97.7666 22.9424 96.8711 22.9424 95.9141C22.9424 94.8704 23.1406 93.9613 23.5371 93.1865C23.9382 92.4072 24.5055 91.8171 25.2393 91.416C25.9775 91.0104 26.7887 90.8076 27.6729 90.8076C28.6755 90.8076 29.5186 91.0628 30.2021 91.5732C30.8857 92.0837 31.362 92.8014 31.6309 93.7266L30.3252 94.0342C30.0928 93.305 29.7555 92.7741 29.3135 92.4414C28.8714 92.1087 28.3154 91.9424 27.6455 91.9424C26.8753 91.9424 26.2305 92.127 25.7109 92.4961C25.196 92.8652 24.8337 93.362 24.624 93.9863C24.4144 94.6061 24.3096 95.2464 24.3096 95.9072C24.3096 96.7594 24.4326 97.5046 24.6787 98.1426C24.9294 98.776 25.3167 99.25 25.8408 99.5645C26.3649 99.8789 26.9323 100.036 27.543 100.036C28.2858 100.036 28.9147 99.8219 29.4297 99.3936C29.9447 98.9652 30.2933 98.3294 30.4756 97.4863ZM38.0225 100.104C37.5667 100.492 37.127 100.765 36.7031 100.925C36.2839 101.084 35.8327 101.164 35.3496 101.164C34.5521 101.164 33.9391 100.97 33.5107 100.583C33.0824 100.191 32.8682 99.6921 32.8682 99.0859C32.8682 98.7305 32.9479 98.4069 33.1074 98.1152C33.2715 97.819 33.4834 97.582 33.7432 97.4043C34.0075 97.2266 34.3037 97.0921 34.6318 97.001C34.8734 96.9372 35.238 96.8757 35.7256 96.8164C36.7191 96.6979 37.4505 96.5566 37.9199 96.3926C37.9245 96.224 37.9268 96.1169 37.9268 96.0713C37.9268 95.57 37.8105 95.2168 37.5781 95.0117C37.2637 94.7337 36.7965 94.5947 36.1768 94.5947C35.598 94.5947 35.1696 94.6973 34.8916 94.9023C34.6182 95.1029 34.4154 95.4606 34.2832 95.9756L33.0801 95.8115C33.1895 95.2965 33.3695 94.8818 33.6201 94.5674C33.8708 94.2484 34.2331 94.0046 34.707 93.8359C35.181 93.6628 35.7301 93.5762 36.3545 93.5762C36.9743 93.5762 37.4779 93.6491 37.8652 93.7949C38.2526 93.9408 38.5374 94.1253 38.7197 94.3486C38.902 94.5674 39.0296 94.8454 39.1025 95.1826C39.1436 95.3923 39.1641 95.7705 39.1641 96.3174V97.958C39.1641 99.1019 39.1891 99.8265 39.2393 100.132C39.2939 100.433 39.3988 100.722 39.5537 101H38.2686C38.141 100.745 38.0589 100.446 38.0225 100.104ZM37.9199 97.3564C37.4733 97.5387 36.8034 97.6937 35.9102 97.8213C35.4043 97.8942 35.0465 97.9762 34.8369 98.0674C34.6273 98.1585 34.4655 98.293 34.3516 98.4707C34.2376 98.6439 34.1807 98.8376 34.1807 99.0518C34.1807 99.3799 34.3037 99.6533 34.5498 99.8721C34.8005 100.091 35.165 100.2 35.6436 100.2C36.1175 100.2 36.5391 100.098 36.9082 99.8926C37.2773 99.6829 37.5485 99.3981 37.7217 99.0381C37.8538 98.7601 37.9199 98.3499 37.9199 97.8076V97.3564ZM45.7881 101V100.084C45.3278 100.804 44.651 101.164 43.7578 101.164C43.179 101.164 42.6458 101.005 42.1582 100.686C41.6751 100.367 41.2992 99.9222 41.0303 99.3525C40.766 98.7783 40.6338 98.1198 40.6338 97.377C40.6338 96.6523 40.7546 95.9961 40.9961 95.4082C41.2376 94.8158 41.5999 94.3623 42.083 94.0479C42.5661 93.7334 43.1061 93.5762 43.7031 93.5762C44.1406 93.5762 44.5303 93.6696 44.8721 93.8564C45.2139 94.0387 45.4919 94.278 45.7061 94.5742V90.9785H46.9297V101H45.7881ZM41.8984 97.377C41.8984 98.3066 42.0944 99.0016 42.4863 99.4619C42.8783 99.9222 43.3408 100.152 43.874 100.152C44.4118 100.152 44.8675 99.9336 45.2412 99.4961C45.6195 99.054 45.8086 98.3818 45.8086 97.4795C45.8086 96.486 45.6172 95.7568 45.2344 95.292C44.8516 94.8271 44.3799 94.5947 43.8193 94.5947C43.2725 94.5947 42.8145 94.818 42.4453 95.2646C42.0807 95.7113 41.8984 96.4154 41.8984 97.377ZM53.6084 100.104C53.1527 100.492 52.7129 100.765 52.2891 100.925C51.8698 101.084 51.4186 101.164 50.9355 101.164C50.138 101.164 49.5251 100.97 49.0967 100.583C48.6683 100.191 48.4541 99.6921 48.4541 99.0859C48.4541 98.7305 48.5339 98.4069 48.6934 98.1152C48.8574 97.819 49.0693 97.582 49.3291 97.4043C49.5934 97.2266 49.8896 97.0921 50.2178 97.001C50.4593 96.9372 50.8239 96.8757 51.3115 96.8164C52.305 96.6979 53.0365 96.5566 53.5059 96.3926C53.5104 96.224 53.5127 96.1169 53.5127 96.0713C53.5127 95.57 53.3965 95.2168 53.1641 95.0117C52.8496 94.7337 52.3825 94.5947 51.7627 94.5947C51.1839 94.5947 50.7555 94.6973 50.4775 94.9023C50.2041 95.1029 50.0013 95.4606 49.8691 95.9756L48.666 95.8115C48.7754 95.2965 48.9554 94.8818 49.2061 94.5674C49.4567 94.2484 49.819 94.0046 50.293 93.8359C50.7669 93.6628 51.3161 93.5762 51.9404 93.5762C52.5602 93.5762 53.0638 93.6491 53.4512 93.7949C53.8385 93.9408 54.1234 94.1253 54.3057 94.3486C54.488 94.5674 54.6156 94.8454 54.6885 95.1826C54.7295 95.3923 54.75 95.7705 54.75 96.3174V97.958C54.75 99.1019 54.7751 99.8265 54.8252 100.132C54.8799 100.433 54.9847 100.722 55.1396 101H53.8545C53.7269 100.745 53.6449 100.446 53.6084 100.104ZM53.5059 97.3564C53.0592 97.5387 52.3893 97.6937 51.4961 97.8213C50.9902 97.8942 50.6325 97.9762 50.4229 98.0674C50.2132 98.1585 50.0514 98.293 49.9375 98.4707C49.8236 98.6439 49.7666 98.8376 49.7666 99.0518C49.7666 99.3799 49.8896 99.6533 50.1357 99.8721C50.3864 100.091 50.751 100.2 51.2295 100.2C51.7035 100.2 52.125 100.098 52.4941 99.8926C52.8633 99.6829 53.1344 99.3981 53.3076 99.0381C53.4398 98.7601 53.5059 98.3499 53.5059 97.8076V97.3564ZM56.1719 98.833L57.3887 98.6416C57.457 99.1292 57.6462 99.5029 57.9561 99.7627C58.2705 100.022 58.708 100.152 59.2686 100.152C59.8337 100.152 60.2529 100.038 60.5264 99.8105C60.7998 99.5781 60.9365 99.307 60.9365 98.9971C60.9365 98.7191 60.8158 98.5003 60.5742 98.3408C60.4056 98.2314 59.9863 98.0924 59.3164 97.9238C58.4141 97.696 57.7874 97.5 57.4365 97.3359C57.0902 97.1673 56.8258 96.9372 56.6436 96.6455C56.4658 96.3493 56.377 96.0234 56.377 95.668C56.377 95.3444 56.4499 95.0459 56.5957 94.7725C56.7461 94.4945 56.9489 94.2643 57.2041 94.082C57.3955 93.9408 57.6553 93.8223 57.9834 93.7266C58.3161 93.6263 58.6715 93.5762 59.0498 93.5762C59.6195 93.5762 60.1185 93.6582 60.5469 93.8223C60.9798 93.9863 61.2988 94.2096 61.5039 94.4922C61.709 94.7702 61.8503 95.1439 61.9277 95.6133L60.7246 95.7773C60.6699 95.4036 60.5104 95.112 60.2461 94.9023C59.9863 94.6927 59.6172 94.5879 59.1387 94.5879C58.5736 94.5879 58.1702 94.6813 57.9287 94.8682C57.6872 95.055 57.5664 95.2738 57.5664 95.5244C57.5664 95.6839 57.6165 95.8275 57.7168 95.9551C57.8171 96.0872 57.9743 96.1966 58.1885 96.2832C58.3115 96.3288 58.6738 96.4336 59.2754 96.5977C60.1458 96.8301 60.752 97.0215 61.0938 97.1719C61.4401 97.3177 61.7113 97.5319 61.9072 97.8145C62.1032 98.097 62.2012 98.4479 62.2012 98.8672C62.2012 99.2773 62.0804 99.6647 61.8389 100.029C61.6019 100.389 61.2578 100.67 60.8066 100.87C60.3555 101.066 59.8451 101.164 59.2754 101.164C58.332 101.164 57.612 100.968 57.1152 100.576C56.623 100.184 56.3086 99.6032 56.1719 98.833ZM66.3506 99.8994L66.5283 100.986C66.182 101.059 65.8721 101.096 65.5986 101.096C65.152 101.096 64.8057 101.025 64.5596 100.884C64.3135 100.743 64.1403 100.558 64.04 100.33C63.9398 100.098 63.8896 99.6123 63.8896 98.874V94.6973H62.9873V93.7402H63.8896V91.9424L65.1133 91.2041V93.7402H66.3506V94.6973H65.1133V98.9424C65.1133 99.2933 65.1338 99.5189 65.1748 99.6191C65.2204 99.7194 65.291 99.7992 65.3867 99.8584C65.487 99.9176 65.6283 99.9473 65.8105 99.9473C65.9473 99.9473 66.1273 99.9313 66.3506 99.8994ZM67.5469 101V93.7402H68.6543V94.8408C68.9368 94.3258 69.1966 93.9863 69.4336 93.8223C69.6751 93.6582 69.9395 93.5762 70.2266 93.5762C70.6413 93.5762 71.0628 93.7083 71.4912 93.9727L71.0674 95.1143C70.7666 94.9365 70.4658 94.8477 70.165 94.8477C69.8962 94.8477 69.6546 94.9297 69.4404 95.0938C69.2262 95.2533 69.0736 95.4766 68.9824 95.7637C68.8457 96.2012 68.7773 96.6797 68.7773 97.1992V101H67.5469ZM76.96 100.104C76.5042 100.492 76.0645 100.765 75.6406 100.925C75.2214 101.084 74.7702 101.164 74.2871 101.164C73.4896 101.164 72.8766 100.97 72.4482 100.583C72.0199 100.191 71.8057 99.6921 71.8057 99.0859C71.8057 98.7305 71.8854 98.4069 72.0449 98.1152C72.209 97.819 72.4209 97.582 72.6807 97.4043C72.945 97.2266 73.2412 97.0921 73.5693 97.001C73.8109 96.9372 74.1755 96.8757 74.6631 96.8164C75.6566 96.6979 76.388 96.5566 76.8574 96.3926C76.862 96.224 76.8643 96.1169 76.8643 96.0713C76.8643 95.57 76.748 95.2168 76.5156 95.0117C76.2012 94.7337 75.734 94.5947 75.1143 94.5947C74.5355 94.5947 74.1071 94.6973 73.8291 94.9023C73.5557 95.1029 73.3529 95.4606 73.2207 95.9756L72.0176 95.8115C72.127 95.2965 72.307 94.8818 72.5576 94.5674C72.8083 94.2484 73.1706 94.0046 73.6445 93.8359C74.1185 93.6628 74.6676 93.5762 75.292 93.5762C75.9118 93.5762 76.4154 93.6491 76.8027 93.7949C77.1901 93.9408 77.4749 94.1253 77.6572 94.3486C77.8395 94.5674 77.9671 94.8454 78.04 95.1826C78.0811 95.3923 78.1016 95.7705 78.1016 96.3174V97.958C78.1016 99.1019 78.1266 99.8265 78.1768 100.132C78.2314 100.433 78.3363 100.722 78.4912 101H77.2061C77.0785 100.745 76.9964 100.446 76.96 100.104ZM76.8574 97.3564C76.4108 97.5387 75.7409 97.6937 74.8477 97.8213C74.3418 97.8942 73.984 97.9762 73.7744 98.0674C73.5648 98.1585 73.403 98.293 73.2891 98.4707C73.1751 98.6439 73.1182 98.8376 73.1182 99.0518C73.1182 99.3799 73.2412 99.6533 73.4873 99.8721C73.738 100.091 74.1025 100.2 74.5811 100.2C75.055 100.2 75.4766 100.098 75.8457 99.8926C76.2148 99.6829 76.486 99.3981 76.6592 99.0381C76.7913 98.7601 76.8574 98.3499 76.8574 97.8076V97.3564ZM80.002 101V93.7402H81.1094V94.8408C81.3919 94.3258 81.6517 93.9863 81.8887 93.8223C82.1302 93.6582 82.3945 93.5762 82.6816 93.5762C83.0964 93.5762 83.5179 93.7083 83.9463 93.9727L83.5225 95.1143C83.2217 94.9365 82.9209 94.8477 82.6201 94.8477C82.3512 94.8477 82.1097 94.9297 81.8955 95.0938C81.6813 95.2533 81.5286 95.4766 81.4375 95.7637C81.3008 96.2012 81.2324 96.6797 81.2324 97.1992V101H80.002Z" fill="#003C44"/>
<circle cx="52.5" cy="42.5" r="41.5" fill="white" stroke="#32BCAD" stroke-width="2"/>
<path d="M63 46.3333V41.3333H58V38H63V33H66.3333V38H71.3333V41.3333H66.3333V46.3333H63ZM48 43C46.1667 43 44.5972 42.3472 43.2917 41.0417C41.9861 39.7361 41.3333 38.1667 41.3333 36.3333C41.3333 34.5 41.9861 32.9305 43.2917 31.625C44.5972 30.3194 46.1667 29.6667 48 29.6667C49.8333 29.6667 51.4028 30.3194 52.7083 31.625C54.0139 32.9305 54.6667 34.5 54.6667 36.3333C54.6667 38.1667 54.0139 39.7361 52.7083 41.0417C51.4028 42.3472 49.8333 43 48 43ZM34.6667 56.3333V51.6667C34.6667 50.7222 34.9097 49.8542 35.3958 49.0625C35.8819 48.2708 36.5278 47.6667 37.3333 47.25C39.0556 46.3889 40.8056 45.743 42.5833 45.3125C44.3611 44.8819 46.1667 44.6667 48 44.6667C49.8333 44.6667 51.6389 44.8819 53.4167 45.3125C55.1945 45.743 56.9445 46.3889 58.6667 47.25C59.4722 47.6667 60.1181 48.2708 60.6042 49.0625C61.0903 49.8542 61.3333 50.7222 61.3333 51.6667V56.3333H34.6667ZM38 53H58V51.6667C58 51.3611 57.9236 51.0833 57.7708 50.8333C57.6181 50.5833 57.4167 50.3889 57.1667 50.25C55.6667 49.5 54.1528 48.9375 52.625 48.5625C51.0972 48.1875 49.5556 48 48 48C46.4445 48 44.9028 48.1875 43.375 48.5625C41.8472 48.9375 40.3333 49.5 38.8333 50.25C38.5833 50.3889 38.3819 50.5833 38.2292 50.8333C38.0764 51.0833 38 51.3611 38 51.6667V53ZM48 39.6667C48.9167 39.6667 49.7014 39.3403 50.3542 38.6875C51.007 38.0347 51.3333 37.25 51.3333 36.3333C51.3333 35.4167 51.007 34.6319 50.3542 33.9792C49.7014 33.3264 48.9167 33 48 33C47.0833 33 46.2986 33.3264 45.6458 33.9792C44.9931 34.6319 44.6667 35.4167 44.6667 36.3333C44.6667 37.25 44.9931 38.0347 45.6458 38.6875C46.2986 39.3403 47.0833 39.6667 48 39.6667Z" fill="#32BCAD"/>
</svg>
