<svg width="112" height="42" viewBox="0 0 112 42" fill="none" xmlns="http://www.w3.org/2000/svg">
<rect x="1" y="1" width="110" height="40" rx="8" fill="white" stroke="#32BCAD"/>
<path d="M29 23V20H26V18H29V15H31V18H34V20H31V23H29ZM20 21C18.9 21 17.9583 20.6083 17.175 19.825C16.3917 19.0417 16 18.1 16 17C16 15.9 16.3917 14.9583 17.175 14.175C17.9583 13.3917 18.9 13 20 13C21.1 13 22.0417 13.3917 22.825 14.175C23.6083 14.9583 24 15.9 24 17C24 18.1 23.6083 19.0417 22.825 19.825C22.0417 20.6083 21.1 21 20 21ZM12 29V26.2C12 25.6333 12.1458 25.1125 12.4375 24.6375C12.7292 24.1625 13.1167 23.8 13.6 23.55C14.6333 23.0333 15.6833 22.6458 16.75 22.3875C17.8167 22.1292 18.9 22 20 22C21.1 22 22.1833 22.1292 23.25 22.3875C24.3167 22.6458 25.3667 23.0333 26.4 23.55C26.8833 23.8 27.2708 24.1625 27.5625 24.6375C27.8542 25.1125 28 25.6333 28 26.2V29H12ZM14 27H26V26.2C26 26.0167 25.9542 25.85 25.8625 25.7C25.7708 25.55 25.65 25.4333 25.5 25.35C24.6 24.9 23.6917 24.5625 22.775 24.3375C21.8583 24.1125 20.9333 24 20 24C19.0667 24 18.1417 24.1125 17.225 24.3375C16.3083 24.5625 15.4 24.9 14.5 25.35C14.35 25.4333 14.2292 25.55 14.1375 25.7C14.0458 25.85 14 26.0167 14 26.2V27ZM20 19C20.55 19 21.0208 18.8042 21.4125 18.4125C21.8042 18.0208 22 17.55 22 17C22 16.45 21.8042 15.9792 21.4125 15.5875C21.0208 15.1958 20.55 15 20 15C19.45 15 18.9792 15.1958 18.5875 15.5875C18.1958 15.9792 18 16.45 18 17C18 17.55 18.1958 18.0208 18.5875 18.4125C18.9792 18.8042 19.45 19 20 19Z" fill="#32BCAD"/>
<path d="M47.4756 22.4863L48.8018 22.8213C48.5238 23.9105 48.0225 24.7422 47.2979 25.3164C46.5778 25.8861 45.696 26.1709 44.6523 26.1709C43.5723 26.1709 42.6927 25.9521 42.0137 25.5146C41.3392 25.0726 40.8242 24.4346 40.4688 23.6006C40.1178 22.7666 39.9424 21.8711 39.9424 20.9141C39.9424 19.8704 40.1406 18.9613 40.5371 18.1865C40.9382 17.4072 41.5055 16.8171 42.2393 16.416C42.9775 16.0104 43.7887 15.8076 44.6729 15.8076C45.6755 15.8076 46.5186 16.0628 47.2021 16.5732C47.8857 17.0837 48.362 17.8014 48.6309 18.7266L47.3252 19.0342C47.0928 18.305 46.7555 17.7741 46.3135 17.4414C45.8714 17.1087 45.3154 16.9424 44.6455 16.9424C43.8753 16.9424 43.2305 17.127 42.7109 17.4961C42.196 17.8652 41.8337 18.362 41.624 18.9863C41.4144 19.6061 41.3096 20.2464 41.3096 20.9072C41.3096 21.7594 41.4326 22.5046 41.6787 23.1426C41.9294 23.776 42.3167 24.25 42.8408 24.5645C43.3649 24.8789 43.9323 25.0361 44.543 25.0361C45.2858 25.0361 45.9147 24.8219 46.4297 24.3936C46.9447 23.9652 47.2933 23.3294 47.4756 22.4863ZM55.0225 25.1045C54.5667 25.4919 54.127 25.7653 53.7031 25.9248C53.2839 26.0843 52.8327 26.1641 52.3496 26.1641C51.5521 26.1641 50.9391 25.9704 50.5107 25.583C50.0824 25.1911 49.8682 24.6921 49.8682 24.0859C49.8682 23.7305 49.9479 23.4069 50.1074 23.1152C50.2715 22.819 50.4834 22.582 50.7432 22.4043C51.0075 22.2266 51.3037 22.0921 51.6318 22.001C51.8734 21.9372 52.238 21.8757 52.7256 21.8164C53.7191 21.6979 54.4505 21.5566 54.9199 21.3926C54.9245 21.224 54.9268 21.1169 54.9268 21.0713C54.9268 20.57 54.8105 20.2168 54.5781 20.0117C54.2637 19.7337 53.7965 19.5947 53.1768 19.5947C52.598 19.5947 52.1696 19.6973 51.8916 19.9023C51.6182 20.1029 51.4154 20.4606 51.2832 20.9756L50.0801 20.8115C50.1895 20.2965 50.3695 19.8818 50.6201 19.5674C50.8708 19.2484 51.2331 19.0046 51.707 18.8359C52.181 18.6628 52.7301 18.5762 53.3545 18.5762C53.9743 18.5762 54.4779 18.6491 54.8652 18.7949C55.2526 18.9408 55.5374 19.1253 55.7197 19.3486C55.902 19.5674 56.0296 19.8454 56.1025 20.1826C56.1436 20.3923 56.1641 20.7705 56.1641 21.3174V22.958C56.1641 24.1019 56.1891 24.8265 56.2393 25.1318C56.2939 25.4326 56.3988 25.722 56.5537 26H55.2686C55.141 25.7448 55.0589 25.4463 55.0225 25.1045ZM54.9199 22.3564C54.4733 22.5387 53.8034 22.6937 52.9102 22.8213C52.4043 22.8942 52.0465 22.9762 51.8369 23.0674C51.6273 23.1585 51.4655 23.293 51.3516 23.4707C51.2376 23.6439 51.1807 23.8376 51.1807 24.0518C51.1807 24.3799 51.3037 24.6533 51.5498 24.8721C51.8005 25.0908 52.165 25.2002 52.6436 25.2002C53.1175 25.2002 53.5391 25.0977 53.9082 24.8926C54.2773 24.6829 54.5485 24.3981 54.7217 24.0381C54.8538 23.7601 54.9199 23.3499 54.9199 22.8076V22.3564ZM62.7881 26V25.084C62.3278 25.804 61.651 26.1641 60.7578 26.1641C60.179 26.1641 59.6458 26.0046 59.1582 25.6855C58.6751 25.3665 58.2992 24.9222 58.0303 24.3525C57.766 23.7783 57.6338 23.1198 57.6338 22.377C57.6338 21.6523 57.7546 20.9961 57.9961 20.4082C58.2376 19.8158 58.5999 19.3623 59.083 19.0479C59.5661 18.7334 60.1061 18.5762 60.7031 18.5762C61.1406 18.5762 61.5303 18.6696 61.8721 18.8564C62.2139 19.0387 62.4919 19.278 62.7061 19.5742V15.9785H63.9297V26H62.7881ZM58.8984 22.377C58.8984 23.3066 59.0944 24.0016 59.4863 24.4619C59.8783 24.9222 60.3408 25.1523 60.874 25.1523C61.4118 25.1523 61.8675 24.9336 62.2412 24.4961C62.6195 24.054 62.8086 23.3818 62.8086 22.4795C62.8086 21.486 62.6172 20.7568 62.2344 20.292C61.8516 19.8271 61.3799 19.5947 60.8193 19.5947C60.2725 19.5947 59.8145 19.818 59.4453 20.2646C59.0807 20.7113 58.8984 21.4154 58.8984 22.377ZM70.6084 25.1045C70.1527 25.4919 69.7129 25.7653 69.2891 25.9248C68.8698 26.0843 68.4186 26.1641 67.9355 26.1641C67.138 26.1641 66.5251 25.9704 66.0967 25.583C65.6683 25.1911 65.4541 24.6921 65.4541 24.0859C65.4541 23.7305 65.5339 23.4069 65.6934 23.1152C65.8574 22.819 66.0693 22.582 66.3291 22.4043C66.5934 22.2266 66.8896 22.0921 67.2178 22.001C67.4593 21.9372 67.8239 21.8757 68.3115 21.8164C69.305 21.6979 70.0365 21.5566 70.5059 21.3926C70.5104 21.224 70.5127 21.1169 70.5127 21.0713C70.5127 20.57 70.3965 20.2168 70.1641 20.0117C69.8496 19.7337 69.3825 19.5947 68.7627 19.5947C68.1839 19.5947 67.7555 19.6973 67.4775 19.9023C67.2041 20.1029 67.0013 20.4606 66.8691 20.9756L65.666 20.8115C65.7754 20.2965 65.9554 19.8818 66.2061 19.5674C66.4567 19.2484 66.819 19.0046 67.293 18.8359C67.7669 18.6628 68.3161 18.5762 68.9404 18.5762C69.5602 18.5762 70.0638 18.6491 70.4512 18.7949C70.8385 18.9408 71.1234 19.1253 71.3057 19.3486C71.488 19.5674 71.6156 19.8454 71.6885 20.1826C71.7295 20.3923 71.75 20.7705 71.75 21.3174V22.958C71.75 24.1019 71.7751 24.8265 71.8252 25.1318C71.8799 25.4326 71.9847 25.722 72.1396 26H70.8545C70.7269 25.7448 70.6449 25.4463 70.6084 25.1045ZM70.5059 22.3564C70.0592 22.5387 69.3893 22.6937 68.4961 22.8213C67.9902 22.8942 67.6325 22.9762 67.4229 23.0674C67.2132 23.1585 67.0514 23.293 66.9375 23.4707C66.8236 23.6439 66.7666 23.8376 66.7666 24.0518C66.7666 24.3799 66.8896 24.6533 67.1357 24.8721C67.3864 25.0908 67.751 25.2002 68.2295 25.2002C68.7035 25.2002 69.125 25.0977 69.4941 24.8926C69.8633 24.6829 70.1344 24.3981 70.3076 24.0381C70.4398 23.7601 70.5059 23.3499 70.5059 22.8076V22.3564ZM73.1719 23.833L74.3887 23.6416C74.457 24.1292 74.6462 24.5029 74.9561 24.7627C75.2705 25.0225 75.708 25.1523 76.2686 25.1523C76.8337 25.1523 77.2529 25.0384 77.5264 24.8105C77.7998 24.5781 77.9365 24.307 77.9365 23.9971C77.9365 23.7191 77.8158 23.5003 77.5742 23.3408C77.4056 23.2314 76.9863 23.0924 76.3164 22.9238C75.4141 22.696 74.7874 22.5 74.4365 22.3359C74.0902 22.1673 73.8258 21.9372 73.6436 21.6455C73.4658 21.3493 73.377 21.0234 73.377 20.668C73.377 20.3444 73.4499 20.0459 73.5957 19.7725C73.7461 19.4945 73.9489 19.2643 74.2041 19.082C74.3955 18.9408 74.6553 18.8223 74.9834 18.7266C75.3161 18.6263 75.6715 18.5762 76.0498 18.5762C76.6195 18.5762 77.1185 18.6582 77.5469 18.8223C77.9798 18.9863 78.2988 19.2096 78.5039 19.4922C78.709 19.7702 78.8503 20.1439 78.9277 20.6133L77.7246 20.7773C77.6699 20.4036 77.5104 20.112 77.2461 19.9023C76.9863 19.6927 76.6172 19.5879 76.1387 19.5879C75.5736 19.5879 75.1702 19.6813 74.9287 19.8682C74.6872 20.055 74.5664 20.2738 74.5664 20.5244C74.5664 20.6839 74.6165 20.8275 74.7168 20.9551C74.8171 21.0872 74.9743 21.1966 75.1885 21.2832C75.3115 21.3288 75.6738 21.4336 76.2754 21.5977C77.1458 21.8301 77.752 22.0215 78.0938 22.1719C78.4401 22.3177 78.7113 22.5319 78.9072 22.8145C79.1032 23.097 79.2012 23.4479 79.2012 23.8672C79.2012 24.2773 79.0804 24.6647 78.8389 25.0293C78.6019 25.3893 78.2578 25.6696 77.8066 25.8701C77.3555 26.0661 76.8451 26.1641 76.2754 26.1641C75.332 26.1641 74.612 25.9681 74.1152 25.5762C73.623 25.1842 73.3086 24.6032 73.1719 23.833ZM83.3506 24.8994L83.5283 25.9863C83.182 26.0592 82.8721 26.0957 82.5986 26.0957C82.152 26.0957 81.8057 26.0251 81.5596 25.8838C81.3135 25.7425 81.1403 25.5579 81.04 25.3301C80.9398 25.0977 80.8896 24.6123 80.8896 23.874V19.6973H79.9873V18.7402H80.8896V16.9424L82.1133 16.2041V18.7402H83.3506V19.6973H82.1133V23.9424C82.1133 24.2933 82.1338 24.5189 82.1748 24.6191C82.2204 24.7194 82.291 24.7992 82.3867 24.8584C82.487 24.9176 82.6283 24.9473 82.8105 24.9473C82.9473 24.9473 83.1273 24.9313 83.3506 24.8994ZM84.5469 26V18.7402H85.6543V19.8408C85.9368 19.3258 86.1966 18.9863 86.4336 18.8223C86.6751 18.6582 86.9395 18.5762 87.2266 18.5762C87.6413 18.5762 88.0628 18.7083 88.4912 18.9727L88.0674 20.1143C87.7666 19.9365 87.4658 19.8477 87.165 19.8477C86.8962 19.8477 86.6546 19.9297 86.4404 20.0938C86.2262 20.2533 86.0736 20.4766 85.9824 20.7637C85.8457 21.2012 85.7773 21.6797 85.7773 22.1992V26H84.5469ZM93.96 25.1045C93.5042 25.4919 93.0645 25.7653 92.6406 25.9248C92.2214 26.0843 91.7702 26.1641 91.2871 26.1641C90.4896 26.1641 89.8766 25.9704 89.4482 25.583C89.0199 25.1911 88.8057 24.6921 88.8057 24.0859C88.8057 23.7305 88.8854 23.4069 89.0449 23.1152C89.209 22.819 89.4209 22.582 89.6807 22.4043C89.945 22.2266 90.2412 22.0921 90.5693 22.001C90.8109 21.9372 91.1755 21.8757 91.6631 21.8164C92.6566 21.6979 93.388 21.5566 93.8574 21.3926C93.862 21.224 93.8643 21.1169 93.8643 21.0713C93.8643 20.57 93.748 20.2168 93.5156 20.0117C93.2012 19.7337 92.734 19.5947 92.1143 19.5947C91.5355 19.5947 91.1071 19.6973 90.8291 19.9023C90.5557 20.1029 90.3529 20.4606 90.2207 20.9756L89.0176 20.8115C89.127 20.2965 89.307 19.8818 89.5576 19.5674C89.8083 19.2484 90.1706 19.0046 90.6445 18.8359C91.1185 18.6628 91.6676 18.5762 92.292 18.5762C92.9118 18.5762 93.4154 18.6491 93.8027 18.7949C94.1901 18.9408 94.4749 19.1253 94.6572 19.3486C94.8395 19.5674 94.9671 19.8454 95.04 20.1826C95.0811 20.3923 95.1016 20.7705 95.1016 21.3174V22.958C95.1016 24.1019 95.1266 24.8265 95.1768 25.1318C95.2314 25.4326 95.3363 25.722 95.4912 26H94.2061C94.0785 25.7448 93.9964 25.4463 93.96 25.1045ZM93.8574 22.3564C93.4108 22.5387 92.7409 22.6937 91.8477 22.8213C91.3418 22.8942 90.984 22.9762 90.7744 23.0674C90.5648 23.1585 90.403 23.293 90.2891 23.4707C90.1751 23.6439 90.1182 23.8376 90.1182 24.0518C90.1182 24.3799 90.2412 24.6533 90.4873 24.8721C90.738 25.0908 91.1025 25.2002 91.5811 25.2002C92.055 25.2002 92.4766 25.0977 92.8457 24.8926C93.2148 24.6829 93.486 24.3981 93.6592 24.0381C93.7913 23.7601 93.8574 23.3499 93.8574 22.8076V22.3564ZM97.002 26V18.7402H98.1094V19.8408C98.3919 19.3258 98.6517 18.9863 98.8887 18.8223C99.1302 18.6582 99.3945 18.5762 99.6816 18.5762C100.096 18.5762 100.518 18.7083 100.946 18.9727L100.522 20.1143C100.222 19.9365 99.9209 19.8477 99.6201 19.8477C99.3512 19.8477 99.1097 19.9297 98.8955 20.0938C98.6813 20.2533 98.5286 20.4766 98.4375 20.7637C98.3008 21.2012 98.2324 21.6797 98.2324 22.1992V26H97.002Z" fill="#32BCAD"/>
</svg>
