<svg width="106" height="103" viewBox="0 0 106 103" fill="none" xmlns="http://www.w3.org/2000/svg">
<path d="M28.5205 96.4863L29.8467 96.8213C29.5687 97.9105 29.0674 98.7422 28.3428 99.3164C27.6227 99.8861 26.7409 100.171 25.6973 100.171C24.6172 100.171 23.7376 99.9521 23.0586 99.5146C22.3841 99.0726 21.8691 98.4346 21.5137 97.6006C21.1628 96.7666 20.9873 95.8711 20.9873 94.9141C20.9873 93.8704 21.1855 92.9613 21.582 92.1865C21.9831 91.4072 22.5505 90.8171 23.2842 90.416C24.0225 90.0104 24.8337 89.8076 25.7178 89.8076C26.7204 89.8076 27.5635 90.0628 28.2471 90.5732C28.9307 91.0837 29.4069 91.8014 29.6758 92.7266L28.3701 93.0342C28.1377 92.305 27.8005 91.7741 27.3584 91.4414C26.9163 91.1087 26.3604 90.9424 25.6904 90.9424C24.9202 90.9424 24.2754 91.127 23.7559 91.4961C23.2409 91.8652 22.8786 92.362 22.6689 92.9863C22.4593 93.6061 22.3545 94.2464 22.3545 94.9072C22.3545 95.7594 22.4775 96.5046 22.7236 97.1426C22.9743 97.776 23.3617 98.25 23.8857 98.5645C24.4098 98.8789 24.9772 99.0361 25.5879 99.0361C26.3307 99.0361 26.9596 98.8219 27.4746 98.3936C27.9896 97.9652 28.3382 97.3294 28.5205 96.4863ZM30.8721 96.3701C30.8721 95.0257 31.2458 94.0299 31.9932 93.3828C32.6175 92.8451 33.3786 92.5762 34.2764 92.5762C35.2744 92.5762 36.0902 92.9043 36.7236 93.5605C37.3571 94.2122 37.6738 95.1146 37.6738 96.2676C37.6738 97.2018 37.5326 97.9378 37.25 98.4756C36.972 99.0088 36.5641 99.4235 36.0264 99.7197C35.4932 100.016 34.9098 100.164 34.2764 100.164C33.2601 100.164 32.4375 99.8382 31.8086 99.1865C31.1842 98.5348 30.8721 97.596 30.8721 96.3701ZM32.1367 96.3701C32.1367 97.2998 32.3395 97.9971 32.7451 98.4619C33.1507 98.9222 33.6611 99.1523 34.2764 99.1523C34.887 99.1523 35.3952 98.9199 35.8008 98.4551C36.2064 97.9902 36.4092 97.2816 36.4092 96.3291C36.4092 95.4313 36.2041 94.7523 35.7939 94.292C35.3883 93.8271 34.8825 93.5947 34.2764 93.5947C33.6611 93.5947 33.1507 93.8249 32.7451 94.2852C32.3395 94.7454 32.1367 95.4404 32.1367 96.3701ZM39.123 100V92.7402H40.2305V93.7725C40.7637 92.9749 41.5339 92.5762 42.541 92.5762C42.9785 92.5762 43.3796 92.6559 43.7441 92.8154C44.1133 92.9704 44.389 93.1755 44.5713 93.4307C44.7536 93.6859 44.8812 93.9889 44.9541 94.3398C44.9997 94.5677 45.0225 94.9665 45.0225 95.5361V100H43.792V95.584C43.792 95.0827 43.7441 94.709 43.6484 94.4629C43.5527 94.2122 43.3818 94.014 43.1357 93.8682C42.8942 93.7178 42.6094 93.6426 42.2812 93.6426C41.7572 93.6426 41.3037 93.8089 40.9209 94.1416C40.5426 94.4743 40.3535 95.1055 40.3535 96.0352V100H39.123ZM47.21 100V93.6973H46.123V92.7402H47.21V91.9678C47.21 91.4801 47.2533 91.1178 47.3398 90.8809C47.4583 90.5618 47.6657 90.3044 47.9619 90.1084C48.2627 89.9079 48.682 89.8076 49.2197 89.8076C49.5661 89.8076 49.9489 89.8486 50.3682 89.9307L50.1836 91.0039C49.9284 90.9583 49.6868 90.9355 49.459 90.9355C49.0853 90.9355 48.821 91.0153 48.666 91.1748C48.5111 91.3343 48.4336 91.6328 48.4336 92.0703V92.7402H49.8486V93.6973H48.4336V100H47.21ZM50.8193 91.3936V89.9785H52.0498V91.3936H50.8193ZM50.8193 100V92.7402H52.0498V100H50.8193ZM53.7041 100.602L54.9004 100.779C54.9505 101.148 55.0895 101.417 55.3174 101.586C55.6227 101.814 56.0397 101.928 56.5684 101.928C57.138 101.928 57.5778 101.814 57.8877 101.586C58.1976 101.358 58.4072 101.039 58.5166 100.629C58.5804 100.378 58.61 99.8519 58.6055 99.0498C58.0677 99.6833 57.3978 100 56.5957 100C55.5977 100 54.8252 99.64 54.2783 98.9199C53.7314 98.1999 53.458 97.3363 53.458 96.3291C53.458 95.6364 53.5833 94.9984 53.834 94.415C54.0846 93.8271 54.4469 93.3737 54.9209 93.0547C55.3994 92.7357 55.96 92.5762 56.6025 92.5762C57.4593 92.5762 58.1657 92.9225 58.7217 93.6152V92.7402H59.8564V99.0156C59.8564 100.146 59.7402 100.946 59.5078 101.415C59.2799 101.889 58.9154 102.263 58.4141 102.536C57.9173 102.81 57.3044 102.946 56.5752 102.946C55.7093 102.946 55.0098 102.75 54.4766 102.358C53.9434 101.971 53.6859 101.385 53.7041 100.602ZM54.7227 96.2402C54.7227 97.1927 54.9118 97.8877 55.29 98.3252C55.6683 98.7627 56.1423 98.9814 56.7119 98.9814C57.277 98.9814 57.751 98.765 58.1338 98.332C58.5166 97.8945 58.708 97.2109 58.708 96.2812C58.708 95.3926 58.5098 94.7227 58.1133 94.2715C57.7214 93.8203 57.2474 93.5947 56.6914 93.5947C56.1445 93.5947 55.6797 93.818 55.2969 94.2646C54.9141 94.7067 54.7227 95.3652 54.7227 96.2402ZM66.4805 100V98.9336C65.9154 99.7539 65.1475 100.164 64.1768 100.164C63.7484 100.164 63.3473 100.082 62.9736 99.918C62.6045 99.7539 62.3288 99.5488 62.1465 99.3027C61.9688 99.0521 61.8434 98.7467 61.7705 98.3867C61.7204 98.1452 61.6953 97.7624 61.6953 97.2383V92.7402H62.9258V96.7666C62.9258 97.4092 62.9508 97.8421 63.001 98.0654C63.0785 98.389 63.2425 98.6442 63.4932 98.8311C63.7438 99.0133 64.0537 99.1045 64.4229 99.1045C64.792 99.1045 65.1383 99.0111 65.4619 98.8242C65.7855 98.6328 66.0133 98.3753 66.1455 98.0518C66.2822 97.7236 66.3506 97.2497 66.3506 96.6299V92.7402H67.5811V100H66.4805ZM69.502 100V92.7402H70.6094V93.8408C70.8919 93.3258 71.1517 92.9863 71.3887 92.8223C71.6302 92.6582 71.8945 92.5762 72.1816 92.5762C72.5964 92.5762 73.0179 92.7083 73.4463 92.9727L73.0225 94.1143C72.7217 93.9365 72.4209 93.8477 72.1201 93.8477C71.8512 93.8477 71.6097 93.9297 71.3955 94.0938C71.1813 94.2533 71.0286 94.4766 70.9375 94.7637C70.8008 95.2012 70.7324 95.6797 70.7324 96.1992V100H69.502ZM78.915 99.1045C78.4593 99.4919 78.0195 99.7653 77.5957 99.9248C77.1764 100.084 76.7253 100.164 76.2422 100.164C75.4447 100.164 74.8317 99.9704 74.4033 99.583C73.9749 99.1911 73.7607 98.6921 73.7607 98.0859C73.7607 97.7305 73.8405 97.4069 74 97.1152C74.1641 96.819 74.376 96.582 74.6357 96.4043C74.9001 96.2266 75.1963 96.0921 75.5244 96.001C75.766 95.9372 76.1305 95.8757 76.6182 95.8164C77.6117 95.6979 78.3431 95.5566 78.8125 95.3926C78.8171 95.224 78.8193 95.1169 78.8193 95.0713C78.8193 94.57 78.7031 94.2168 78.4707 94.0117C78.1562 93.7337 77.6891 93.5947 77.0693 93.5947C76.4906 93.5947 76.0622 93.6973 75.7842 93.9023C75.5107 94.1029 75.3079 94.4606 75.1758 94.9756L73.9727 94.8115C74.082 94.2965 74.262 93.8818 74.5127 93.5674C74.7633 93.2484 75.1257 93.0046 75.5996 92.8359C76.0736 92.6628 76.6227 92.5762 77.2471 92.5762C77.8669 92.5762 78.3704 92.6491 78.7578 92.7949C79.1452 92.9408 79.43 93.1253 79.6123 93.3486C79.7946 93.5674 79.9222 93.8454 79.9951 94.1826C80.0361 94.3923 80.0566 94.7705 80.0566 95.3174V96.958C80.0566 98.1019 80.0817 98.8265 80.1318 99.1318C80.1865 99.4326 80.2913 99.722 80.4463 100H79.1611C79.0335 99.7448 78.9515 99.4463 78.915 99.1045ZM78.8125 96.3564C78.3659 96.5387 77.696 96.6937 76.8027 96.8213C76.2969 96.8942 75.9391 96.9762 75.7295 97.0674C75.5199 97.1585 75.3581 97.293 75.2441 97.4707C75.1302 97.6439 75.0732 97.8376 75.0732 98.0518C75.0732 98.3799 75.1963 98.6533 75.4424 98.8721C75.693 99.0908 76.0576 99.2002 76.5361 99.2002C77.0101 99.2002 77.4316 99.0977 77.8008 98.8926C78.1699 98.6829 78.4411 98.3981 78.6143 98.0381C78.7464 97.7601 78.8125 97.3499 78.8125 96.8076V96.3564ZM81.957 100V92.7402H83.0645V93.8408C83.347 93.3258 83.6068 92.9863 83.8438 92.8223C84.0853 92.6582 84.3496 92.5762 84.6367 92.5762C85.0514 92.5762 85.473 92.7083 85.9014 92.9727L85.4775 94.1143C85.1768 93.9365 84.876 93.8477 84.5752 93.8477C84.3063 93.8477 84.0648 93.9297 83.8506 94.0938C83.6364 94.2533 83.4837 94.4766 83.3926 94.7637C83.2559 95.2012 83.1875 95.6797 83.1875 96.1992V100H81.957Z" fill="#003C44"/>
<circle cx="52.5" cy="41.5" r="41.5" fill="#32BCAD"/>
<path d="M49.6667 42C47.8333 42 46.2639 41.3472 44.9583 40.0417C43.6528 38.7361 43 37.1667 43 35.3333C43 33.5 43.6528 31.9306 44.9583 30.625C46.2639 29.3194 47.8333 28.6667 49.6667 28.6667C51.5 28.6667 53.0694 29.3194 54.375 30.625C55.6806 31.9306 56.3333 33.5 56.3333 35.3333C56.3333 37.1667 55.6806 38.7361 54.375 40.0417C53.0694 41.3472 51.5 42 49.6667 42ZM36.3333 55.3333V50.6667C36.3333 49.75 36.5694 48.8889 37.0417 48.0833C37.5139 47.2778 38.1667 46.6667 39 46.25C40.4167 45.5278 42.0139 44.9167 43.7917 44.4167C45.5694 43.9167 47.5278 43.6667 49.6667 43.6667H50.25C50.4167 43.6667 50.5833 43.6945 50.75 43.75C50.5278 44.25 50.3403 44.7708 50.1875 45.3125C50.0347 45.8542 49.9167 46.4167 49.8333 47H49.6667C47.6944 47 45.9236 47.25 44.3542 47.75C42.7847 48.25 41.5 48.75 40.5 49.25C40.25 49.3889 40.0486 49.5833 39.8958 49.8333C39.7431 50.0833 39.6667 50.3611 39.6667 50.6667V52H50.1667C50.3333 52.5833 50.5556 53.1597 50.8333 53.7292C51.1111 54.2986 51.4167 54.8333 51.75 55.3333H36.3333ZM59.6667 57L59.1667 54.5C58.8333 54.3611 58.5208 54.2153 58.2292 54.0625C57.9375 53.9097 57.6389 53.7222 57.3333 53.5L54.9167 54.25L53.25 51.4167L55.1667 49.75C55.1111 49.3611 55.0833 49 55.0833 48.6667C55.0833 48.3333 55.1111 47.9722 55.1667 47.5833L53.25 45.9167L54.9167 43.0833L57.3333 43.8333C57.6389 43.6111 57.9375 43.4236 58.2292 43.2708C58.5208 43.1181 58.8333 42.9722 59.1667 42.8333L59.6667 40.3333H63L63.5 42.8333C63.8333 42.9722 64.1458 43.125 64.4375 43.2917C64.7292 43.4583 65.0278 43.6667 65.3333 43.9167L67.75 43.0833L69.4167 46L67.5 47.6667C67.5556 48 67.5833 48.3472 67.5833 48.7083C67.5833 49.0695 67.5556 49.4167 67.5 49.75L69.4167 51.4167L67.75 54.25L65.3333 53.5C65.0278 53.7222 64.7292 53.9097 64.4375 54.0625C64.1458 54.2153 63.8333 54.3611 63.5 54.5L63 57H59.6667ZM61.3333 52C62.25 52 63.0347 51.6736 63.6875 51.0208C64.3403 50.3681 64.6667 49.5833 64.6667 48.6667C64.6667 47.75 64.3403 46.9653 63.6875 46.3125C63.0347 45.6597 62.25 45.3333 61.3333 45.3333C60.4167 45.3333 59.6319 45.6597 58.9792 46.3125C58.3264 46.9653 58 47.75 58 48.6667C58 49.5833 58.3264 50.3681 58.9792 51.0208C59.6319 51.6736 60.4167 52 61.3333 52ZM49.6667 38.6667C50.5833 38.6667 51.3681 38.3403 52.0208 37.6875C52.6736 37.0347 53 36.25 53 35.3333C53 34.4167 52.6736 33.6319 52.0208 32.9792C51.3681 32.3264 50.5833 32 49.6667 32C48.75 32 47.9653 32.3264 47.3125 32.9792C46.6597 33.6319 46.3333 34.4167 46.3333 35.3333C46.3333 36.25 46.6597 37.0347 47.3125 37.6875C47.9653 38.3403 48.75 38.6667 49.6667 38.6667Z" fill="white"/>
</svg>
