<svg width="112" height="42" viewBox="0 0 112 42" fill="none" xmlns="http://www.w3.org/2000/svg">
<rect x="1" y="1" width="110" height="40" rx="8" fill="white" stroke="#32BCAD"/>
<path d="M19 21C17.9 21 16.9583 20.6083 16.175 19.825C15.3917 19.0417 15 18.1 15 17C15 15.9 15.3917 14.9583 16.175 14.175C16.9583 13.3917 17.9 13 19 13C20.1 13 21.0417 13.3917 21.825 14.175C22.6083 14.9583 23 15.9 23 17C23 18.1 22.6083 19.0417 21.825 19.825C21.0417 20.6083 20.1 21 19 21ZM11 29V26.2C11 25.65 11.1417 25.1333 11.425 24.65C11.7083 24.1667 12.1 23.8 12.6 23.55C13.45 23.1167 14.4083 22.75 15.475 22.45C16.5417 22.15 17.7167 22 19 22H19.35C19.45 22 19.55 22.0167 19.65 22.05C19.5167 22.35 19.4042 22.6625 19.3125 22.9875C19.2208 23.3125 19.15 23.65 19.1 24H19C17.8167 24 16.7542 24.15 15.8125 24.45C14.8708 24.75 14.1 25.05 13.5 25.35C13.35 25.4333 13.2292 25.55 13.1375 25.7C13.0458 25.85 13 26.0167 13 26.2V27H19.3C19.4 27.35 19.5333 27.6958 19.7 28.0375C19.8667 28.3792 20.05 28.7 20.25 29H11ZM25 30L24.7 28.5C24.5 28.4167 24.3125 28.3292 24.1375 28.2375C23.9625 28.1458 23.7833 28.0333 23.6 27.9L22.15 28.35L21.15 26.65L22.3 25.65C22.2667 25.4167 22.25 25.2 22.25 25C22.25 24.8 22.2667 24.5833 22.3 24.35L21.15 23.35L22.15 21.65L23.6 22.1C23.7833 21.9667 23.9625 21.8542 24.1375 21.7625C24.3125 21.6708 24.5 21.5833 24.7 21.5L25 20H27L27.3 21.5C27.5 21.5833 27.6875 21.675 27.8625 21.775C28.0375 21.875 28.2167 22 28.4 22.15L29.85 21.65L30.85 23.4L29.7 24.4C29.7333 24.6 29.75 24.8083 29.75 25.025C29.75 25.2417 29.7333 25.45 29.7 25.65L30.85 26.65L29.85 28.35L28.4 27.9C28.2167 28.0333 28.0375 28.1458 27.8625 28.2375C27.6875 28.3292 27.5 28.4167 27.3 28.5L27 30H25ZM26 27C26.55 27 27.0208 26.8042 27.4125 26.4125C27.8042 26.0208 28 25.55 28 25C28 24.45 27.8042 23.9792 27.4125 23.5875C27.0208 23.1958 26.55 23 26 23C25.45 23 24.9792 23.1958 24.5875 23.5875C24.1958 23.9792 24 24.45 24 25C24 25.55 24.1958 26.0208 24.5875 26.4125C24.9792 26.8042 25.45 27 26 27ZM19 19C19.55 19 20.0208 18.8042 20.4125 18.4125C20.8042 18.0208 21 17.55 21 17C21 16.45 20.8042 15.9792 20.4125 15.5875C20.0208 15.1958 19.55 15 19 15C18.45 15 17.9792 15.1958 17.5875 15.5875C17.1958 15.9792 17 16.45 17 17C17 17.55 17.1958 18.0208 17.5875 18.4125C17.9792 18.8042 18.45 19 19 19Z" fill="#32BCAD"/>
<path d="M45.5205 22.4863L46.8467 22.8213C46.5687 23.9105 46.0674 24.7422 45.3428 25.3164C44.6227 25.8861 43.7409 26.1709 42.6973 26.1709C41.6172 26.1709 40.7376 25.9521 40.0586 25.5146C39.3841 25.0726 38.8691 24.4346 38.5137 23.6006C38.1628 22.7666 37.9873 21.8711 37.9873 20.9141C37.9873 19.8704 38.1855 18.9613 38.582 18.1865C38.9831 17.4072 39.5505 16.8171 40.2842 16.416C41.0225 16.0104 41.8337 15.8076 42.7178 15.8076C43.7204 15.8076 44.5635 16.0628 45.2471 16.5732C45.9307 17.0837 46.4069 17.8014 46.6758 18.7266L45.3701 19.0342C45.1377 18.305 44.8005 17.7741 44.3584 17.4414C43.9163 17.1087 43.3604 16.9424 42.6904 16.9424C41.9202 16.9424 41.2754 17.127 40.7559 17.4961C40.2409 17.8652 39.8786 18.362 39.6689 18.9863C39.4593 19.6061 39.3545 20.2464 39.3545 20.9072C39.3545 21.7594 39.4775 22.5046 39.7236 23.1426C39.9743 23.776 40.3617 24.25 40.8857 24.5645C41.4098 24.8789 41.9772 25.0361 42.5879 25.0361C43.3307 25.0361 43.9596 24.8219 44.4746 24.3936C44.9896 23.9652 45.3382 23.3294 45.5205 22.4863ZM47.8721 22.3701C47.8721 21.0257 48.2458 20.0299 48.9932 19.3828C49.6175 18.8451 50.3786 18.5762 51.2764 18.5762C52.2744 18.5762 53.0902 18.9043 53.7236 19.5605C54.3571 20.2122 54.6738 21.1146 54.6738 22.2676C54.6738 23.2018 54.5326 23.9378 54.25 24.4756C53.972 25.0088 53.5641 25.4235 53.0264 25.7197C52.4932 26.016 51.9098 26.1641 51.2764 26.1641C50.2601 26.1641 49.4375 25.8382 48.8086 25.1865C48.1842 24.5348 47.8721 23.596 47.8721 22.3701ZM49.1367 22.3701C49.1367 23.2998 49.3395 23.9971 49.7451 24.4619C50.1507 24.9222 50.6611 25.1523 51.2764 25.1523C51.887 25.1523 52.3952 24.9199 52.8008 24.4551C53.2064 23.9902 53.4092 23.2816 53.4092 22.3291C53.4092 21.4313 53.2041 20.7523 52.7939 20.292C52.3883 19.8271 51.8825 19.5947 51.2764 19.5947C50.6611 19.5947 50.1507 19.8249 49.7451 20.2852C49.3395 20.7454 49.1367 21.4404 49.1367 22.3701ZM56.123 26V18.7402H57.2305V19.7725C57.7637 18.9749 58.5339 18.5762 59.541 18.5762C59.9785 18.5762 60.3796 18.6559 60.7441 18.8154C61.1133 18.9704 61.389 19.1755 61.5713 19.4307C61.7536 19.6859 61.8812 19.9889 61.9541 20.3398C61.9997 20.5677 62.0225 20.9665 62.0225 21.5361V26H60.792V21.584C60.792 21.0827 60.7441 20.709 60.6484 20.4629C60.5527 20.2122 60.3818 20.014 60.1357 19.8682C59.8942 19.7178 59.6094 19.6426 59.2812 19.6426C58.7572 19.6426 58.3037 19.8089 57.9209 20.1416C57.5426 20.4743 57.3535 21.1055 57.3535 22.0352V26H56.123ZM64.21 26V19.6973H63.123V18.7402H64.21V17.9678C64.21 17.4801 64.2533 17.1178 64.3398 16.8809C64.4583 16.5618 64.6657 16.3044 64.9619 16.1084C65.2627 15.9079 65.682 15.8076 66.2197 15.8076C66.5661 15.8076 66.9489 15.8486 67.3682 15.9307L67.1836 17.0039C66.9284 16.9583 66.6868 16.9355 66.459 16.9355C66.0853 16.9355 65.821 17.0153 65.666 17.1748C65.5111 17.3343 65.4336 17.6328 65.4336 18.0703V18.7402H66.8486V19.6973H65.4336V26H64.21ZM67.8193 17.3936V15.9785H69.0498V17.3936H67.8193ZM67.8193 26V18.7402H69.0498V26H67.8193ZM70.7041 26.6016L71.9004 26.7793C71.9505 27.1484 72.0895 27.4173 72.3174 27.5859C72.6227 27.8138 73.0397 27.9277 73.5684 27.9277C74.138 27.9277 74.5778 27.8138 74.8877 27.5859C75.1976 27.3581 75.4072 27.0391 75.5166 26.6289C75.5804 26.3783 75.61 25.8519 75.6055 25.0498C75.0677 25.6833 74.3978 26 73.5957 26C72.5977 26 71.8252 25.64 71.2783 24.9199C70.7314 24.1999 70.458 23.3363 70.458 22.3291C70.458 21.6364 70.5833 20.9984 70.834 20.415C71.0846 19.8271 71.4469 19.3737 71.9209 19.0547C72.3994 18.7357 72.96 18.5762 73.6025 18.5762C74.4593 18.5762 75.1657 18.9225 75.7217 19.6152V18.7402H76.8564V25.0156C76.8564 26.1458 76.7402 26.9456 76.5078 27.415C76.2799 27.889 75.9154 28.2627 75.4141 28.5361C74.9173 28.8096 74.3044 28.9463 73.5752 28.9463C72.7093 28.9463 72.0098 28.7503 71.4766 28.3584C70.9434 27.971 70.6859 27.3854 70.7041 26.6016ZM71.7227 22.2402C71.7227 23.1927 71.9118 23.8877 72.29 24.3252C72.6683 24.7627 73.1423 24.9814 73.7119 24.9814C74.277 24.9814 74.751 24.765 75.1338 24.332C75.5166 23.8945 75.708 23.2109 75.708 22.2812C75.708 21.3926 75.5098 20.7227 75.1133 20.2715C74.7214 19.8203 74.2474 19.5947 73.6914 19.5947C73.1445 19.5947 72.6797 19.818 72.2969 20.2646C71.9141 20.7067 71.7227 21.3652 71.7227 22.2402ZM83.4805 26V24.9336C82.9154 25.7539 82.1475 26.1641 81.1768 26.1641C80.7484 26.1641 80.3473 26.082 79.9736 25.918C79.6045 25.7539 79.3288 25.5488 79.1465 25.3027C78.9688 25.0521 78.8434 24.7467 78.7705 24.3867C78.7204 24.1452 78.6953 23.7624 78.6953 23.2383V18.7402H79.9258V22.7666C79.9258 23.4092 79.9508 23.8421 80.001 24.0654C80.0785 24.389 80.2425 24.6442 80.4932 24.8311C80.7438 25.0133 81.0537 25.1045 81.4229 25.1045C81.792 25.1045 82.1383 25.0111 82.4619 24.8242C82.7855 24.6328 83.0133 24.3753 83.1455 24.0518C83.2822 23.7236 83.3506 23.2497 83.3506 22.6299V18.7402H84.5811V26H83.4805ZM86.502 26V18.7402H87.6094V19.8408C87.8919 19.3258 88.1517 18.9863 88.3887 18.8223C88.6302 18.6582 88.8945 18.5762 89.1816 18.5762C89.5964 18.5762 90.0179 18.7083 90.4463 18.9727L90.0225 20.1143C89.7217 19.9365 89.4209 19.8477 89.1201 19.8477C88.8512 19.8477 88.6097 19.9297 88.3955 20.0938C88.1813 20.2533 88.0286 20.4766 87.9375 20.7637C87.8008 21.2012 87.7324 21.6797 87.7324 22.1992V26H86.502ZM95.915 25.1045C95.4593 25.4919 95.0195 25.7653 94.5957 25.9248C94.1764 26.0843 93.7253 26.1641 93.2422 26.1641C92.4447 26.1641 91.8317 25.9704 91.4033 25.583C90.9749 25.1911 90.7607 24.6921 90.7607 24.0859C90.7607 23.7305 90.8405 23.4069 91 23.1152C91.1641 22.819 91.376 22.582 91.6357 22.4043C91.9001 22.2266 92.1963 22.0921 92.5244 22.001C92.766 21.9372 93.1305 21.8757 93.6182 21.8164C94.6117 21.6979 95.3431 21.5566 95.8125 21.3926C95.8171 21.224 95.8193 21.1169 95.8193 21.0713C95.8193 20.57 95.7031 20.2168 95.4707 20.0117C95.1562 19.7337 94.6891 19.5947 94.0693 19.5947C93.4906 19.5947 93.0622 19.6973 92.7842 19.9023C92.5107 20.1029 92.3079 20.4606 92.1758 20.9756L90.9727 20.8115C91.082 20.2965 91.262 19.8818 91.5127 19.5674C91.7633 19.2484 92.1257 19.0046 92.5996 18.8359C93.0736 18.6628 93.6227 18.5762 94.2471 18.5762C94.8669 18.5762 95.3704 18.6491 95.7578 18.7949C96.1452 18.9408 96.43 19.1253 96.6123 19.3486C96.7946 19.5674 96.9222 19.8454 96.9951 20.1826C97.0361 20.3923 97.0566 20.7705 97.0566 21.3174V22.958C97.0566 24.1019 97.0817 24.8265 97.1318 25.1318C97.1865 25.4326 97.2913 25.722 97.4463 26H96.1611C96.0335 25.7448 95.9515 25.4463 95.915 25.1045ZM95.8125 22.3564C95.3659 22.5387 94.696 22.6937 93.8027 22.8213C93.2969 22.8942 92.9391 22.9762 92.7295 23.0674C92.5199 23.1585 92.3581 23.293 92.2441 23.4707C92.1302 23.6439 92.0732 23.8376 92.0732 24.0518C92.0732 24.3799 92.1963 24.6533 92.4424 24.8721C92.693 25.0908 93.0576 25.2002 93.5361 25.2002C94.0101 25.2002 94.4316 25.0977 94.8008 24.8926C95.1699 24.6829 95.4411 24.3981 95.6143 24.0381C95.7464 23.7601 95.8125 23.3499 95.8125 22.8076V22.3564ZM98.957 26V18.7402H100.064V19.8408C100.347 19.3258 100.607 18.9863 100.844 18.8223C101.085 18.6582 101.35 18.5762 101.637 18.5762C102.051 18.5762 102.473 18.7083 102.901 18.9727L102.478 20.1143C102.177 19.9365 101.876 19.8477 101.575 19.8477C101.306 19.8477 101.065 19.9297 100.851 20.0938C100.636 20.2533 100.484 20.4766 100.393 20.7637C100.256 21.2012 100.188 21.6797 100.188 22.1992V26H98.957Z" fill="#32BCAD"/>
</svg>
