<svg width="106" height="104" viewBox="0 0 106 104" fill="none" xmlns="http://www.w3.org/2000/svg">
<path d="M28.5205 97.4863L29.8467 97.8213C29.5687 98.9105 29.0674 99.7422 28.3428 100.316C27.6227 100.886 26.7409 101.171 25.6973 101.171C24.6172 101.171 23.7376 100.952 23.0586 100.515C22.3841 100.073 21.8691 99.4346 21.5137 98.6006C21.1628 97.7666 20.9873 96.8711 20.9873 95.9141C20.9873 94.8704 21.1855 93.9613 21.582 93.1865C21.9831 92.4072 22.5505 91.8171 23.2842 91.416C24.0225 91.0104 24.8337 90.8076 25.7178 90.8076C26.7204 90.8076 27.5635 91.0628 28.2471 91.5732C28.9307 92.0837 29.4069 92.8014 29.6758 93.7266L28.3701 94.0342C28.1377 93.305 27.8005 92.7741 27.3584 92.4414C26.9163 92.1087 26.3604 91.9424 25.6904 91.9424C24.9202 91.9424 24.2754 92.127 23.7559 92.4961C23.2409 92.8652 22.8786 93.362 22.6689 93.9863C22.4593 94.6061 22.3545 95.2464 22.3545 95.9072C22.3545 96.7594 22.4775 97.5046 22.7236 98.1426C22.9743 98.776 23.3617 99.25 23.8857 99.5645C24.4098 99.8789 24.9772 100.036 25.5879 100.036C26.3307 100.036 26.9596 99.8219 27.4746 99.3936C27.9896 98.9652 28.3382 98.3294 28.5205 97.4863ZM30.8721 97.3701C30.8721 96.0257 31.2458 95.0299 31.9932 94.3828C32.6175 93.8451 33.3786 93.5762 34.2764 93.5762C35.2744 93.5762 36.0902 93.9043 36.7236 94.5605C37.3571 95.2122 37.6738 96.1146 37.6738 97.2676C37.6738 98.2018 37.5326 98.9378 37.25 99.4756C36.972 100.009 36.5641 100.424 36.0264 100.72C35.4932 101.016 34.9098 101.164 34.2764 101.164C33.2601 101.164 32.4375 100.838 31.8086 100.187C31.1842 99.5348 30.8721 98.596 30.8721 97.3701ZM32.1367 97.3701C32.1367 98.2998 32.3395 98.9971 32.7451 99.4619C33.1507 99.9222 33.6611 100.152 34.2764 100.152C34.887 100.152 35.3952 99.9199 35.8008 99.4551C36.2064 98.9902 36.4092 98.2816 36.4092 97.3291C36.4092 96.4313 36.2041 95.7523 35.7939 95.292C35.3883 94.8271 34.8825 94.5947 34.2764 94.5947C33.6611 94.5947 33.1507 94.8249 32.7451 95.2852C32.3395 95.7454 32.1367 96.4404 32.1367 97.3701ZM39.123 101V93.7402H40.2305V94.7725C40.7637 93.9749 41.5339 93.5762 42.541 93.5762C42.9785 93.5762 43.3796 93.6559 43.7441 93.8154C44.1133 93.9704 44.389 94.1755 44.5713 94.4307C44.7536 94.6859 44.8812 94.9889 44.9541 95.3398C44.9997 95.5677 45.0225 95.9665 45.0225 96.5361V101H43.792V96.584C43.792 96.0827 43.7441 95.709 43.6484 95.4629C43.5527 95.2122 43.3818 95.014 43.1357 94.8682C42.8942 94.7178 42.6094 94.6426 42.2812 94.6426C41.7572 94.6426 41.3037 94.8089 40.9209 95.1416C40.5426 95.4743 40.3535 96.1055 40.3535 97.0352V101H39.123ZM47.21 101V94.6973H46.123V93.7402H47.21V92.9678C47.21 92.4801 47.2533 92.1178 47.3398 91.8809C47.4583 91.5618 47.6657 91.3044 47.9619 91.1084C48.2627 90.9079 48.682 90.8076 49.2197 90.8076C49.5661 90.8076 49.9489 90.8486 50.3682 90.9307L50.1836 92.0039C49.9284 91.9583 49.6868 91.9355 49.459 91.9355C49.0853 91.9355 48.821 92.0153 48.666 92.1748C48.5111 92.3343 48.4336 92.6328 48.4336 93.0703V93.7402H49.8486V94.6973H48.4336V101H47.21ZM50.8193 92.3936V90.9785H52.0498V92.3936H50.8193ZM50.8193 101V93.7402H52.0498V101H50.8193ZM53.7041 101.602L54.9004 101.779C54.9505 102.148 55.0895 102.417 55.3174 102.586C55.6227 102.814 56.0397 102.928 56.5684 102.928C57.138 102.928 57.5778 102.814 57.8877 102.586C58.1976 102.358 58.4072 102.039 58.5166 101.629C58.5804 101.378 58.61 100.852 58.6055 100.05C58.0677 100.683 57.3978 101 56.5957 101C55.5977 101 54.8252 100.64 54.2783 99.9199C53.7314 99.1999 53.458 98.3363 53.458 97.3291C53.458 96.6364 53.5833 95.9984 53.834 95.415C54.0846 94.8271 54.4469 94.3737 54.9209 94.0547C55.3994 93.7357 55.96 93.5762 56.6025 93.5762C57.4593 93.5762 58.1657 93.9225 58.7217 94.6152V93.7402H59.8564V100.016C59.8564 101.146 59.7402 101.946 59.5078 102.415C59.2799 102.889 58.9154 103.263 58.4141 103.536C57.9173 103.81 57.3044 103.946 56.5752 103.946C55.7093 103.946 55.0098 103.75 54.4766 103.358C53.9434 102.971 53.6859 102.385 53.7041 101.602ZM54.7227 97.2402C54.7227 98.1927 54.9118 98.8877 55.29 99.3252C55.6683 99.7627 56.1423 99.9814 56.7119 99.9814C57.277 99.9814 57.751 99.765 58.1338 99.332C58.5166 98.8945 58.708 98.2109 58.708 97.2812C58.708 96.3926 58.5098 95.7227 58.1133 95.2715C57.7214 94.8203 57.2474 94.5947 56.6914 94.5947C56.1445 94.5947 55.6797 94.818 55.2969 95.2646C54.9141 95.7067 54.7227 96.3652 54.7227 97.2402ZM66.4805 101V99.9336C65.9154 100.754 65.1475 101.164 64.1768 101.164C63.7484 101.164 63.3473 101.082 62.9736 100.918C62.6045 100.754 62.3288 100.549 62.1465 100.303C61.9688 100.052 61.8434 99.7467 61.7705 99.3867C61.7204 99.1452 61.6953 98.7624 61.6953 98.2383V93.7402H62.9258V97.7666C62.9258 98.4092 62.9508 98.8421 63.001 99.0654C63.0785 99.389 63.2425 99.6442 63.4932 99.8311C63.7438 100.013 64.0537 100.104 64.4229 100.104C64.792 100.104 65.1383 100.011 65.4619 99.8242C65.7855 99.6328 66.0133 99.3753 66.1455 99.0518C66.2822 98.7236 66.3506 98.2497 66.3506 97.6299V93.7402H67.5811V101H66.4805ZM69.502 101V93.7402H70.6094V94.8408C70.8919 94.3258 71.1517 93.9863 71.3887 93.8223C71.6302 93.6582 71.8945 93.5762 72.1816 93.5762C72.5964 93.5762 73.0179 93.7083 73.4463 93.9727L73.0225 95.1143C72.7217 94.9365 72.4209 94.8477 72.1201 94.8477C71.8512 94.8477 71.6097 94.9297 71.3955 95.0938C71.1813 95.2533 71.0286 95.4766 70.9375 95.7637C70.8008 96.2012 70.7324 96.6797 70.7324 97.1992V101H69.502ZM78.915 100.104C78.4593 100.492 78.0195 100.765 77.5957 100.925C77.1764 101.084 76.7253 101.164 76.2422 101.164C75.4447 101.164 74.8317 100.97 74.4033 100.583C73.9749 100.191 73.7607 99.6921 73.7607 99.0859C73.7607 98.7305 73.8405 98.4069 74 98.1152C74.1641 97.819 74.376 97.582 74.6357 97.4043C74.9001 97.2266 75.1963 97.0921 75.5244 97.001C75.766 96.9372 76.1305 96.8757 76.6182 96.8164C77.6117 96.6979 78.3431 96.5566 78.8125 96.3926C78.8171 96.224 78.8193 96.1169 78.8193 96.0713C78.8193 95.57 78.7031 95.2168 78.4707 95.0117C78.1562 94.7337 77.6891 94.5947 77.0693 94.5947C76.4906 94.5947 76.0622 94.6973 75.7842 94.9023C75.5107 95.1029 75.3079 95.4606 75.1758 95.9756L73.9727 95.8115C74.082 95.2965 74.262 94.8818 74.5127 94.5674C74.7633 94.2484 75.1257 94.0046 75.5996 93.8359C76.0736 93.6628 76.6227 93.5762 77.2471 93.5762C77.8669 93.5762 78.3704 93.6491 78.7578 93.7949C79.1452 93.9408 79.43 94.1253 79.6123 94.3486C79.7946 94.5674 79.9222 94.8454 79.9951 95.1826C80.0361 95.3923 80.0566 95.7705 80.0566 96.3174V97.958C80.0566 99.1019 80.0817 99.8265 80.1318 100.132C80.1865 100.433 80.2913 100.722 80.4463 101H79.1611C79.0335 100.745 78.9515 100.446 78.915 100.104ZM78.8125 97.3564C78.3659 97.5387 77.696 97.6937 76.8027 97.8213C76.2969 97.8942 75.9391 97.9762 75.7295 98.0674C75.5199 98.1585 75.3581 98.293 75.2441 98.4707C75.1302 98.6439 75.0732 98.8376 75.0732 99.0518C75.0732 99.3799 75.1963 99.6533 75.4424 99.8721C75.693 100.091 76.0576 100.2 76.5361 100.2C77.0101 100.2 77.4316 100.098 77.8008 99.8926C78.1699 99.6829 78.4411 99.3981 78.6143 99.0381C78.7464 98.7601 78.8125 98.3499 78.8125 97.8076V97.3564ZM81.957 101V93.7402H83.0645V94.8408C83.347 94.3258 83.6068 93.9863 83.8438 93.8223C84.0853 93.6582 84.3496 93.5762 84.6367 93.5762C85.0514 93.5762 85.473 93.7083 85.9014 93.9727L85.4775 95.1143C85.1768 94.9365 84.876 94.8477 84.5752 94.8477C84.3063 94.8477 84.0648 94.9297 83.8506 95.0938C83.6364 95.2533 83.4837 95.4766 83.3926 95.7637C83.2559 96.2012 83.1875 96.6797 83.1875 97.1992V101H81.957Z" fill="#003C44"/>
<circle cx="52.5" cy="42.5" r="41.5" fill="white" stroke="#32BCAD" stroke-width="2"/>
<path d="M49.6667 43C47.8333 43 46.2639 42.3472 44.9583 41.0417C43.6528 39.7361 43 38.1667 43 36.3333C43 34.5 43.6528 32.9305 44.9583 31.625C46.2639 30.3194 47.8333 29.6667 49.6667 29.6667C51.5 29.6667 53.0694 30.3194 54.375 31.625C55.6806 32.9305 56.3333 34.5 56.3333 36.3333C56.3333 38.1667 55.6806 39.7361 54.375 41.0417C53.0694 42.3472 51.5 43 49.6667 43ZM36.3333 56.3333V51.6667C36.3333 50.75 36.5694 49.8889 37.0417 49.0833C37.5139 48.2778 38.1667 47.6667 39 47.25C40.4167 46.5278 42.0139 45.9167 43.7917 45.4167C45.5694 44.9167 47.5278 44.6667 49.6667 44.6667H50.25C50.4167 44.6667 50.5833 44.6944 50.75 44.75C50.5278 45.25 50.3403 45.7708 50.1875 46.3125C50.0347 46.8542 49.9167 47.4167 49.8333 48H49.6667C47.6944 48 45.9236 48.25 44.3542 48.75C42.7847 49.25 41.5 49.75 40.5 50.25C40.25 50.3889 40.0486 50.5833 39.8958 50.8333C39.7431 51.0833 39.6667 51.3611 39.6667 51.6667V53H50.1667C50.3333 53.5833 50.5556 54.1597 50.8333 54.7292C51.1111 55.2986 51.4167 55.8333 51.75 56.3333H36.3333ZM59.6667 58L59.1667 55.5C58.8333 55.3611 58.5208 55.2153 58.2292 55.0625C57.9375 54.9097 57.6389 54.7222 57.3333 54.5L54.9167 55.25L53.25 52.4167L55.1667 50.75C55.1111 50.3611 55.0833 50 55.0833 49.6667C55.0833 49.3333 55.1111 48.9722 55.1667 48.5833L53.25 46.9167L54.9167 44.0833L57.3333 44.8333C57.6389 44.6111 57.9375 44.4236 58.2292 44.2708C58.5208 44.118 58.8333 43.9722 59.1667 43.8333L59.6667 41.3333H63L63.5 43.8333C63.8333 43.9722 64.1458 44.125 64.4375 44.2917C64.7292 44.4583 65.0278 44.6667 65.3333 44.9167L67.75 44.0833L69.4167 47L67.5 48.6667C67.5556 49 67.5833 49.3472 67.5833 49.7083C67.5833 50.0694 67.5556 50.4167 67.5 50.75L69.4167 52.4167L67.75 55.25L65.3333 54.5C65.0278 54.7222 64.7292 54.9097 64.4375 55.0625C64.1458 55.2153 63.8333 55.3611 63.5 55.5L63 58H59.6667ZM61.3333 53C62.25 53 63.0347 52.6736 63.6875 52.0208C64.3403 51.368 64.6667 50.5833 64.6667 49.6667C64.6667 48.75 64.3403 47.9653 63.6875 47.3125C63.0347 46.6597 62.25 46.3333 61.3333 46.3333C60.4167 46.3333 59.6319 46.6597 58.9792 47.3125C58.3264 47.9653 58 48.75 58 49.6667C58 50.5833 58.3264 51.368 58.9792 52.0208C59.6319 52.6736 60.4167 53 61.3333 53ZM49.6667 39.6667C50.5833 39.6667 51.3681 39.3403 52.0208 38.6875C52.6736 38.0347 53 37.25 53 36.3333C53 35.4167 52.6736 34.6319 52.0208 33.9792C51.3681 33.3264 50.5833 33 49.6667 33C48.75 33 47.9653 33.3264 47.3125 33.9792C46.6597 34.6319 46.3333 35.4167 46.3333 36.3333C46.3333 37.25 46.6597 38.0347 47.3125 38.6875C47.9653 39.3403 48.75 39.6667 49.6667 39.6667Z" fill="#32BCAD"/>
</svg>
