<svg width="110" height="40" viewBox="0 0 110 40" fill="none" xmlns="http://www.w3.org/2000/svg">
<rect width="110" height="40" rx="8" fill="#32BCAD"/>
<path d="M18 20C16.9 20 15.9583 19.6083 15.175 18.825C14.3917 18.0417 14 17.1 14 16C14 14.9 14.3917 13.9583 15.175 13.175C15.9583 12.3917 16.9 12 18 12C19.1 12 20.0417 12.3917 20.825 13.175C21.6083 13.9583 22 14.9 22 16C22 17.1 21.6083 18.0417 20.825 18.825C20.0417 19.6083 19.1 20 18 20ZM10 28V25.2C10 24.65 10.1417 24.1333 10.425 23.65C10.7083 23.1667 11.1 22.8 11.6 22.55C12.45 22.1167 13.4083 21.75 14.475 21.45C15.5417 21.15 16.7167 21 18 21H18.35C18.45 21 18.55 21.0167 18.65 21.05C18.5167 21.35 18.4042 21.6625 18.3125 21.9875C18.2208 22.3125 18.15 22.65 18.1 23H18C16.8167 23 15.7542 23.15 14.8125 23.45C13.8708 23.75 13.1 24.05 12.5 24.35C12.35 24.4333 12.2292 24.55 12.1375 24.7C12.0458 24.85 12 25.0167 12 25.2V26H18.3C18.4 26.35 18.5333 26.6958 18.7 27.0375C18.8667 27.3792 19.05 27.7 19.25 28H10ZM24 29L23.7 27.5C23.5 27.4167 23.3125 27.3292 23.1375 27.2375C22.9625 27.1458 22.7833 27.0333 22.6 26.9L21.15 27.35L20.15 25.65L21.3 24.65C21.2667 24.4167 21.25 24.2 21.25 24C21.25 23.8 21.2667 23.5833 21.3 23.35L20.15 22.35L21.15 20.65L22.6 21.1C22.7833 20.9667 22.9625 20.8542 23.1375 20.7625C23.3125 20.6708 23.5 20.5833 23.7 20.5L24 19H26L26.3 20.5C26.5 20.5833 26.6875 20.675 26.8625 20.775C27.0375 20.875 27.2167 21 27.4 21.15L28.85 20.65L29.85 22.4L28.7 23.4C28.7333 23.6 28.75 23.8083 28.75 24.025C28.75 24.2417 28.7333 24.45 28.7 24.65L29.85 25.65L28.85 27.35L27.4 26.9C27.2167 27.0333 27.0375 27.1458 26.8625 27.2375C26.6875 27.3292 26.5 27.4167 26.3 27.5L26 29H24ZM25 26C25.55 26 26.0208 25.8042 26.4125 25.4125C26.8042 25.0208 27 24.55 27 24C27 23.45 26.8042 22.9792 26.4125 22.5875C26.0208 22.1958 25.55 22 25 22C24.45 22 23.9792 22.1958 23.5875 22.5875C23.1958 22.9792 23 23.45 23 24C23 24.55 23.1958 25.0208 23.5875 25.4125C23.9792 25.8042 24.45 26 25 26ZM18 18C18.55 18 19.0208 17.8042 19.4125 17.4125C19.8042 17.0208 20 16.55 20 16C20 15.45 19.8042 14.9792 19.4125 14.5875C19.0208 14.1958 18.55 14 18 14C17.45 14 16.9792 14.1958 16.5875 14.5875C16.1958 14.9792 16 15.45 16 16C16 16.55 16.1958 17.0208 16.5875 17.4125C16.9792 17.8042 17.45 18 18 18Z" fill="white"/>
<path d="M44.5205 21.4863L45.8467 21.8213C45.5687 22.9105 45.0674 23.7422 44.3428 24.3164C43.6227 24.8861 42.7409 25.1709 41.6973 25.1709C40.6172 25.1709 39.7376 24.9521 39.0586 24.5146C38.3841 24.0726 37.8691 23.4346 37.5137 22.6006C37.1628 21.7666 36.9873 20.8711 36.9873 19.9141C36.9873 18.8704 37.1855 17.9613 37.582 17.1865C37.9831 16.4072 38.5505 15.8171 39.2842 15.416C40.0225 15.0104 40.8337 14.8076 41.7178 14.8076C42.7204 14.8076 43.5635 15.0628 44.2471 15.5732C44.9307 16.0837 45.4069 16.8014 45.6758 17.7266L44.3701 18.0342C44.1377 17.305 43.8005 16.7741 43.3584 16.4414C42.9163 16.1087 42.3604 15.9424 41.6904 15.9424C40.9202 15.9424 40.2754 16.127 39.7559 16.4961C39.2409 16.8652 38.8786 17.362 38.6689 17.9863C38.4593 18.6061 38.3545 19.2464 38.3545 19.9072C38.3545 20.7594 38.4775 21.5046 38.7236 22.1426C38.9743 22.776 39.3617 23.25 39.8857 23.5645C40.4098 23.8789 40.9772 24.0361 41.5879 24.0361C42.3307 24.0361 42.9596 23.8219 43.4746 23.3936C43.9896 22.9652 44.3382 22.3294 44.5205 21.4863ZM46.8721 21.3701C46.8721 20.0257 47.2458 19.0299 47.9932 18.3828C48.6175 17.8451 49.3786 17.5762 50.2764 17.5762C51.2744 17.5762 52.0902 17.9043 52.7236 18.5605C53.3571 19.2122 53.6738 20.1146 53.6738 21.2676C53.6738 22.2018 53.5326 22.9378 53.25 23.4756C52.972 24.0088 52.5641 24.4235 52.0264 24.7197C51.4932 25.016 50.9098 25.1641 50.2764 25.1641C49.2601 25.1641 48.4375 24.8382 47.8086 24.1865C47.1842 23.5348 46.8721 22.596 46.8721 21.3701ZM48.1367 21.3701C48.1367 22.2998 48.3395 22.9971 48.7451 23.4619C49.1507 23.9222 49.6611 24.1523 50.2764 24.1523C50.887 24.1523 51.3952 23.9199 51.8008 23.4551C52.2064 22.9902 52.4092 22.2816 52.4092 21.3291C52.4092 20.4313 52.2041 19.7523 51.7939 19.292C51.3883 18.8271 50.8825 18.5947 50.2764 18.5947C49.6611 18.5947 49.1507 18.8249 48.7451 19.2852C48.3395 19.7454 48.1367 20.4404 48.1367 21.3701ZM55.123 25V17.7402H56.2305V18.7725C56.7637 17.9749 57.5339 17.5762 58.541 17.5762C58.9785 17.5762 59.3796 17.6559 59.7441 17.8154C60.1133 17.9704 60.389 18.1755 60.5713 18.4307C60.7536 18.6859 60.8812 18.9889 60.9541 19.3398C60.9997 19.5677 61.0225 19.9665 61.0225 20.5361V25H59.792V20.584C59.792 20.0827 59.7441 19.709 59.6484 19.4629C59.5527 19.2122 59.3818 19.014 59.1357 18.8682C58.8942 18.7178 58.6094 18.6426 58.2812 18.6426C57.7572 18.6426 57.3037 18.8089 56.9209 19.1416C56.5426 19.4743 56.3535 20.1055 56.3535 21.0352V25H55.123ZM63.21 25V18.6973H62.123V17.7402H63.21V16.9678C63.21 16.4801 63.2533 16.1178 63.3398 15.8809C63.4583 15.5618 63.6657 15.3044 63.9619 15.1084C64.2627 14.9079 64.682 14.8076 65.2197 14.8076C65.5661 14.8076 65.9489 14.8486 66.3682 14.9307L66.1836 16.0039C65.9284 15.9583 65.6868 15.9355 65.459 15.9355C65.0853 15.9355 64.821 16.0153 64.666 16.1748C64.5111 16.3343 64.4336 16.6328 64.4336 17.0703V17.7402H65.8486V18.6973H64.4336V25H63.21ZM66.8193 16.3936V14.9785H68.0498V16.3936H66.8193ZM66.8193 25V17.7402H68.0498V25H66.8193ZM69.7041 25.6016L70.9004 25.7793C70.9505 26.1484 71.0895 26.4173 71.3174 26.5859C71.6227 26.8138 72.0397 26.9277 72.5684 26.9277C73.138 26.9277 73.5778 26.8138 73.8877 26.5859C74.1976 26.3581 74.4072 26.0391 74.5166 25.6289C74.5804 25.3783 74.61 24.8519 74.6055 24.0498C74.0677 24.6833 73.3978 25 72.5957 25C71.5977 25 70.8252 24.64 70.2783 23.9199C69.7314 23.1999 69.458 22.3363 69.458 21.3291C69.458 20.6364 69.5833 19.9984 69.834 19.415C70.0846 18.8271 70.4469 18.3737 70.9209 18.0547C71.3994 17.7357 71.96 17.5762 72.6025 17.5762C73.4593 17.5762 74.1657 17.9225 74.7217 18.6152V17.7402H75.8564V24.0156C75.8564 25.1458 75.7402 25.9456 75.5078 26.415C75.2799 26.889 74.9154 27.2627 74.4141 27.5361C73.9173 27.8096 73.3044 27.9463 72.5752 27.9463C71.7093 27.9463 71.0098 27.7503 70.4766 27.3584C69.9434 26.971 69.6859 26.3854 69.7041 25.6016ZM70.7227 21.2402C70.7227 22.1927 70.9118 22.8877 71.29 23.3252C71.6683 23.7627 72.1423 23.9814 72.7119 23.9814C73.277 23.9814 73.751 23.765 74.1338 23.332C74.5166 22.8945 74.708 22.2109 74.708 21.2812C74.708 20.3926 74.5098 19.7227 74.1133 19.2715C73.7214 18.8203 73.2474 18.5947 72.6914 18.5947C72.1445 18.5947 71.6797 18.818 71.2969 19.2646C70.9141 19.7067 70.7227 20.3652 70.7227 21.2402ZM82.4805 25V23.9336C81.9154 24.7539 81.1475 25.1641 80.1768 25.1641C79.7484 25.1641 79.3473 25.082 78.9736 24.918C78.6045 24.7539 78.3288 24.5488 78.1465 24.3027C77.9688 24.0521 77.8434 23.7467 77.7705 23.3867C77.7204 23.1452 77.6953 22.7624 77.6953 22.2383V17.7402H78.9258V21.7666C78.9258 22.4092 78.9508 22.8421 79.001 23.0654C79.0785 23.389 79.2425 23.6442 79.4932 23.8311C79.7438 24.0133 80.0537 24.1045 80.4229 24.1045C80.792 24.1045 81.1383 24.0111 81.4619 23.8242C81.7855 23.6328 82.0133 23.3753 82.1455 23.0518C82.2822 22.7236 82.3506 22.2497 82.3506 21.6299V17.7402H83.5811V25H82.4805ZM85.502 25V17.7402H86.6094V18.8408C86.8919 18.3258 87.1517 17.9863 87.3887 17.8223C87.6302 17.6582 87.8945 17.5762 88.1816 17.5762C88.5964 17.5762 89.0179 17.7083 89.4463 17.9727L89.0225 19.1143C88.7217 18.9365 88.4209 18.8477 88.1201 18.8477C87.8512 18.8477 87.6097 18.9297 87.3955 19.0938C87.1813 19.2533 87.0286 19.4766 86.9375 19.7637C86.8008 20.2012 86.7324 20.6797 86.7324 21.1992V25H85.502ZM94.915 24.1045C94.4593 24.4919 94.0195 24.7653 93.5957 24.9248C93.1764 25.0843 92.7253 25.1641 92.2422 25.1641C91.4447 25.1641 90.8317 24.9704 90.4033 24.583C89.9749 24.1911 89.7607 23.6921 89.7607 23.0859C89.7607 22.7305 89.8405 22.4069 90 22.1152C90.1641 21.819 90.376 21.582 90.6357 21.4043C90.9001 21.2266 91.1963 21.0921 91.5244 21.001C91.766 20.9372 92.1305 20.8757 92.6182 20.8164C93.6117 20.6979 94.3431 20.5566 94.8125 20.3926C94.8171 20.224 94.8193 20.1169 94.8193 20.0713C94.8193 19.57 94.7031 19.2168 94.4707 19.0117C94.1562 18.7337 93.6891 18.5947 93.0693 18.5947C92.4906 18.5947 92.0622 18.6973 91.7842 18.9023C91.5107 19.1029 91.3079 19.4606 91.1758 19.9756L89.9727 19.8115C90.082 19.2965 90.262 18.8818 90.5127 18.5674C90.7633 18.2484 91.1257 18.0046 91.5996 17.8359C92.0736 17.6628 92.6227 17.5762 93.2471 17.5762C93.8669 17.5762 94.3704 17.6491 94.7578 17.7949C95.1452 17.9408 95.43 18.1253 95.6123 18.3486C95.7946 18.5674 95.9222 18.8454 95.9951 19.1826C96.0361 19.3923 96.0566 19.7705 96.0566 20.3174V21.958C96.0566 23.1019 96.0817 23.8265 96.1318 24.1318C96.1865 24.4326 96.2913 24.722 96.4463 25H95.1611C95.0335 24.7448 94.9515 24.4463 94.915 24.1045ZM94.8125 21.3564C94.3659 21.5387 93.696 21.6937 92.8027 21.8213C92.2969 21.8942 91.9391 21.9762 91.7295 22.0674C91.5199 22.1585 91.3581 22.293 91.2441 22.4707C91.1302 22.6439 91.0732 22.8376 91.0732 23.0518C91.0732 23.3799 91.1963 23.6533 91.4424 23.8721C91.693 24.0908 92.0576 24.2002 92.5361 24.2002C93.0101 24.2002 93.4316 24.0977 93.8008 23.8926C94.1699 23.6829 94.4411 23.3981 94.6143 23.0381C94.7464 22.7601 94.8125 22.3499 94.8125 21.8076V21.3564ZM97.957 25V17.7402H99.0645V18.8408C99.347 18.3258 99.6068 17.9863 99.8438 17.8223C100.085 17.6582 100.35 17.5762 100.637 17.5762C101.051 17.5762 101.473 17.7083 101.901 17.9727L101.478 19.1143C101.177 18.9365 100.876 18.8477 100.575 18.8477C100.306 18.8477 100.065 18.9297 99.8506 19.0938C99.6364 19.2533 99.4837 19.4766 99.3926 19.7637C99.2559 20.2012 99.1875 20.6797 99.1875 21.1992V25H97.957Z" fill="white"/>
</svg>
