<svg width="110" height="40" viewBox="0 0 110 40" fill="none" xmlns="http://www.w3.org/2000/svg">
<rect width="110" height="40" rx="8" fill="#32BCAD"/>
<path d="M22 20C20.9 20 19.9583 19.6083 19.175 18.825C18.3917 18.0417 18 17.1 18 16C18 14.9 18.3917 13.9583 19.175 13.175C19.9583 12.3917 20.9 12 22 12C23.1 12 24.0417 12.3917 24.825 13.175C25.6083 13.9583 26 14.9 26 16C26 17.1 25.6083 18.0417 24.825 18.825C24.0417 19.6083 23.1 20 22 20ZM22 18C22.55 18 23.0208 17.8042 23.4125 17.4125C23.8042 17.0208 24 16.55 24 16C24 15.45 23.8042 14.9792 23.4125 14.5875C23.0208 14.1958 22.55 14 22 14C21.45 14 20.9792 14.1958 20.5875 14.5875C20.1958 14.9792 20 15.45 20 16C20 16.55 20.1958 17.0208 20.5875 17.4125C20.9792 17.8042 21.45 18 22 18ZM33.1 31.5L29.9 28.3C29.55 28.5 29.175 28.6667 28.775 28.8C28.375 28.9333 27.95 29 27.5 29C26.25 29 25.1875 28.5625 24.3125 27.6875C23.4375 26.8125 23 25.75 23 24.5C23 23.25 23.4375 22.1875 24.3125 21.3125C25.1875 20.4375 26.25 20 27.5 20C28.75 20 29.8125 20.4375 30.6875 21.3125C31.5625 22.1875 32 23.25 32 24.5C32 24.95 31.9333 25.375 31.8 25.775C31.6667 26.175 31.5 26.55 31.3 26.9L34.5 30.1L33.1 31.5ZM27.5 27C28.2 27 28.7917 26.7583 29.275 26.275C29.7583 25.7917 30 25.2 30 24.5C30 23.8 29.7583 23.2083 29.275 22.725C28.7917 22.2417 28.2 22 27.5 22C26.8 22 26.2083 22.2417 25.725 22.725C25.2417 23.2083 25 23.8 25 24.5C25 25.2 25.2417 25.7917 25.725 26.275C26.2083 26.7583 26.8 27 27.5 27ZM14 28V25.225C14 24.6583 14.1417 24.1333 14.425 23.65C14.7083 23.1667 15.1 22.8 15.6 22.55C16.45 22.1167 17.4083 21.75 18.475 21.45C19.5417 21.15 20.725 21 22.025 21C21.825 21.3 21.6542 21.6208 21.5125 21.9625C21.3708 22.3042 21.2583 22.6583 21.175 23.025C20.175 23.1083 19.2833 23.2792 18.5 23.5375C17.7167 23.7958 17.0583 24.0667 16.525 24.35C16.3583 24.4333 16.2292 24.5542 16.1375 24.7125C16.0458 24.8708 16 25.0417 16 25.225V26H21.175C21.2583 26.3667 21.3708 26.7167 21.5125 27.05C21.6542 27.3833 21.825 27.7 22.025 28H14Z" fill="white"/>
<path d="M47.248 21.4863L48.5742 21.8213C48.2962 22.9105 47.7949 23.7422 47.0703 24.3164C46.3503 24.8861 45.4684 25.1709 44.4248 25.1709C43.3447 25.1709 42.4652 24.9521 41.7861 24.5146C41.1117 24.0726 40.5967 23.4346 40.2412 22.6006C39.8903 21.7666 39.7148 20.8711 39.7148 19.9141C39.7148 18.8704 39.9131 17.9613 40.3096 17.1865C40.7106 16.4072 41.278 15.8171 42.0117 15.416C42.75 15.0104 43.5612 14.8076 44.4453 14.8076C45.4479 14.8076 46.291 15.0628 46.9746 15.5732C47.6582 16.0837 48.1344 16.8014 48.4033 17.7266L47.0977 18.0342C46.8652 17.305 46.528 16.7741 46.0859 16.4414C45.6439 16.1087 45.0879 15.9424 44.418 15.9424C43.6478 15.9424 43.0029 16.127 42.4834 16.4961C41.9684 16.8652 41.6061 17.362 41.3965 17.9863C41.1868 18.6061 41.082 19.2464 41.082 19.9072C41.082 20.7594 41.2051 21.5046 41.4512 22.1426C41.7018 22.776 42.0892 23.25 42.6133 23.5645C43.1374 23.8789 43.7048 24.0361 44.3154 24.0361C45.0583 24.0361 45.6872 23.8219 46.2021 23.3936C46.7171 22.9652 47.0658 22.3294 47.248 21.4863ZM49.5996 21.3701C49.5996 20.0257 49.9733 19.0299 50.7207 18.3828C51.3451 17.8451 52.1061 17.5762 53.0039 17.5762C54.002 17.5762 54.8177 17.9043 55.4512 18.5605C56.0846 19.2122 56.4014 20.1146 56.4014 21.2676C56.4014 22.2018 56.2601 22.9378 55.9775 23.4756C55.6995 24.0088 55.2917 24.4235 54.7539 24.7197C54.2207 25.016 53.6374 25.1641 53.0039 25.1641C51.9876 25.1641 51.165 24.8382 50.5361 24.1865C49.9118 23.5348 49.5996 22.596 49.5996 21.3701ZM50.8643 21.3701C50.8643 22.2998 51.0671 22.9971 51.4727 23.4619C51.8783 23.9222 52.3887 24.1523 53.0039 24.1523C53.6146 24.1523 54.1227 23.9199 54.5283 23.4551C54.9339 22.9902 55.1367 22.2816 55.1367 21.3291C55.1367 20.4313 54.9316 19.7523 54.5215 19.292C54.1159 18.8271 53.61 18.5947 53.0039 18.5947C52.3887 18.5947 51.8783 18.8249 51.4727 19.2852C51.0671 19.7454 50.8643 20.4404 50.8643 21.3701ZM57.8506 25V17.7402H58.958V18.7725C59.4912 17.9749 60.2614 17.5762 61.2686 17.5762C61.7061 17.5762 62.1071 17.6559 62.4717 17.8154C62.8408 17.9704 63.1165 18.1755 63.2988 18.4307C63.4811 18.6859 63.6087 18.9889 63.6816 19.3398C63.7272 19.5677 63.75 19.9665 63.75 20.5361V25H62.5195V20.584C62.5195 20.0827 62.4717 19.709 62.376 19.4629C62.2803 19.2122 62.1094 19.014 61.8633 18.8682C61.6217 18.7178 61.3369 18.6426 61.0088 18.6426C60.4847 18.6426 60.0312 18.8089 59.6484 19.1416C59.2702 19.4743 59.0811 20.1055 59.0811 21.0352V25H57.8506ZM65.1514 22.833L66.3682 22.6416C66.4365 23.1292 66.6257 23.5029 66.9355 23.7627C67.25 24.0225 67.6875 24.1523 68.248 24.1523C68.8132 24.1523 69.2324 24.0384 69.5059 23.8105C69.7793 23.5781 69.916 23.307 69.916 22.9971C69.916 22.7191 69.7952 22.5003 69.5537 22.3408C69.3851 22.2314 68.9658 22.0924 68.2959 21.9238C67.3936 21.696 66.7669 21.5 66.416 21.3359C66.0697 21.1673 65.8053 20.9372 65.623 20.6455C65.4453 20.3493 65.3564 20.0234 65.3564 19.668C65.3564 19.3444 65.4294 19.0459 65.5752 18.7725C65.7256 18.4945 65.9284 18.2643 66.1836 18.082C66.375 17.9408 66.6348 17.8223 66.9629 17.7266C67.2956 17.6263 67.651 17.5762 68.0293 17.5762C68.599 17.5762 69.098 17.6582 69.5264 17.8223C69.9593 17.9863 70.2783 18.2096 70.4834 18.4922C70.6885 18.7702 70.8298 19.1439 70.9072 19.6133L69.7041 19.7773C69.6494 19.4036 69.4899 19.112 69.2256 18.9023C68.9658 18.6927 68.5967 18.5879 68.1182 18.5879C67.5531 18.5879 67.1497 18.6813 66.9082 18.8682C66.6667 19.055 66.5459 19.2738 66.5459 19.5244C66.5459 19.6839 66.596 19.8275 66.6963 19.9551C66.7965 20.0872 66.9538 20.1966 67.168 20.2832C67.291 20.3288 67.6533 20.4336 68.2549 20.5977C69.1253 20.8301 69.7314 21.0215 70.0732 21.1719C70.4196 21.3177 70.6908 21.5319 70.8867 21.8145C71.0827 22.097 71.1807 22.4479 71.1807 22.8672C71.1807 23.2773 71.0599 23.6647 70.8184 24.0293C70.5814 24.3893 70.2373 24.6696 69.7861 24.8701C69.335 25.0661 68.8245 25.1641 68.2549 25.1641C67.3115 25.1641 66.5915 24.9681 66.0947 24.5762C65.6025 24.1842 65.2881 23.6032 65.1514 22.833ZM77.4014 25V23.9336C76.8363 24.7539 76.0684 25.1641 75.0977 25.1641C74.6693 25.1641 74.2682 25.082 73.8945 24.918C73.5254 24.7539 73.2497 24.5488 73.0674 24.3027C72.8896 24.0521 72.7643 23.7467 72.6914 23.3867C72.6413 23.1452 72.6162 22.7624 72.6162 22.2383V17.7402H73.8467V21.7666C73.8467 22.4092 73.8717 22.8421 73.9219 23.0654C73.9993 23.389 74.1634 23.6442 74.4141 23.8311C74.6647 24.0133 74.9746 24.1045 75.3438 24.1045C75.7129 24.1045 76.0592 24.0111 76.3828 23.8242C76.7064 23.6328 76.9342 23.3753 77.0664 23.0518C77.2031 22.7236 77.2715 22.2497 77.2715 21.6299V17.7402H78.502V25H77.4014ZM80.4092 25V14.9785H81.6396V25H80.4092ZM86.2402 23.8994L86.418 24.9863C86.0716 25.0592 85.7617 25.0957 85.4883 25.0957C85.0417 25.0957 84.6953 25.0251 84.4492 24.8838C84.2031 24.7425 84.0299 24.5579 83.9297 24.3301C83.8294 24.0977 83.7793 23.6123 83.7793 22.874V18.6973H82.877V17.7402H83.7793V15.9424L85.0029 15.2041V17.7402H86.2402V18.6973H85.0029V22.9424C85.0029 23.2933 85.0234 23.5189 85.0645 23.6191C85.11 23.7194 85.1807 23.7992 85.2764 23.8584C85.3766 23.9176 85.5179 23.9473 85.7002 23.9473C85.8369 23.9473 86.0169 23.9313 86.2402 23.8994ZM92.1875 24.1045C91.7318 24.4919 91.292 24.7653 90.8682 24.9248C90.4489 25.0843 89.9977 25.1641 89.5146 25.1641C88.7171 25.1641 88.1042 24.9704 87.6758 24.583C87.2474 24.1911 87.0332 23.6921 87.0332 23.0859C87.0332 22.7305 87.113 22.4069 87.2725 22.1152C87.4365 21.819 87.6484 21.582 87.9082 21.4043C88.1725 21.2266 88.4688 21.0921 88.7969 21.001C89.0384 20.9372 89.403 20.8757 89.8906 20.8164C90.8841 20.6979 91.6156 20.5566 92.085 20.3926C92.0895 20.224 92.0918 20.1169 92.0918 20.0713C92.0918 19.57 91.9756 19.2168 91.7432 19.0117C91.4287 18.7337 90.9616 18.5947 90.3418 18.5947C89.763 18.5947 89.3346 18.6973 89.0566 18.9023C88.7832 19.1029 88.5804 19.4606 88.4482 19.9756L87.2451 19.8115C87.3545 19.2965 87.5345 18.8818 87.7852 18.5674C88.0358 18.2484 88.3981 18.0046 88.8721 17.8359C89.346 17.6628 89.8952 17.5762 90.5195 17.5762C91.1393 17.5762 91.6429 17.6491 92.0303 17.7949C92.4176 17.9408 92.7025 18.1253 92.8848 18.3486C93.0671 18.5674 93.1947 18.8454 93.2676 19.1826C93.3086 19.3923 93.3291 19.7705 93.3291 20.3174V21.958C93.3291 23.1019 93.3542 23.8265 93.4043 24.1318C93.459 24.4326 93.5638 24.722 93.7188 25H92.4336C92.306 24.7448 92.224 24.4463 92.1875 24.1045ZM92.085 21.3564C91.6383 21.5387 90.9684 21.6937 90.0752 21.8213C89.5693 21.8942 89.2116 21.9762 89.002 22.0674C88.7923 22.1585 88.6305 22.293 88.5166 22.4707C88.4027 22.6439 88.3457 22.8376 88.3457 23.0518C88.3457 23.3799 88.4688 23.6533 88.7148 23.8721C88.9655 24.0908 89.3301 24.2002 89.8086 24.2002C90.2826 24.2002 90.7041 24.0977 91.0732 23.8926C91.4424 23.6829 91.7135 23.3981 91.8867 23.0381C92.0189 22.7601 92.085 22.3499 92.085 21.8076V21.3564ZM95.2295 25V17.7402H96.3369V18.8408C96.6195 18.3258 96.8792 17.9863 97.1162 17.8223C97.3577 17.6582 97.6221 17.5762 97.9092 17.5762C98.3239 17.5762 98.7454 17.7083 99.1738 17.9727L98.75 19.1143C98.4492 18.9365 98.1484 18.8477 97.8477 18.8477C97.5788 18.8477 97.3372 18.9297 97.123 19.0938C96.9089 19.2533 96.7562 19.4766 96.665 19.7637C96.5283 20.2012 96.46 20.6797 96.46 21.1992V25H95.2295Z" fill="white"/>
</svg>
