<svg width="106" height="103" viewBox="0 0 106 103" fill="none" xmlns="http://www.w3.org/2000/svg">
<path d="M31.248 96.4863L32.5742 96.8213C32.2962 97.9105 31.7949 98.7422 31.0703 99.3164C30.3503 99.8861 29.4684 100.171 28.4248 100.171C27.3447 100.171 26.4652 99.9521 25.7861 99.5146C25.1117 99.0726 24.5967 98.4346 24.2412 97.6006C23.8903 96.7666 23.7148 95.8711 23.7148 94.9141C23.7148 93.8704 23.9131 92.9613 24.3096 92.1865C24.7106 91.4072 25.278 90.8171 26.0117 90.416C26.75 90.0104 27.5612 89.8076 28.4453 89.8076C29.4479 89.8076 30.291 90.0628 30.9746 90.5732C31.6582 91.0837 32.1344 91.8014 32.4033 92.7266L31.0977 93.0342C30.8652 92.305 30.528 91.7741 30.0859 91.4414C29.6439 91.1087 29.0879 90.9424 28.418 90.9424C27.6478 90.9424 27.0029 91.127 26.4834 91.4961C25.9684 91.8652 25.6061 92.362 25.3965 92.9863C25.1868 93.6061 25.082 94.2464 25.082 94.9072C25.082 95.7594 25.2051 96.5046 25.4512 97.1426C25.7018 97.776 26.0892 98.25 26.6133 98.5645C27.1374 98.8789 27.7048 99.0361 28.3154 99.0361C29.0583 99.0361 29.6872 98.8219 30.2021 98.3936C30.7171 97.9652 31.0658 97.3294 31.248 96.4863ZM33.5996 96.3701C33.5996 95.0257 33.9733 94.0299 34.7207 93.3828C35.3451 92.8451 36.1061 92.5762 37.0039 92.5762C38.002 92.5762 38.8177 92.9043 39.4512 93.5605C40.0846 94.2122 40.4014 95.1146 40.4014 96.2676C40.4014 97.2018 40.2601 97.9378 39.9775 98.4756C39.6995 99.0088 39.2917 99.4235 38.7539 99.7197C38.2207 100.016 37.6374 100.164 37.0039 100.164C35.9876 100.164 35.165 99.8382 34.5361 99.1865C33.9118 98.5348 33.5996 97.596 33.5996 96.3701ZM34.8643 96.3701C34.8643 97.2998 35.0671 97.9971 35.4727 98.4619C35.8783 98.9222 36.3887 99.1523 37.0039 99.1523C37.6146 99.1523 38.1227 98.9199 38.5283 98.4551C38.9339 97.9902 39.1367 97.2816 39.1367 96.3291C39.1367 95.4313 38.9316 94.7523 38.5215 94.292C38.1159 93.8271 37.61 93.5947 37.0039 93.5947C36.3887 93.5947 35.8783 93.8249 35.4727 94.2852C35.0671 94.7454 34.8643 95.4404 34.8643 96.3701ZM41.8506 100V92.7402H42.958V93.7725C43.4912 92.9749 44.2614 92.5762 45.2686 92.5762C45.7061 92.5762 46.1071 92.6559 46.4717 92.8154C46.8408 92.9704 47.1165 93.1755 47.2988 93.4307C47.4811 93.6859 47.6087 93.9889 47.6816 94.3398C47.7272 94.5677 47.75 94.9665 47.75 95.5361V100H46.5195V95.584C46.5195 95.0827 46.4717 94.709 46.376 94.4629C46.2803 94.2122 46.1094 94.014 45.8633 93.8682C45.6217 93.7178 45.3369 93.6426 45.0088 93.6426C44.4847 93.6426 44.0312 93.8089 43.6484 94.1416C43.2702 94.4743 43.0811 95.1055 43.0811 96.0352V100H41.8506ZM49.1514 97.833L50.3682 97.6416C50.4365 98.1292 50.6257 98.5029 50.9355 98.7627C51.25 99.0225 51.6875 99.1523 52.248 99.1523C52.8132 99.1523 53.2324 99.0384 53.5059 98.8105C53.7793 98.5781 53.916 98.307 53.916 97.9971C53.916 97.7191 53.7952 97.5003 53.5537 97.3408C53.3851 97.2314 52.9658 97.0924 52.2959 96.9238C51.3936 96.696 50.7669 96.5 50.416 96.3359C50.0697 96.1673 49.8053 95.9372 49.623 95.6455C49.4453 95.3493 49.3564 95.0234 49.3564 94.668C49.3564 94.3444 49.4294 94.0459 49.5752 93.7725C49.7256 93.4945 49.9284 93.2643 50.1836 93.082C50.375 92.9408 50.6348 92.8223 50.9629 92.7266C51.2956 92.6263 51.651 92.5762 52.0293 92.5762C52.599 92.5762 53.098 92.6582 53.5264 92.8223C53.9593 92.9863 54.2783 93.2096 54.4834 93.4922C54.6885 93.7702 54.8298 94.1439 54.9072 94.6133L53.7041 94.7773C53.6494 94.4036 53.4899 94.112 53.2256 93.9023C52.9658 93.6927 52.5967 93.5879 52.1182 93.5879C51.5531 93.5879 51.1497 93.6813 50.9082 93.8682C50.6667 94.055 50.5459 94.2738 50.5459 94.5244C50.5459 94.6839 50.596 94.8275 50.6963 94.9551C50.7965 95.0872 50.9538 95.1966 51.168 95.2832C51.291 95.3288 51.6533 95.4336 52.2549 95.5977C53.1253 95.8301 53.7314 96.0215 54.0732 96.1719C54.4196 96.3177 54.6908 96.5319 54.8867 96.8145C55.0827 97.097 55.1807 97.4479 55.1807 97.8672C55.1807 98.2773 55.0599 98.6647 54.8184 99.0293C54.5814 99.3893 54.2373 99.6696 53.7861 99.8701C53.335 100.066 52.8245 100.164 52.2549 100.164C51.3115 100.164 50.5915 99.9681 50.0947 99.5762C49.6025 99.1842 49.2881 98.6032 49.1514 97.833ZM61.4014 100V98.9336C60.8363 99.7539 60.0684 100.164 59.0977 100.164C58.6693 100.164 58.2682 100.082 57.8945 99.918C57.5254 99.7539 57.2497 99.5488 57.0674 99.3027C56.8896 99.0521 56.7643 98.7467 56.6914 98.3867C56.6413 98.1452 56.6162 97.7624 56.6162 97.2383V92.7402H57.8467V96.7666C57.8467 97.4092 57.8717 97.8421 57.9219 98.0654C57.9993 98.389 58.1634 98.6442 58.4141 98.8311C58.6647 99.0133 58.9746 99.1045 59.3438 99.1045C59.7129 99.1045 60.0592 99.0111 60.3828 98.8242C60.7064 98.6328 60.9342 98.3753 61.0664 98.0518C61.2031 97.7236 61.2715 97.2497 61.2715 96.6299V92.7402H62.502V100H61.4014ZM64.4092 100V89.9785H65.6396V100H64.4092ZM70.2402 98.8994L70.418 99.9863C70.0716 100.059 69.7617 100.096 69.4883 100.096C69.0417 100.096 68.6953 100.025 68.4492 99.8838C68.2031 99.7425 68.0299 99.5579 67.9297 99.3301C67.8294 99.0977 67.7793 98.6123 67.7793 97.874V93.6973H66.877V92.7402H67.7793V90.9424L69.0029 90.2041V92.7402H70.2402V93.6973H69.0029V97.9424C69.0029 98.2933 69.0234 98.5189 69.0645 98.6191C69.11 98.7194 69.1807 98.7992 69.2764 98.8584C69.3766 98.9176 69.5179 98.9473 69.7002 98.9473C69.8369 98.9473 70.0169 98.9313 70.2402 98.8994ZM76.1875 99.1045C75.7318 99.4919 75.292 99.7653 74.8682 99.9248C74.4489 100.084 73.9977 100.164 73.5146 100.164C72.7171 100.164 72.1042 99.9704 71.6758 99.583C71.2474 99.1911 71.0332 98.6921 71.0332 98.0859C71.0332 97.7305 71.113 97.4069 71.2725 97.1152C71.4365 96.819 71.6484 96.582 71.9082 96.4043C72.1725 96.2266 72.4688 96.0921 72.7969 96.001C73.0384 95.9372 73.403 95.8757 73.8906 95.8164C74.8841 95.6979 75.6156 95.5566 76.085 95.3926C76.0895 95.224 76.0918 95.1169 76.0918 95.0713C76.0918 94.57 75.9756 94.2168 75.7432 94.0117C75.4287 93.7337 74.9616 93.5947 74.3418 93.5947C73.763 93.5947 73.3346 93.6973 73.0566 93.9023C72.7832 94.1029 72.5804 94.4606 72.4482 94.9756L71.2451 94.8115C71.3545 94.2965 71.5345 93.8818 71.7852 93.5674C72.0358 93.2484 72.3981 93.0046 72.8721 92.8359C73.346 92.6628 73.8952 92.5762 74.5195 92.5762C75.1393 92.5762 75.6429 92.6491 76.0303 92.7949C76.4176 92.9408 76.7025 93.1253 76.8848 93.3486C77.0671 93.5674 77.1947 93.8454 77.2676 94.1826C77.3086 94.3923 77.3291 94.7705 77.3291 95.3174V96.958C77.3291 98.1019 77.3542 98.8265 77.4043 99.1318C77.459 99.4326 77.5638 99.722 77.7188 100H76.4336C76.306 99.7448 76.224 99.4463 76.1875 99.1045ZM76.085 96.3564C75.6383 96.5387 74.9684 96.6937 74.0752 96.8213C73.5693 96.8942 73.2116 96.9762 73.002 97.0674C72.7923 97.1585 72.6305 97.293 72.5166 97.4707C72.4027 97.6439 72.3457 97.8376 72.3457 98.0518C72.3457 98.3799 72.4688 98.6533 72.7148 98.8721C72.9655 99.0908 73.3301 99.2002 73.8086 99.2002C74.2826 99.2002 74.7041 99.0977 75.0732 98.8926C75.4424 98.6829 75.7135 98.3981 75.8867 98.0381C76.0189 97.7601 76.085 97.3499 76.085 96.8076V96.3564ZM79.2295 100V92.7402H80.3369V93.8408C80.6195 93.3258 80.8792 92.9863 81.1162 92.8223C81.3577 92.6582 81.6221 92.5762 81.9092 92.5762C82.3239 92.5762 82.7454 92.7083 83.1738 92.9727L82.75 94.1143C82.4492 93.9365 82.1484 93.8477 81.8477 93.8477C81.5788 93.8477 81.3372 93.9297 81.123 94.0938C80.9089 94.2533 80.7562 94.4766 80.665 94.7637C80.5283 95.2012 80.46 95.6797 80.46 96.1992V100H79.2295Z" fill="#003C44"/>
<circle cx="52.5" cy="41.5" r="41.5" fill="#32BCAD"/>
<path d="M51.3333 42C49.5 42 47.9306 41.3472 46.625 40.0417C45.3194 38.7361 44.6667 37.1667 44.6667 35.3333C44.6667 33.5 45.3194 31.9306 46.625 30.625C47.9306 29.3194 49.5 28.6667 51.3333 28.6667C53.1667 28.6667 54.7361 29.3194 56.0417 30.625C57.3472 31.9306 58 33.5 58 35.3333C58 37.1667 57.3472 38.7361 56.0417 40.0417C54.7361 41.3472 53.1667 42 51.3333 42ZM51.3333 38.6667C52.25 38.6667 53.0347 38.3403 53.6875 37.6875C54.3403 37.0347 54.6667 36.25 54.6667 35.3333C54.6667 34.4167 54.3403 33.6319 53.6875 32.9792C53.0347 32.3264 52.25 32 51.3333 32C50.4167 32 49.6319 32.3264 48.9792 32.9792C48.3264 33.6319 48 34.4167 48 35.3333C48 36.25 48.3264 37.0347 48.9792 37.6875C49.6319 38.3403 50.4167 38.6667 51.3333 38.6667ZM69.8333 61.1667L64.5 55.8333C63.9167 56.1667 63.2917 56.4445 62.625 56.6667C61.9583 56.8889 61.25 57 60.5 57C58.4167 57 56.6458 56.2708 55.1875 54.8125C53.7292 53.3542 53 51.5833 53 49.5C53 47.4167 53.7292 45.6458 55.1875 44.1875C56.6458 42.7292 58.4167 42 60.5 42C62.5833 42 64.3542 42.7292 65.8125 44.1875C67.2708 45.6458 68 47.4167 68 49.5C68 50.25 67.8889 50.9583 67.6667 51.625C67.4444 52.2917 67.1667 52.9167 66.8333 53.5L72.1667 58.8333L69.8333 61.1667ZM60.5 53.6667C61.6667 53.6667 62.6528 53.2639 63.4583 52.4583C64.2639 51.6528 64.6667 50.6667 64.6667 49.5C64.6667 48.3333 64.2639 47.3472 63.4583 46.5417C62.6528 45.7361 61.6667 45.3333 60.5 45.3333C59.3333 45.3333 58.3472 45.7361 57.5417 46.5417C56.7361 47.3472 56.3333 48.3333 56.3333 49.5C56.3333 50.6667 56.7361 51.6528 57.5417 52.4583C58.3472 53.2639 59.3333 53.6667 60.5 53.6667ZM38 55.3333V50.7083C38 49.7639 38.2361 48.8889 38.7083 48.0833C39.1806 47.2778 39.8333 46.6667 40.6667 46.25C42.0833 45.5278 43.6806 44.9167 45.4583 44.4167C47.2361 43.9167 49.2083 43.6667 51.375 43.6667C51.0417 44.1667 50.7569 44.7014 50.5208 45.2708C50.2847 45.8403 50.0972 46.4306 49.9583 47.0417C48.2917 47.1806 46.8056 47.4653 45.5 47.8958C44.1944 48.3264 43.0972 48.7778 42.2083 49.25C41.9306 49.3889 41.7153 49.5903 41.5625 49.8542C41.4097 50.1181 41.3333 50.4028 41.3333 50.7083V52H49.9583C50.0972 52.6111 50.2847 53.1945 50.5208 53.75C50.7569 54.3056 51.0417 54.8333 51.375 55.3333H38Z" fill="white"/>
</svg>
