<svg width="106" height="104" viewBox="0 0 106 104" fill="none" xmlns="http://www.w3.org/2000/svg">
<path d="M31.248 97.4863L32.5742 97.8213C32.2962 98.9105 31.7949 99.7422 31.0703 100.316C30.3503 100.886 29.4684 101.171 28.4248 101.171C27.3447 101.171 26.4652 100.952 25.7861 100.515C25.1117 100.073 24.5967 99.4346 24.2412 98.6006C23.8903 97.7666 23.7148 96.8711 23.7148 95.9141C23.7148 94.8704 23.9131 93.9613 24.3096 93.1865C24.7106 92.4072 25.278 91.8171 26.0117 91.416C26.75 91.0104 27.5612 90.8076 28.4453 90.8076C29.4479 90.8076 30.291 91.0628 30.9746 91.5732C31.6582 92.0837 32.1344 92.8014 32.4033 93.7266L31.0977 94.0342C30.8652 93.305 30.528 92.7741 30.0859 92.4414C29.6439 92.1087 29.0879 91.9424 28.418 91.9424C27.6478 91.9424 27.0029 92.127 26.4834 92.4961C25.9684 92.8652 25.6061 93.362 25.3965 93.9863C25.1868 94.6061 25.082 95.2464 25.082 95.9072C25.082 96.7594 25.2051 97.5046 25.4512 98.1426C25.7018 98.776 26.0892 99.25 26.6133 99.5645C27.1374 99.8789 27.7048 100.036 28.3154 100.036C29.0583 100.036 29.6872 99.8219 30.2021 99.3936C30.7171 98.9652 31.0658 98.3294 31.248 97.4863ZM33.5996 97.3701C33.5996 96.0257 33.9733 95.0299 34.7207 94.3828C35.3451 93.8451 36.1061 93.5762 37.0039 93.5762C38.002 93.5762 38.8177 93.9043 39.4512 94.5605C40.0846 95.2122 40.4014 96.1146 40.4014 97.2676C40.4014 98.2018 40.2601 98.9378 39.9775 99.4756C39.6995 100.009 39.2917 100.424 38.7539 100.72C38.2207 101.016 37.6374 101.164 37.0039 101.164C35.9876 101.164 35.165 100.838 34.5361 100.187C33.9118 99.5348 33.5996 98.596 33.5996 97.3701ZM34.8643 97.3701C34.8643 98.2998 35.0671 98.9971 35.4727 99.4619C35.8783 99.9222 36.3887 100.152 37.0039 100.152C37.6146 100.152 38.1227 99.9199 38.5283 99.4551C38.9339 98.9902 39.1367 98.2816 39.1367 97.3291C39.1367 96.4313 38.9316 95.7523 38.5215 95.292C38.1159 94.8271 37.61 94.5947 37.0039 94.5947C36.3887 94.5947 35.8783 94.8249 35.4727 95.2852C35.0671 95.7454 34.8643 96.4404 34.8643 97.3701ZM41.8506 101V93.7402H42.958V94.7725C43.4912 93.9749 44.2614 93.5762 45.2686 93.5762C45.7061 93.5762 46.1071 93.6559 46.4717 93.8154C46.8408 93.9704 47.1165 94.1755 47.2988 94.4307C47.4811 94.6859 47.6087 94.9889 47.6816 95.3398C47.7272 95.5677 47.75 95.9665 47.75 96.5361V101H46.5195V96.584C46.5195 96.0827 46.4717 95.709 46.376 95.4629C46.2803 95.2122 46.1094 95.014 45.8633 94.8682C45.6217 94.7178 45.3369 94.6426 45.0088 94.6426C44.4847 94.6426 44.0312 94.8089 43.6484 95.1416C43.2702 95.4743 43.0811 96.1055 43.0811 97.0352V101H41.8506ZM49.1514 98.833L50.3682 98.6416C50.4365 99.1292 50.6257 99.5029 50.9355 99.7627C51.25 100.022 51.6875 100.152 52.248 100.152C52.8132 100.152 53.2324 100.038 53.5059 99.8105C53.7793 99.5781 53.916 99.307 53.916 98.9971C53.916 98.7191 53.7952 98.5003 53.5537 98.3408C53.3851 98.2314 52.9658 98.0924 52.2959 97.9238C51.3936 97.696 50.7669 97.5 50.416 97.3359C50.0697 97.1673 49.8053 96.9372 49.623 96.6455C49.4453 96.3493 49.3564 96.0234 49.3564 95.668C49.3564 95.3444 49.4294 95.0459 49.5752 94.7725C49.7256 94.4945 49.9284 94.2643 50.1836 94.082C50.375 93.9408 50.6348 93.8223 50.9629 93.7266C51.2956 93.6263 51.651 93.5762 52.0293 93.5762C52.599 93.5762 53.098 93.6582 53.5264 93.8223C53.9593 93.9863 54.2783 94.2096 54.4834 94.4922C54.6885 94.7702 54.8298 95.1439 54.9072 95.6133L53.7041 95.7773C53.6494 95.4036 53.4899 95.112 53.2256 94.9023C52.9658 94.6927 52.5967 94.5879 52.1182 94.5879C51.5531 94.5879 51.1497 94.6813 50.9082 94.8682C50.6667 95.055 50.5459 95.2738 50.5459 95.5244C50.5459 95.6839 50.596 95.8275 50.6963 95.9551C50.7965 96.0872 50.9538 96.1966 51.168 96.2832C51.291 96.3288 51.6533 96.4336 52.2549 96.5977C53.1253 96.8301 53.7314 97.0215 54.0732 97.1719C54.4196 97.3177 54.6908 97.5319 54.8867 97.8145C55.0827 98.097 55.1807 98.4479 55.1807 98.8672C55.1807 99.2773 55.0599 99.6647 54.8184 100.029C54.5814 100.389 54.2373 100.67 53.7861 100.87C53.335 101.066 52.8245 101.164 52.2549 101.164C51.3115 101.164 50.5915 100.968 50.0947 100.576C49.6025 100.184 49.2881 99.6032 49.1514 98.833ZM61.4014 101V99.9336C60.8363 100.754 60.0684 101.164 59.0977 101.164C58.6693 101.164 58.2682 101.082 57.8945 100.918C57.5254 100.754 57.2497 100.549 57.0674 100.303C56.8896 100.052 56.7643 99.7467 56.6914 99.3867C56.6413 99.1452 56.6162 98.7624 56.6162 98.2383V93.7402H57.8467V97.7666C57.8467 98.4092 57.8717 98.8421 57.9219 99.0654C57.9993 99.389 58.1634 99.6442 58.4141 99.8311C58.6647 100.013 58.9746 100.104 59.3438 100.104C59.7129 100.104 60.0592 100.011 60.3828 99.8242C60.7064 99.6328 60.9342 99.3753 61.0664 99.0518C61.2031 98.7236 61.2715 98.2497 61.2715 97.6299V93.7402H62.502V101H61.4014ZM64.4092 101V90.9785H65.6396V101H64.4092ZM70.2402 99.8994L70.418 100.986C70.0716 101.059 69.7617 101.096 69.4883 101.096C69.0417 101.096 68.6953 101.025 68.4492 100.884C68.2031 100.743 68.0299 100.558 67.9297 100.33C67.8294 100.098 67.7793 99.6123 67.7793 98.874V94.6973H66.877V93.7402H67.7793V91.9424L69.0029 91.2041V93.7402H70.2402V94.6973H69.0029V98.9424C69.0029 99.2933 69.0234 99.5189 69.0645 99.6191C69.11 99.7194 69.1807 99.7992 69.2764 99.8584C69.3766 99.9176 69.5179 99.9473 69.7002 99.9473C69.8369 99.9473 70.0169 99.9313 70.2402 99.8994ZM76.1875 100.104C75.7318 100.492 75.292 100.765 74.8682 100.925C74.4489 101.084 73.9977 101.164 73.5146 101.164C72.7171 101.164 72.1042 100.97 71.6758 100.583C71.2474 100.191 71.0332 99.6921 71.0332 99.0859C71.0332 98.7305 71.113 98.4069 71.2725 98.1152C71.4365 97.819 71.6484 97.582 71.9082 97.4043C72.1725 97.2266 72.4688 97.0921 72.7969 97.001C73.0384 96.9372 73.403 96.8757 73.8906 96.8164C74.8841 96.6979 75.6156 96.5566 76.085 96.3926C76.0895 96.224 76.0918 96.1169 76.0918 96.0713C76.0918 95.57 75.9756 95.2168 75.7432 95.0117C75.4287 94.7337 74.9616 94.5947 74.3418 94.5947C73.763 94.5947 73.3346 94.6973 73.0566 94.9023C72.7832 95.1029 72.5804 95.4606 72.4482 95.9756L71.2451 95.8115C71.3545 95.2965 71.5345 94.8818 71.7852 94.5674C72.0358 94.2484 72.3981 94.0046 72.8721 93.8359C73.346 93.6628 73.8952 93.5762 74.5195 93.5762C75.1393 93.5762 75.6429 93.6491 76.0303 93.7949C76.4176 93.9408 76.7025 94.1253 76.8848 94.3486C77.0671 94.5674 77.1947 94.8454 77.2676 95.1826C77.3086 95.3923 77.3291 95.7705 77.3291 96.3174V97.958C77.3291 99.1019 77.3542 99.8265 77.4043 100.132C77.459 100.433 77.5638 100.722 77.7188 101H76.4336C76.306 100.745 76.224 100.446 76.1875 100.104ZM76.085 97.3564C75.6383 97.5387 74.9684 97.6937 74.0752 97.8213C73.5693 97.8942 73.2116 97.9762 73.002 98.0674C72.7923 98.1585 72.6305 98.293 72.5166 98.4707C72.4027 98.6439 72.3457 98.8376 72.3457 99.0518C72.3457 99.3799 72.4688 99.6533 72.7148 99.8721C72.9655 100.091 73.3301 100.2 73.8086 100.2C74.2826 100.2 74.7041 100.098 75.0732 99.8926C75.4424 99.6829 75.7135 99.3981 75.8867 99.0381C76.0189 98.7601 76.085 98.3499 76.085 97.8076V97.3564ZM79.2295 101V93.7402H80.3369V94.8408C80.6195 94.3258 80.8792 93.9863 81.1162 93.8223C81.3577 93.6582 81.6221 93.5762 81.9092 93.5762C82.3239 93.5762 82.7454 93.7083 83.1738 93.9727L82.75 95.1143C82.4492 94.9365 82.1484 94.8477 81.8477 94.8477C81.5788 94.8477 81.3372 94.9297 81.123 95.0938C80.9089 95.2533 80.7562 95.4766 80.665 95.7637C80.5283 96.2012 80.46 96.6797 80.46 97.1992V101H79.2295Z" fill="#003C44"/>
<circle cx="52.5" cy="42.5" r="41.5" fill="white" stroke="#32BCAD" stroke-width="2"/>
<path d="M51.3333 43C49.5 43 47.9306 42.3472 46.625 41.0417C45.3194 39.7361 44.6667 38.1667 44.6667 36.3333C44.6667 34.5 45.3194 32.9305 46.625 31.625C47.9306 30.3194 49.5 29.6667 51.3333 29.6667C53.1667 29.6667 54.7361 30.3194 56.0417 31.625C57.3472 32.9305 58 34.5 58 36.3333C58 38.1667 57.3472 39.7361 56.0417 41.0417C54.7361 42.3472 53.1667 43 51.3333 43ZM51.3333 39.6667C52.25 39.6667 53.0347 39.3403 53.6875 38.6875C54.3403 38.0347 54.6667 37.25 54.6667 36.3333C54.6667 35.4167 54.3403 34.6319 53.6875 33.9792C53.0347 33.3264 52.25 33 51.3333 33C50.4167 33 49.6319 33.3264 48.9792 33.9792C48.3264 34.6319 48 35.4167 48 36.3333C48 37.25 48.3264 38.0347 48.9792 38.6875C49.6319 39.3403 50.4167 39.6667 51.3333 39.6667ZM69.8333 62.1667L64.5 56.8333C63.9167 57.1667 63.2917 57.4444 62.625 57.6667C61.9583 57.8889 61.25 58 60.5 58C58.4167 58 56.6458 57.2708 55.1875 55.8125C53.7292 54.3542 53 52.5833 53 50.5C53 48.4167 53.7292 46.6458 55.1875 45.1875C56.6458 43.7292 58.4167 43 60.5 43C62.5833 43 64.3542 43.7292 65.8125 45.1875C67.2708 46.6458 68 48.4167 68 50.5C68 51.25 67.8889 51.9583 67.6667 52.625C67.4444 53.2917 67.1667 53.9167 66.8333 54.5L72.1667 59.8333L69.8333 62.1667ZM60.5 54.6667C61.6667 54.6667 62.6528 54.2639 63.4583 53.4583C64.2639 52.6528 64.6667 51.6667 64.6667 50.5C64.6667 49.3333 64.2639 48.3472 63.4583 47.5417C62.6528 46.7361 61.6667 46.3333 60.5 46.3333C59.3333 46.3333 58.3472 46.7361 57.5417 47.5417C56.7361 48.3472 56.3333 49.3333 56.3333 50.5C56.3333 51.6667 56.7361 52.6528 57.5417 53.4583C58.3472 54.2639 59.3333 54.6667 60.5 54.6667ZM38 56.3333V51.7083C38 50.7639 38.2361 49.8889 38.7083 49.0833C39.1806 48.2778 39.8333 47.6667 40.6667 47.25C42.0833 46.5278 43.6806 45.9167 45.4583 45.4167C47.2361 44.9167 49.2083 44.6667 51.375 44.6667C51.0417 45.1667 50.7569 45.7014 50.5208 46.2708C50.2847 46.8403 50.0972 47.4305 49.9583 48.0417C48.2917 48.1805 46.8056 48.4653 45.5 48.8958C44.1944 49.3264 43.0972 49.7778 42.2083 50.25C41.9306 50.3889 41.7153 50.5903 41.5625 50.8542C41.4097 51.118 41.3333 51.4028 41.3333 51.7083V53H49.9583C50.0972 53.6111 50.2847 54.1944 50.5208 54.75C50.7569 55.3055 51.0417 55.8333 51.375 56.3333H38Z" fill="#32BCAD"/>
</svg>
