<svg width="112" height="42" viewBox="0 0 112 42" fill="none" xmlns="http://www.w3.org/2000/svg">
<rect x="1" y="1" width="110" height="40" rx="8" fill="white" stroke="#32BCAD"/>
<path d="M23 21C21.9 21 20.9583 20.6083 20.175 19.825C19.3917 19.0417 19 18.1 19 17C19 15.9 19.3917 14.9583 20.175 14.175C20.9583 13.3917 21.9 13 23 13C24.1 13 25.0417 13.3917 25.825 14.175C26.6083 14.9583 27 15.9 27 17C27 18.1 26.6083 19.0417 25.825 19.825C25.0417 20.6083 24.1 21 23 21ZM23 19C23.55 19 24.0208 18.8042 24.4125 18.4125C24.8042 18.0208 25 17.55 25 17C25 16.45 24.8042 15.9792 24.4125 15.5875C24.0208 15.1958 23.55 15 23 15C22.45 15 21.9792 15.1958 21.5875 15.5875C21.1958 15.9792 21 16.45 21 17C21 17.55 21.1958 18.0208 21.5875 18.4125C21.9792 18.8042 22.45 19 23 19ZM34.1 32.5L30.9 29.3C30.55 29.5 30.175 29.6667 29.775 29.8C29.375 29.9333 28.95 30 28.5 30C27.25 30 26.1875 29.5625 25.3125 28.6875C24.4375 27.8125 24 26.75 24 25.5C24 24.25 24.4375 23.1875 25.3125 22.3125C26.1875 21.4375 27.25 21 28.5 21C29.75 21 30.8125 21.4375 31.6875 22.3125C32.5625 23.1875 33 24.25 33 25.5C33 25.95 32.9333 26.375 32.8 26.775C32.6667 27.175 32.5 27.55 32.3 27.9L35.5 31.1L34.1 32.5ZM28.5 28C29.2 28 29.7917 27.7583 30.275 27.275C30.7583 26.7917 31 26.2 31 25.5C31 24.8 30.7583 24.2083 30.275 23.725C29.7917 23.2417 29.2 23 28.5 23C27.8 23 27.2083 23.2417 26.725 23.725C26.2417 24.2083 26 24.8 26 25.5C26 26.2 26.2417 26.7917 26.725 27.275C27.2083 27.7583 27.8 28 28.5 28ZM15 29V26.225C15 25.6583 15.1417 25.1333 15.425 24.65C15.7083 24.1667 16.1 23.8 16.6 23.55C17.45 23.1167 18.4083 22.75 19.475 22.45C20.5417 22.15 21.725 22 23.025 22C22.825 22.3 22.6542 22.6208 22.5125 22.9625C22.3708 23.3042 22.2583 23.6583 22.175 24.025C21.175 24.1083 20.2833 24.2792 19.5 24.5375C18.7167 24.7958 18.0583 25.0667 17.525 25.35C17.3583 25.4333 17.2292 25.5542 17.1375 25.7125C17.0458 25.8708 17 26.0417 17 26.225V27H22.175C22.2583 27.3667 22.3708 27.7167 22.5125 28.05C22.6542 28.3833 22.825 28.7 23.025 29H15Z" fill="#32BCAD"/>
<path d="M48.248 22.4863L49.5742 22.8213C49.2962 23.9105 48.7949 24.7422 48.0703 25.3164C47.3503 25.8861 46.4684 26.1709 45.4248 26.1709C44.3447 26.1709 43.4652 25.9521 42.7861 25.5146C42.1117 25.0726 41.5967 24.4346 41.2412 23.6006C40.8903 22.7666 40.7148 21.8711 40.7148 20.9141C40.7148 19.8704 40.9131 18.9613 41.3096 18.1865C41.7106 17.4072 42.278 16.8171 43.0117 16.416C43.75 16.0104 44.5612 15.8076 45.4453 15.8076C46.4479 15.8076 47.291 16.0628 47.9746 16.5732C48.6582 17.0837 49.1344 17.8014 49.4033 18.7266L48.0977 19.0342C47.8652 18.305 47.528 17.7741 47.0859 17.4414C46.6439 17.1087 46.0879 16.9424 45.418 16.9424C44.6478 16.9424 44.0029 17.127 43.4834 17.4961C42.9684 17.8652 42.6061 18.362 42.3965 18.9863C42.1868 19.6061 42.082 20.2464 42.082 20.9072C42.082 21.7594 42.2051 22.5046 42.4512 23.1426C42.7018 23.776 43.0892 24.25 43.6133 24.5645C44.1374 24.8789 44.7048 25.0361 45.3154 25.0361C46.0583 25.0361 46.6872 24.8219 47.2021 24.3936C47.7171 23.9652 48.0658 23.3294 48.248 22.4863ZM50.5996 22.3701C50.5996 21.0257 50.9733 20.0299 51.7207 19.3828C52.3451 18.8451 53.1061 18.5762 54.0039 18.5762C55.002 18.5762 55.8177 18.9043 56.4512 19.5605C57.0846 20.2122 57.4014 21.1146 57.4014 22.2676C57.4014 23.2018 57.2601 23.9378 56.9775 24.4756C56.6995 25.0088 56.2917 25.4235 55.7539 25.7197C55.2207 26.016 54.6374 26.1641 54.0039 26.1641C52.9876 26.1641 52.165 25.8382 51.5361 25.1865C50.9118 24.5348 50.5996 23.596 50.5996 22.3701ZM51.8643 22.3701C51.8643 23.2998 52.0671 23.9971 52.4727 24.4619C52.8783 24.9222 53.3887 25.1523 54.0039 25.1523C54.6146 25.1523 55.1227 24.9199 55.5283 24.4551C55.9339 23.9902 56.1367 23.2816 56.1367 22.3291C56.1367 21.4313 55.9316 20.7523 55.5215 20.292C55.1159 19.8271 54.61 19.5947 54.0039 19.5947C53.3887 19.5947 52.8783 19.8249 52.4727 20.2852C52.0671 20.7454 51.8643 21.4404 51.8643 22.3701ZM58.8506 26V18.7402H59.958V19.7725C60.4912 18.9749 61.2614 18.5762 62.2686 18.5762C62.7061 18.5762 63.1071 18.6559 63.4717 18.8154C63.8408 18.9704 64.1165 19.1755 64.2988 19.4307C64.4811 19.6859 64.6087 19.9889 64.6816 20.3398C64.7272 20.5677 64.75 20.9665 64.75 21.5361V26H63.5195V21.584C63.5195 21.0827 63.4717 20.709 63.376 20.4629C63.2803 20.2122 63.1094 20.014 62.8633 19.8682C62.6217 19.7178 62.3369 19.6426 62.0088 19.6426C61.4847 19.6426 61.0312 19.8089 60.6484 20.1416C60.2702 20.4743 60.0811 21.1055 60.0811 22.0352V26H58.8506ZM66.1514 23.833L67.3682 23.6416C67.4365 24.1292 67.6257 24.5029 67.9355 24.7627C68.25 25.0225 68.6875 25.1523 69.248 25.1523C69.8132 25.1523 70.2324 25.0384 70.5059 24.8105C70.7793 24.5781 70.916 24.307 70.916 23.9971C70.916 23.7191 70.7952 23.5003 70.5537 23.3408C70.3851 23.2314 69.9658 23.0924 69.2959 22.9238C68.3936 22.696 67.7669 22.5 67.416 22.3359C67.0697 22.1673 66.8053 21.9372 66.623 21.6455C66.4453 21.3493 66.3564 21.0234 66.3564 20.668C66.3564 20.3444 66.4294 20.0459 66.5752 19.7725C66.7256 19.4945 66.9284 19.2643 67.1836 19.082C67.375 18.9408 67.6348 18.8223 67.9629 18.7266C68.2956 18.6263 68.651 18.5762 69.0293 18.5762C69.599 18.5762 70.098 18.6582 70.5264 18.8223C70.9593 18.9863 71.2783 19.2096 71.4834 19.4922C71.6885 19.7702 71.8298 20.1439 71.9072 20.6133L70.7041 20.7773C70.6494 20.4036 70.4899 20.112 70.2256 19.9023C69.9658 19.6927 69.5967 19.5879 69.1182 19.5879C68.5531 19.5879 68.1497 19.6813 67.9082 19.8682C67.6667 20.055 67.5459 20.2738 67.5459 20.5244C67.5459 20.6839 67.596 20.8275 67.6963 20.9551C67.7965 21.0872 67.9538 21.1966 68.168 21.2832C68.291 21.3288 68.6533 21.4336 69.2549 21.5977C70.1253 21.8301 70.7314 22.0215 71.0732 22.1719C71.4196 22.3177 71.6908 22.5319 71.8867 22.8145C72.0827 23.097 72.1807 23.4479 72.1807 23.8672C72.1807 24.2773 72.0599 24.6647 71.8184 25.0293C71.5814 25.3893 71.2373 25.6696 70.7861 25.8701C70.335 26.0661 69.8245 26.1641 69.2549 26.1641C68.3115 26.1641 67.5915 25.9681 67.0947 25.5762C66.6025 25.1842 66.2881 24.6032 66.1514 23.833ZM78.4014 26V24.9336C77.8363 25.7539 77.0684 26.1641 76.0977 26.1641C75.6693 26.1641 75.2682 26.082 74.8945 25.918C74.5254 25.7539 74.2497 25.5488 74.0674 25.3027C73.8896 25.0521 73.7643 24.7467 73.6914 24.3867C73.6413 24.1452 73.6162 23.7624 73.6162 23.2383V18.7402H74.8467V22.7666C74.8467 23.4092 74.8717 23.8421 74.9219 24.0654C74.9993 24.389 75.1634 24.6442 75.4141 24.8311C75.6647 25.0133 75.9746 25.1045 76.3438 25.1045C76.7129 25.1045 77.0592 25.0111 77.3828 24.8242C77.7064 24.6328 77.9342 24.3753 78.0664 24.0518C78.2031 23.7236 78.2715 23.2497 78.2715 22.6299V18.7402H79.502V26H78.4014ZM81.4092 26V15.9785H82.6396V26H81.4092ZM87.2402 24.8994L87.418 25.9863C87.0716 26.0592 86.7617 26.0957 86.4883 26.0957C86.0417 26.0957 85.6953 26.0251 85.4492 25.8838C85.2031 25.7425 85.0299 25.5579 84.9297 25.3301C84.8294 25.0977 84.7793 24.6123 84.7793 23.874V19.6973H83.877V18.7402H84.7793V16.9424L86.0029 16.2041V18.7402H87.2402V19.6973H86.0029V23.9424C86.0029 24.2933 86.0234 24.5189 86.0645 24.6191C86.11 24.7194 86.1807 24.7992 86.2764 24.8584C86.3766 24.9176 86.5179 24.9473 86.7002 24.9473C86.8369 24.9473 87.0169 24.9313 87.2402 24.8994ZM93.1875 25.1045C92.7318 25.4919 92.292 25.7653 91.8682 25.9248C91.4489 26.0843 90.9977 26.1641 90.5146 26.1641C89.7171 26.1641 89.1042 25.9704 88.6758 25.583C88.2474 25.1911 88.0332 24.6921 88.0332 24.0859C88.0332 23.7305 88.113 23.4069 88.2725 23.1152C88.4365 22.819 88.6484 22.582 88.9082 22.4043C89.1725 22.2266 89.4688 22.0921 89.7969 22.001C90.0384 21.9372 90.403 21.8757 90.8906 21.8164C91.8841 21.6979 92.6156 21.5566 93.085 21.3926C93.0895 21.224 93.0918 21.1169 93.0918 21.0713C93.0918 20.57 92.9756 20.2168 92.7432 20.0117C92.4287 19.7337 91.9616 19.5947 91.3418 19.5947C90.763 19.5947 90.3346 19.6973 90.0566 19.9023C89.7832 20.1029 89.5804 20.4606 89.4482 20.9756L88.2451 20.8115C88.3545 20.2965 88.5345 19.8818 88.7852 19.5674C89.0358 19.2484 89.3981 19.0046 89.8721 18.8359C90.346 18.6628 90.8952 18.5762 91.5195 18.5762C92.1393 18.5762 92.6429 18.6491 93.0303 18.7949C93.4176 18.9408 93.7025 19.1253 93.8848 19.3486C94.0671 19.5674 94.1947 19.8454 94.2676 20.1826C94.3086 20.3923 94.3291 20.7705 94.3291 21.3174V22.958C94.3291 24.1019 94.3542 24.8265 94.4043 25.1318C94.459 25.4326 94.5638 25.722 94.7188 26H93.4336C93.306 25.7448 93.224 25.4463 93.1875 25.1045ZM93.085 22.3564C92.6383 22.5387 91.9684 22.6937 91.0752 22.8213C90.5693 22.8942 90.2116 22.9762 90.002 23.0674C89.7923 23.1585 89.6305 23.293 89.5166 23.4707C89.4027 23.6439 89.3457 23.8376 89.3457 24.0518C89.3457 24.3799 89.4688 24.6533 89.7148 24.8721C89.9655 25.0908 90.3301 25.2002 90.8086 25.2002C91.2826 25.2002 91.7041 25.0977 92.0732 24.8926C92.4424 24.6829 92.7135 24.3981 92.8867 24.0381C93.0189 23.7601 93.085 23.3499 93.085 22.8076V22.3564ZM96.2295 26V18.7402H97.3369V19.8408C97.6195 19.3258 97.8792 18.9863 98.1162 18.8223C98.3577 18.6582 98.6221 18.5762 98.9092 18.5762C99.3239 18.5762 99.7454 18.7083 100.174 18.9727L99.75 20.1143C99.4492 19.9365 99.1484 19.8477 98.8477 19.8477C98.5788 19.8477 98.3372 19.9297 98.123 20.0938C97.9089 20.2533 97.7562 20.4766 97.665 20.7637C97.5283 21.2012 97.46 21.6797 97.46 22.1992V26H96.2295Z" fill="#32BCAD"/>
</svg>
