<svg width="106" height="104" viewBox="0 0 106 104" fill="none" xmlns="http://www.w3.org/2000/svg">
<path d="M1.53223 101V90.9785H5.3125C5.97786 90.9785 6.486 91.0104 6.83691 91.0742C7.3291 91.1562 7.74154 91.3135 8.07422 91.5459C8.4069 91.7738 8.6735 92.0951 8.87402 92.5098C9.0791 92.9245 9.18164 93.3802 9.18164 93.877C9.18164 94.7292 8.91048 95.4515 8.36816 96.0439C7.82585 96.6318 6.84603 96.9258 5.42871 96.9258H2.8584V101H1.53223ZM2.8584 95.7432H5.44922C6.30599 95.7432 6.91439 95.5837 7.27441 95.2646C7.63444 94.9456 7.81445 94.4967 7.81445 93.918C7.81445 93.4987 7.70736 93.141 7.49316 92.8447C7.28353 92.5439 7.00553 92.3457 6.65918 92.25C6.43587 92.1908 6.02344 92.1611 5.42188 92.1611H2.8584V95.7432ZM15.4502 100.104C14.9945 100.492 14.5547 100.765 14.1309 100.925C13.7116 101.084 13.2604 101.164 12.7773 101.164C11.9798 101.164 11.3669 100.97 10.9385 100.583C10.5101 100.191 10.2959 99.6921 10.2959 99.0859C10.2959 98.7305 10.3757 98.4069 10.5352 98.1152C10.6992 97.819 10.9111 97.582 11.1709 97.4043C11.4352 97.2266 11.7314 97.0921 12.0596 97.001C12.3011 96.9372 12.6657 96.8757 13.1533 96.8164C14.1468 96.6979 14.8783 96.5566 15.3477 96.3926C15.3522 96.224 15.3545 96.1169 15.3545 96.0713C15.3545 95.57 15.2383 95.2168 15.0059 95.0117C14.6914 94.7337 14.2243 94.5947 13.6045 94.5947C13.0257 94.5947 12.5973 94.6973 12.3193 94.9023C12.0459 95.1029 11.8431 95.4606 11.7109 95.9756L10.5078 95.8115C10.6172 95.2965 10.7972 94.8818 11.0479 94.5674C11.2985 94.2484 11.6608 94.0046 12.1348 93.8359C12.6087 93.6628 13.1579 93.5762 13.7822 93.5762C14.402 93.5762 14.9056 93.6491 15.293 93.7949C15.6803 93.9408 15.9652 94.1253 16.1475 94.3486C16.3298 94.5674 16.4574 94.8454 16.5303 95.1826C16.5713 95.3923 16.5918 95.7705 16.5918 96.3174V97.958C16.5918 99.1019 16.6169 99.8265 16.667 100.132C16.7217 100.433 16.8265 100.722 16.9814 101H15.6963C15.5687 100.745 15.4867 100.446 15.4502 100.104ZM15.3477 97.3564C14.901 97.5387 14.2311 97.6937 13.3379 97.8213C12.832 97.8942 12.4743 97.9762 12.2646 98.0674C12.055 98.1585 11.8932 98.293 11.7793 98.4707C11.6654 98.6439 11.6084 98.8376 11.6084 99.0518C11.6084 99.3799 11.7314 99.6533 11.9775 99.8721C12.2282 100.091 12.5928 100.2 13.0713 100.2C13.5452 100.2 13.9668 100.098 14.3359 99.8926C14.7051 99.6829 14.9762 99.3981 15.1494 99.0381C15.2816 98.7601 15.3477 98.3499 15.3477 97.8076V97.3564ZM18.4922 101V93.7402H19.5996V94.8408C19.8822 94.3258 20.1419 93.9863 20.3789 93.8223C20.6204 93.6582 20.8848 93.5762 21.1719 93.5762C21.5866 93.5762 22.0081 93.7083 22.4365 93.9727L22.0127 95.1143C21.7119 94.9365 21.4111 94.8477 21.1104 94.8477C20.8415 94.8477 20.5999 94.9297 20.3857 95.0938C20.1715 95.2533 20.0189 95.4766 19.9277 95.7637C19.791 96.2012 19.7227 96.6797 19.7227 97.1992V101H18.4922ZM27.9053 100.104C27.4495 100.492 27.0098 100.765 26.5859 100.925C26.1667 101.084 25.7155 101.164 25.2324 101.164C24.4349 101.164 23.8219 100.97 23.3936 100.583C22.9652 100.191 22.751 99.6921 22.751 99.0859C22.751 98.7305 22.8307 98.4069 22.9902 98.1152C23.1543 97.819 23.3662 97.582 23.626 97.4043C23.8903 97.2266 24.1865 97.0921 24.5146 97.001C24.7562 96.9372 25.1208 96.8757 25.6084 96.8164C26.6019 96.6979 27.3333 96.5566 27.8027 96.3926C27.8073 96.224 27.8096 96.1169 27.8096 96.0713C27.8096 95.57 27.6934 95.2168 27.4609 95.0117C27.1465 94.7337 26.6794 94.5947 26.0596 94.5947C25.4808 94.5947 25.0524 94.6973 24.7744 94.9023C24.501 95.1029 24.2982 95.4606 24.166 95.9756L22.9629 95.8115C23.0723 95.2965 23.2523 94.8818 23.5029 94.5674C23.7536 94.2484 24.1159 94.0046 24.5898 93.8359C25.0638 93.6628 25.613 93.5762 26.2373 93.5762C26.8571 93.5762 27.3607 93.6491 27.748 93.7949C28.1354 93.9408 28.4202 94.1253 28.6025 94.3486C28.7848 94.5674 28.9124 94.8454 28.9854 95.1826C29.0264 95.3923 29.0469 95.7705 29.0469 96.3174V97.958C29.0469 99.1019 29.0719 99.8265 29.1221 100.132C29.1768 100.433 29.2816 100.722 29.4365 101H28.1514C28.0238 100.745 27.9417 100.446 27.9053 100.104ZM27.8027 97.3564C27.3561 97.5387 26.6862 97.6937 25.793 97.8213C25.2871 97.8942 24.9294 97.9762 24.7197 98.0674C24.5101 98.1585 24.3483 98.293 24.2344 98.4707C24.1204 98.6439 24.0635 98.8376 24.0635 99.0518C24.0635 99.3799 24.1865 99.6533 24.4326 99.8721C24.6833 100.091 25.0479 100.2 25.5264 100.2C26.0003 100.2 26.4219 100.098 26.791 99.8926C27.1602 99.6829 27.4313 99.3981 27.6045 99.0381C27.7367 98.7601 27.8027 98.3499 27.8027 97.8076V97.3564ZM30.9609 101V93.7402H32.0615V94.7588C32.2894 94.4033 32.5924 94.1185 32.9707 93.9043C33.349 93.6855 33.7796 93.5762 34.2627 93.5762C34.8005 93.5762 35.2402 93.6878 35.582 93.9111C35.9284 94.1344 36.1722 94.4466 36.3135 94.8477C36.8877 94 37.6351 93.5762 38.5557 93.5762C39.2757 93.5762 39.8294 93.7767 40.2168 94.1777C40.6042 94.5742 40.7979 95.1872 40.7979 96.0166V101H39.5742V96.4268C39.5742 95.9346 39.5332 95.5814 39.4512 95.3672C39.3737 95.1484 39.2301 94.973 39.0205 94.8408C38.8109 94.7087 38.5648 94.6426 38.2822 94.6426C37.7718 94.6426 37.348 94.8135 37.0107 95.1553C36.6735 95.4925 36.5049 96.0348 36.5049 96.7822V101H35.2744V96.2832C35.2744 95.7363 35.1742 95.3262 34.9736 95.0527C34.7731 94.7793 34.445 94.6426 33.9893 94.6426C33.6429 94.6426 33.3216 94.7337 33.0254 94.916C32.7337 95.0983 32.5218 95.3649 32.3896 95.7158C32.2575 96.0667 32.1914 96.5726 32.1914 97.2334V101H30.9609ZM47.5928 98.6621L48.8643 98.8193C48.6637 99.5622 48.2923 100.139 47.75 100.549C47.2077 100.959 46.515 101.164 45.6719 101.164C44.61 101.164 43.7669 100.838 43.1426 100.187C42.5228 99.5303 42.2129 98.612 42.2129 97.4316C42.2129 96.2103 42.5273 95.2624 43.1562 94.5879C43.7852 93.9134 44.6009 93.5762 45.6035 93.5762C46.5742 93.5762 47.3672 93.9066 47.9824 94.5674C48.5977 95.2282 48.9053 96.1579 48.9053 97.3564C48.9053 97.4294 48.903 97.5387 48.8984 97.6846H43.4844C43.5299 98.4821 43.7555 99.0928 44.1611 99.5166C44.5667 99.9404 45.0726 100.152 45.6787 100.152C46.1299 100.152 46.515 100.034 46.834 99.7969C47.153 99.5599 47.4059 99.1816 47.5928 98.6621ZM43.5527 96.6729H47.6064C47.5518 96.0622 47.3968 95.6042 47.1416 95.2988C46.7497 94.8249 46.2415 94.5879 45.6172 94.5879C45.0521 94.5879 44.5758 94.777 44.1885 95.1553C43.8057 95.5335 43.5938 96.0394 43.5527 96.6729ZM53.1025 99.8994L53.2803 100.986C52.9339 101.059 52.624 101.096 52.3506 101.096C51.904 101.096 51.5576 101.025 51.3115 100.884C51.0654 100.743 50.8923 100.558 50.792 100.33C50.6917 100.098 50.6416 99.6123 50.6416 98.874V94.6973H49.7393V93.7402H50.6416V91.9424L51.8652 91.2041V93.7402H53.1025V94.6973H51.8652V98.9424C51.8652 99.2933 51.8857 99.5189 51.9268 99.6191C51.9723 99.7194 52.043 99.7992 52.1387 99.8584C52.2389 99.9176 52.3802 99.9473 52.5625 99.9473C52.6992 99.9473 52.8792 99.9313 53.1025 99.8994ZM54.2988 101V93.7402H55.4062V94.8408C55.6888 94.3258 55.9486 93.9863 56.1855 93.8223C56.4271 93.6582 56.6914 93.5762 56.9785 93.5762C57.3932 93.5762 57.8148 93.7083 58.2432 93.9727L57.8193 95.1143C57.5186 94.9365 57.2178 94.8477 56.917 94.8477C56.6481 94.8477 56.4066 94.9297 56.1924 95.0938C55.9782 95.2533 55.8255 95.4766 55.7344 95.7637C55.5977 96.2012 55.5293 96.6797 55.5293 97.1992V101H54.2988ZM58.9814 92.3936V90.9785H60.2119V92.3936H58.9814ZM58.9814 101V93.7402H60.2119V101H58.9814ZM61.4424 101V100.002L66.0635 94.6973C65.5394 94.7246 65.0768 94.7383 64.6758 94.7383H61.7158V93.7402H67.6494V94.5537L63.7188 99.1611L62.96 100.002C63.5114 99.9609 64.0286 99.9404 64.5117 99.9404H67.8682V101H61.4424ZM73.8291 100.104C73.3734 100.492 72.9336 100.765 72.5098 100.925C72.0905 101.084 71.6393 101.164 71.1562 101.164C70.3587 101.164 69.7458 100.97 69.3174 100.583C68.889 100.191 68.6748 99.6921 68.6748 99.0859C68.6748 98.7305 68.7546 98.4069 68.9141 98.1152C69.0781 97.819 69.29 97.582 69.5498 97.4043C69.8141 97.2266 70.1104 97.0921 70.4385 97.001C70.68 96.9372 71.0446 96.8757 71.5322 96.8164C72.5257 96.6979 73.2572 96.5566 73.7266 96.3926C73.7311 96.224 73.7334 96.1169 73.7334 96.0713C73.7334 95.57 73.6172 95.2168 73.3848 95.0117C73.0703 94.7337 72.6032 94.5947 71.9834 94.5947C71.4046 94.5947 70.9762 94.6973 70.6982 94.9023C70.4248 95.1029 70.222 95.4606 70.0898 95.9756L68.8867 95.8115C68.9961 95.2965 69.1761 94.8818 69.4268 94.5674C69.6774 94.2484 70.0397 94.0046 70.5137 93.8359C70.9876 93.6628 71.5368 93.5762 72.1611 93.5762C72.7809 93.5762 73.2845 93.6491 73.6719 93.7949C74.0592 93.9408 74.3441 94.1253 74.5264 94.3486C74.7087 94.5674 74.8363 94.8454 74.9092 95.1826C74.9502 95.3923 74.9707 95.7705 74.9707 96.3174V97.958C74.9707 99.1019 74.9958 99.8265 75.0459 100.132C75.1006 100.433 75.2054 100.722 75.3604 101H74.0752C73.9476 100.745 73.8656 100.446 73.8291 100.104ZM73.7266 97.3564C73.2799 97.5387 72.61 97.6937 71.7168 97.8213C71.2109 97.8942 70.8532 97.9762 70.6436 98.0674C70.4339 98.1585 70.2721 98.293 70.1582 98.4707C70.0443 98.6439 69.9873 98.8376 69.9873 99.0518C69.9873 99.3799 70.1104 99.6533 70.3564 99.8721C70.6071 100.091 70.9717 100.2 71.4502 100.2C71.9242 100.2 72.3457 100.098 72.7148 99.8926C73.084 99.6829 73.3551 99.3981 73.5283 99.0381C73.6605 98.7601 73.7266 98.3499 73.7266 97.8076V97.3564ZM81.6221 98.3408L82.832 98.498C82.6999 99.332 82.3604 99.986 81.8135 100.46C81.2712 100.929 80.6035 101.164 79.8105 101.164C78.8171 101.164 78.0173 100.84 77.4111 100.193C76.8096 99.5417 76.5088 98.6097 76.5088 97.3975C76.5088 96.6136 76.6387 95.9277 76.8984 95.3398C77.1582 94.752 77.5524 94.3122 78.0811 94.0205C78.6143 93.7243 79.193 93.5762 79.8174 93.5762C80.6058 93.5762 81.2507 93.7767 81.752 94.1777C82.2533 94.5742 82.5745 95.1393 82.7158 95.873L81.5195 96.0576C81.4056 95.57 81.2028 95.2031 80.9111 94.957C80.624 94.7109 80.2754 94.5879 79.8652 94.5879C79.2454 94.5879 78.7419 94.8112 78.3545 95.2578C77.9671 95.6999 77.7734 96.4017 77.7734 97.3633C77.7734 98.3385 77.9603 99.0472 78.334 99.4893C78.7077 99.9313 79.1953 100.152 79.7969 100.152C80.2799 100.152 80.6833 100.004 81.0068 99.708C81.3304 99.4118 81.5355 98.9561 81.6221 98.3408ZM78.7715 101.916L79.127 100.706H80.043L79.8174 101.438C80.2048 101.483 80.4964 101.602 80.6924 101.793C80.8883 101.989 80.9863 102.205 80.9863 102.442C80.9863 102.784 80.8223 103.085 80.4941 103.345C80.166 103.609 79.6715 103.741 79.0107 103.741C78.637 103.741 78.3089 103.714 78.0264 103.659L78.1016 102.859C78.3932 102.878 78.6074 102.887 78.7441 102.887C79.1725 102.887 79.4733 102.827 79.6465 102.709C79.7786 102.618 79.8447 102.506 79.8447 102.374C79.8447 102.292 79.8174 102.219 79.7627 102.155C79.7126 102.091 79.6169 102.037 79.4756 101.991C79.3343 101.946 79.0996 101.921 78.7715 101.916ZM83.4268 97.3701C83.4268 96.0257 83.8005 95.0299 84.5479 94.3828C85.1722 93.8451 85.9333 93.5762 86.8311 93.5762C87.8291 93.5762 88.6449 93.9043 89.2783 94.5605C89.9118 95.2122 90.2285 96.1146 90.2285 97.2676C90.2285 98.2018 90.0872 98.9378 89.8047 99.4756C89.5267 100.009 89.1188 100.424 88.5811 100.72C88.0479 101.016 87.4645 101.164 86.8311 101.164C85.8148 101.164 84.9922 100.838 84.3633 100.187C83.7389 99.5348 83.4268 98.596 83.4268 97.3701ZM84.6914 97.3701C84.6914 98.2998 84.8942 98.9971 85.2998 99.4619C85.7054 99.9222 86.2158 100.152 86.8311 100.152C87.4417 100.152 87.9499 99.9199 88.3555 99.4551C88.7611 98.9902 88.9639 98.2816 88.9639 97.3291C88.9639 96.4313 88.7588 95.7523 88.3486 95.292C87.943 94.8271 87.4372 94.5947 86.8311 94.5947C86.2158 94.5947 85.7054 94.8249 85.2998 95.2852C84.8942 95.7454 84.6914 96.4404 84.6914 97.3701ZM84.541 92.667C84.5365 92.193 84.6663 91.8148 84.9307 91.5322C85.1904 91.2497 85.5231 91.1084 85.9287 91.1084C86.2113 91.1084 86.5964 91.2314 87.084 91.4775C87.3529 91.6143 87.5671 91.6826 87.7266 91.6826C87.8724 91.6826 87.984 91.6439 88.0615 91.5664C88.139 91.4844 88.1937 91.3249 88.2256 91.0879H89.1143C89.1006 91.6074 88.9684 91.9971 88.7178 92.2568C88.4717 92.5166 88.1572 92.6465 87.7744 92.6465C87.4873 92.6465 87.109 92.5189 86.6396 92.2637C86.3343 92.0996 86.111 92.0176 85.9697 92.0176C85.8148 92.0176 85.6895 92.0723 85.5938 92.1816C85.4935 92.291 85.4456 92.4528 85.4502 92.667H84.541ZM96.6475 98.6621L97.9189 98.8193C97.7184 99.5622 97.347 100.139 96.8047 100.549C96.2624 100.959 95.5697 101.164 94.7266 101.164C93.6647 101.164 92.8216 100.838 92.1973 100.187C91.5775 99.5303 91.2676 98.612 91.2676 97.4316C91.2676 96.2103 91.582 95.2624 92.2109 94.5879C92.8398 93.9134 93.6556 93.5762 94.6582 93.5762C95.6289 93.5762 96.4219 93.9066 97.0371 94.5674C97.6523 95.2282 97.96 96.1579 97.96 97.3564C97.96 97.4294 97.9577 97.5387 97.9531 97.6846H92.5391C92.5846 98.4821 92.8102 99.0928 93.2158 99.5166C93.6214 99.9404 94.1273 100.152 94.7334 100.152C95.1846 100.152 95.5697 100.034 95.8887 99.7969C96.2077 99.5599 96.4606 99.1816 96.6475 98.6621ZM92.6074 96.6729H96.6611C96.6064 96.0622 96.4515 95.6042 96.1963 95.2988C95.8044 94.8249 95.2962 94.5879 94.6719 94.5879C94.1068 94.5879 93.6305 94.777 93.2432 95.1553C92.8604 95.5335 92.6484 96.0394 92.6074 96.6729ZM98.9785 98.833L100.195 98.6416C100.264 99.1292 100.453 99.5029 100.763 99.7627C101.077 100.022 101.515 100.152 102.075 100.152C102.64 100.152 103.06 100.038 103.333 99.8105C103.606 99.5781 103.743 99.307 103.743 98.9971C103.743 98.7191 103.622 98.5003 103.381 98.3408C103.212 98.2314 102.793 98.0924 102.123 97.9238C101.221 97.696 100.594 97.5 100.243 97.3359C99.8968 97.1673 99.6325 96.9372 99.4502 96.6455C99.2725 96.3493 99.1836 96.0234 99.1836 95.668C99.1836 95.3444 99.2565 95.0459 99.4023 94.7725C99.5527 94.4945 99.7555 94.2643 100.011 94.082C100.202 93.9408 100.462 93.8223 100.79 93.7266C101.123 93.6263 101.478 93.5762 101.856 93.5762C102.426 93.5762 102.925 93.6582 103.354 93.8223C103.786 93.9863 104.105 94.2096 104.311 94.4922C104.516 94.7702 104.657 95.1439 104.734 95.6133L103.531 95.7773C103.477 95.4036 103.317 95.112 103.053 94.9023C102.793 94.6927 102.424 94.5879 101.945 94.5879C101.38 94.5879 100.977 94.6813 100.735 94.8682C100.494 95.055 100.373 95.2738 100.373 95.5244C100.373 95.6839 100.423 95.8275 100.523 95.9551C100.624 96.0872 100.781 96.1966 100.995 96.2832C101.118 96.3288 101.48 96.4336 102.082 96.5977C102.952 96.8301 103.559 97.0215 103.9 97.1719C104.247 97.3177 104.518 97.5319 104.714 97.8145C104.91 98.097 105.008 98.4479 105.008 98.8672C105.008 99.2773 104.887 99.6647 104.646 100.029C104.409 100.389 104.064 100.67 103.613 100.87C103.162 101.066 102.652 101.164 102.082 101.164C101.139 101.164 100.419 100.968 99.9219 100.576C99.4297 100.184 99.1152 99.6032 98.9785 98.833Z" fill="#003C44"/>
<circle cx="53.5" cy="42.5" r="41.5" fill="#F5F5F5" stroke="#32BCAD" stroke-width="2"/>
<path d="M42.8889 54.1111H47.3333V43H42.8889V54.1111ZM60.6667 54.1111H65.1111V31.8889H60.6667V54.1111ZM51.7778 54.1111H56.2222V47.4444H51.7778V54.1111ZM51.7778 43H56.2222V38.5556H51.7778V43ZM38.4444 63C37.2222 63 36.1759 62.5648 35.3056 61.6944C34.4352 60.8241 34 59.7778 34 58.5556V27.4444C34 26.2222 34.4352 25.1759 35.3056 24.3056C36.1759 23.4352 37.2222 23 38.4444 23H69.5556C70.7778 23 71.8241 23.4352 72.6944 24.3056C73.5648 25.1759 74 26.2222 74 27.4444V58.5556C74 59.7778 73.5648 60.8241 72.6944 61.6944C71.8241 62.5648 70.7778 63 69.5556 63H38.4444ZM38.4444 58.5556H69.5556V27.4444H38.4444V58.5556Z" fill="#32BCAD"/>
</svg>
