<svg width="106" height="103" viewBox="0 0 106 103" fill="none" xmlns="http://www.w3.org/2000/svg">
<path d="M1.53223 100V89.9785H5.3125C5.97786 89.9785 6.486 90.0104 6.83691 90.0742C7.3291 90.1562 7.74154 90.3135 8.07422 90.5459C8.4069 90.7738 8.6735 91.0951 8.87402 91.5098C9.0791 91.9245 9.18164 92.3802 9.18164 92.877C9.18164 93.7292 8.91048 94.4515 8.36816 95.0439C7.82585 95.6318 6.84603 95.9258 5.42871 95.9258H2.8584V100H1.53223ZM2.8584 94.7432H5.44922C6.30599 94.7432 6.91439 94.5837 7.27441 94.2646C7.63444 93.9456 7.81445 93.4967 7.81445 92.918C7.81445 92.4987 7.70736 92.141 7.49316 91.8447C7.28353 91.5439 7.00553 91.3457 6.65918 91.25C6.43587 91.1908 6.02344 91.1611 5.42188 91.1611H2.8584V94.7432ZM15.4502 99.1045C14.9945 99.4919 14.5547 99.7653 14.1309 99.9248C13.7116 100.084 13.2604 100.164 12.7773 100.164C11.9798 100.164 11.3669 99.9704 10.9385 99.583C10.5101 99.1911 10.2959 98.6921 10.2959 98.0859C10.2959 97.7305 10.3757 97.4069 10.5352 97.1152C10.6992 96.819 10.9111 96.582 11.1709 96.4043C11.4352 96.2266 11.7314 96.0921 12.0596 96.001C12.3011 95.9372 12.6657 95.8757 13.1533 95.8164C14.1468 95.6979 14.8783 95.5566 15.3477 95.3926C15.3522 95.224 15.3545 95.1169 15.3545 95.0713C15.3545 94.57 15.2383 94.2168 15.0059 94.0117C14.6914 93.7337 14.2243 93.5947 13.6045 93.5947C13.0257 93.5947 12.5973 93.6973 12.3193 93.9023C12.0459 94.1029 11.8431 94.4606 11.7109 94.9756L10.5078 94.8115C10.6172 94.2965 10.7972 93.8818 11.0479 93.5674C11.2985 93.2484 11.6608 93.0046 12.1348 92.8359C12.6087 92.6628 13.1579 92.5762 13.7822 92.5762C14.402 92.5762 14.9056 92.6491 15.293 92.7949C15.6803 92.9408 15.9652 93.1253 16.1475 93.3486C16.3298 93.5674 16.4574 93.8454 16.5303 94.1826C16.5713 94.3923 16.5918 94.7705 16.5918 95.3174V96.958C16.5918 98.1019 16.6169 98.8265 16.667 99.1318C16.7217 99.4326 16.8265 99.722 16.9814 100H15.6963C15.5687 99.7448 15.4867 99.4463 15.4502 99.1045ZM15.3477 96.3564C14.901 96.5387 14.2311 96.6937 13.3379 96.8213C12.832 96.8942 12.4743 96.9762 12.2646 97.0674C12.055 97.1585 11.8932 97.293 11.7793 97.4707C11.6654 97.6439 11.6084 97.8376 11.6084 98.0518C11.6084 98.3799 11.7314 98.6533 11.9775 98.8721C12.2282 99.0908 12.5928 99.2002 13.0713 99.2002C13.5452 99.2002 13.9668 99.0977 14.3359 98.8926C14.7051 98.6829 14.9762 98.3981 15.1494 98.0381C15.2816 97.7601 15.3477 97.3499 15.3477 96.8076V96.3564ZM18.4922 100V92.7402H19.5996V93.8408C19.8822 93.3258 20.1419 92.9863 20.3789 92.8223C20.6204 92.6582 20.8848 92.5762 21.1719 92.5762C21.5866 92.5762 22.0081 92.7083 22.4365 92.9727L22.0127 94.1143C21.7119 93.9365 21.4111 93.8477 21.1104 93.8477C20.8415 93.8477 20.5999 93.9297 20.3857 94.0938C20.1715 94.2533 20.0189 94.4766 19.9277 94.7637C19.791 95.2012 19.7227 95.6797 19.7227 96.1992V100H18.4922ZM27.9053 99.1045C27.4495 99.4919 27.0098 99.7653 26.5859 99.9248C26.1667 100.084 25.7155 100.164 25.2324 100.164C24.4349 100.164 23.8219 99.9704 23.3936 99.583C22.9652 99.1911 22.751 98.6921 22.751 98.0859C22.751 97.7305 22.8307 97.4069 22.9902 97.1152C23.1543 96.819 23.3662 96.582 23.626 96.4043C23.8903 96.2266 24.1865 96.0921 24.5146 96.001C24.7562 95.9372 25.1208 95.8757 25.6084 95.8164C26.6019 95.6979 27.3333 95.5566 27.8027 95.3926C27.8073 95.224 27.8096 95.1169 27.8096 95.0713C27.8096 94.57 27.6934 94.2168 27.4609 94.0117C27.1465 93.7337 26.6794 93.5947 26.0596 93.5947C25.4808 93.5947 25.0524 93.6973 24.7744 93.9023C24.501 94.1029 24.2982 94.4606 24.166 94.9756L22.9629 94.8115C23.0723 94.2965 23.2523 93.8818 23.5029 93.5674C23.7536 93.2484 24.1159 93.0046 24.5898 92.8359C25.0638 92.6628 25.613 92.5762 26.2373 92.5762C26.8571 92.5762 27.3607 92.6491 27.748 92.7949C28.1354 92.9408 28.4202 93.1253 28.6025 93.3486C28.7848 93.5674 28.9124 93.8454 28.9854 94.1826C29.0264 94.3923 29.0469 94.7705 29.0469 95.3174V96.958C29.0469 98.1019 29.0719 98.8265 29.1221 99.1318C29.1768 99.4326 29.2816 99.722 29.4365 100H28.1514C28.0238 99.7448 27.9417 99.4463 27.9053 99.1045ZM27.8027 96.3564C27.3561 96.5387 26.6862 96.6937 25.793 96.8213C25.2871 96.8942 24.9294 96.9762 24.7197 97.0674C24.5101 97.1585 24.3483 97.293 24.2344 97.4707C24.1204 97.6439 24.0635 97.8376 24.0635 98.0518C24.0635 98.3799 24.1865 98.6533 24.4326 98.8721C24.6833 99.0908 25.0479 99.2002 25.5264 99.2002C26.0003 99.2002 26.4219 99.0977 26.791 98.8926C27.1602 98.6829 27.4313 98.3981 27.6045 98.0381C27.7367 97.7601 27.8027 97.3499 27.8027 96.8076V96.3564ZM30.9609 100V92.7402H32.0615V93.7588C32.2894 93.4033 32.5924 93.1185 32.9707 92.9043C33.349 92.6855 33.7796 92.5762 34.2627 92.5762C34.8005 92.5762 35.2402 92.6878 35.582 92.9111C35.9284 93.1344 36.1722 93.4466 36.3135 93.8477C36.8877 93 37.6351 92.5762 38.5557 92.5762C39.2757 92.5762 39.8294 92.7767 40.2168 93.1777C40.6042 93.5742 40.7979 94.1872 40.7979 95.0166V100H39.5742V95.4268C39.5742 94.9346 39.5332 94.5814 39.4512 94.3672C39.3737 94.1484 39.2301 93.973 39.0205 93.8408C38.8109 93.7087 38.5648 93.6426 38.2822 93.6426C37.7718 93.6426 37.348 93.8135 37.0107 94.1553C36.6735 94.4925 36.5049 95.0348 36.5049 95.7822V100H35.2744V95.2832C35.2744 94.7363 35.1742 94.3262 34.9736 94.0527C34.7731 93.7793 34.445 93.6426 33.9893 93.6426C33.6429 93.6426 33.3216 93.7337 33.0254 93.916C32.7337 94.0983 32.5218 94.3649 32.3896 94.7158C32.2575 95.0667 32.1914 95.5726 32.1914 96.2334V100H30.9609ZM47.5928 97.6621L48.8643 97.8193C48.6637 98.5622 48.2923 99.1387 47.75 99.5488C47.2077 99.959 46.515 100.164 45.6719 100.164C44.61 100.164 43.7669 99.8382 43.1426 99.1865C42.5228 98.5303 42.2129 97.612 42.2129 96.4316C42.2129 95.2103 42.5273 94.2624 43.1562 93.5879C43.7852 92.9134 44.6009 92.5762 45.6035 92.5762C46.5742 92.5762 47.3672 92.9066 47.9824 93.5674C48.5977 94.2282 48.9053 95.1579 48.9053 96.3564C48.9053 96.4294 48.903 96.5387 48.8984 96.6846H43.4844C43.5299 97.4821 43.7555 98.0928 44.1611 98.5166C44.5667 98.9404 45.0726 99.1523 45.6787 99.1523C46.1299 99.1523 46.515 99.0339 46.834 98.7969C47.153 98.5599 47.4059 98.1816 47.5928 97.6621ZM43.5527 95.6729H47.6064C47.5518 95.0622 47.3968 94.6042 47.1416 94.2988C46.7497 93.8249 46.2415 93.5879 45.6172 93.5879C45.0521 93.5879 44.5758 93.777 44.1885 94.1553C43.8057 94.5335 43.5938 95.0394 43.5527 95.6729ZM53.1025 98.8994L53.2803 99.9863C52.9339 100.059 52.624 100.096 52.3506 100.096C51.904 100.096 51.5576 100.025 51.3115 99.8838C51.0654 99.7425 50.8923 99.5579 50.792 99.3301C50.6917 99.0977 50.6416 98.6123 50.6416 97.874V93.6973H49.7393V92.7402H50.6416V90.9424L51.8652 90.2041V92.7402H53.1025V93.6973H51.8652V97.9424C51.8652 98.2933 51.8857 98.5189 51.9268 98.6191C51.9723 98.7194 52.043 98.7992 52.1387 98.8584C52.2389 98.9176 52.3802 98.9473 52.5625 98.9473C52.6992 98.9473 52.8792 98.9313 53.1025 98.8994ZM54.2988 100V92.7402H55.4062V93.8408C55.6888 93.3258 55.9486 92.9863 56.1855 92.8223C56.4271 92.6582 56.6914 92.5762 56.9785 92.5762C57.3932 92.5762 57.8148 92.7083 58.2432 92.9727L57.8193 94.1143C57.5186 93.9365 57.2178 93.8477 56.917 93.8477C56.6481 93.8477 56.4066 93.9297 56.1924 94.0938C55.9782 94.2533 55.8255 94.4766 55.7344 94.7637C55.5977 95.2012 55.5293 95.6797 55.5293 96.1992V100H54.2988ZM58.9814 91.3936V89.9785H60.2119V91.3936H58.9814ZM58.9814 100V92.7402H60.2119V100H58.9814ZM61.4424 100V99.002L66.0635 93.6973C65.5394 93.7246 65.0768 93.7383 64.6758 93.7383H61.7158V92.7402H67.6494V93.5537L63.7188 98.1611L62.96 99.002C63.5114 98.9609 64.0286 98.9404 64.5117 98.9404H67.8682V100H61.4424ZM73.8291 99.1045C73.3734 99.4919 72.9336 99.7653 72.5098 99.9248C72.0905 100.084 71.6393 100.164 71.1562 100.164C70.3587 100.164 69.7458 99.9704 69.3174 99.583C68.889 99.1911 68.6748 98.6921 68.6748 98.0859C68.6748 97.7305 68.7546 97.4069 68.9141 97.1152C69.0781 96.819 69.29 96.582 69.5498 96.4043C69.8141 96.2266 70.1104 96.0921 70.4385 96.001C70.68 95.9372 71.0446 95.8757 71.5322 95.8164C72.5257 95.6979 73.2572 95.5566 73.7266 95.3926C73.7311 95.224 73.7334 95.1169 73.7334 95.0713C73.7334 94.57 73.6172 94.2168 73.3848 94.0117C73.0703 93.7337 72.6032 93.5947 71.9834 93.5947C71.4046 93.5947 70.9762 93.6973 70.6982 93.9023C70.4248 94.1029 70.222 94.4606 70.0898 94.9756L68.8867 94.8115C68.9961 94.2965 69.1761 93.8818 69.4268 93.5674C69.6774 93.2484 70.0397 93.0046 70.5137 92.8359C70.9876 92.6628 71.5368 92.5762 72.1611 92.5762C72.7809 92.5762 73.2845 92.6491 73.6719 92.7949C74.0592 92.9408 74.3441 93.1253 74.5264 93.3486C74.7087 93.5674 74.8363 93.8454 74.9092 94.1826C74.9502 94.3923 74.9707 94.7705 74.9707 95.3174V96.958C74.9707 98.1019 74.9958 98.8265 75.0459 99.1318C75.1006 99.4326 75.2054 99.722 75.3604 100H74.0752C73.9476 99.7448 73.8656 99.4463 73.8291 99.1045ZM73.7266 96.3564C73.2799 96.5387 72.61 96.6937 71.7168 96.8213C71.2109 96.8942 70.8532 96.9762 70.6436 97.0674C70.4339 97.1585 70.2721 97.293 70.1582 97.4707C70.0443 97.6439 69.9873 97.8376 69.9873 98.0518C69.9873 98.3799 70.1104 98.6533 70.3564 98.8721C70.6071 99.0908 70.9717 99.2002 71.4502 99.2002C71.9242 99.2002 72.3457 99.0977 72.7148 98.8926C73.084 98.6829 73.3551 98.3981 73.5283 98.0381C73.6605 97.7601 73.7266 97.3499 73.7266 96.8076V96.3564ZM81.6221 97.3408L82.832 97.498C82.6999 98.332 82.3604 98.986 81.8135 99.46C81.2712 99.9294 80.6035 100.164 79.8105 100.164C78.8171 100.164 78.0173 99.8405 77.4111 99.1934C76.8096 98.5417 76.5088 97.6097 76.5088 96.3975C76.5088 95.6136 76.6387 94.9277 76.8984 94.3398C77.1582 93.752 77.5524 93.3122 78.0811 93.0205C78.6143 92.7243 79.193 92.5762 79.8174 92.5762C80.6058 92.5762 81.2507 92.7767 81.752 93.1777C82.2533 93.5742 82.5745 94.1393 82.7158 94.873L81.5195 95.0576C81.4056 94.57 81.2028 94.2031 80.9111 93.957C80.624 93.7109 80.2754 93.5879 79.8652 93.5879C79.2454 93.5879 78.7419 93.8112 78.3545 94.2578C77.9671 94.6999 77.7734 95.4017 77.7734 96.3633C77.7734 97.3385 77.9603 98.0472 78.334 98.4893C78.7077 98.9313 79.1953 99.1523 79.7969 99.1523C80.2799 99.1523 80.6833 99.0042 81.0068 98.708C81.3304 98.4118 81.5355 97.9561 81.6221 97.3408ZM78.7715 100.916L79.127 99.7061H80.043L79.8174 100.438C80.2048 100.483 80.4964 100.602 80.6924 100.793C80.8883 100.989 80.9863 101.205 80.9863 101.442C80.9863 101.784 80.8223 102.085 80.4941 102.345C80.166 102.609 79.6715 102.741 79.0107 102.741C78.637 102.741 78.3089 102.714 78.0264 102.659L78.1016 101.859C78.3932 101.878 78.6074 101.887 78.7441 101.887C79.1725 101.887 79.4733 101.827 79.6465 101.709C79.7786 101.618 79.8447 101.506 79.8447 101.374C79.8447 101.292 79.8174 101.219 79.7627 101.155C79.7126 101.091 79.6169 101.037 79.4756 100.991C79.3343 100.946 79.0996 100.921 78.7715 100.916ZM83.4268 96.3701C83.4268 95.0257 83.8005 94.0299 84.5479 93.3828C85.1722 92.8451 85.9333 92.5762 86.8311 92.5762C87.8291 92.5762 88.6449 92.9043 89.2783 93.5605C89.9118 94.2122 90.2285 95.1146 90.2285 96.2676C90.2285 97.2018 90.0872 97.9378 89.8047 98.4756C89.5267 99.0088 89.1188 99.4235 88.5811 99.7197C88.0479 100.016 87.4645 100.164 86.8311 100.164C85.8148 100.164 84.9922 99.8382 84.3633 99.1865C83.7389 98.5348 83.4268 97.596 83.4268 96.3701ZM84.6914 96.3701C84.6914 97.2998 84.8942 97.9971 85.2998 98.4619C85.7054 98.9222 86.2158 99.1523 86.8311 99.1523C87.4417 99.1523 87.9499 98.9199 88.3555 98.4551C88.7611 97.9902 88.9639 97.2816 88.9639 96.3291C88.9639 95.4313 88.7588 94.7523 88.3486 94.292C87.943 93.8271 87.4372 93.5947 86.8311 93.5947C86.2158 93.5947 85.7054 93.8249 85.2998 94.2852C84.8942 94.7454 84.6914 95.4404 84.6914 96.3701ZM84.541 91.667C84.5365 91.193 84.6663 90.8148 84.9307 90.5322C85.1904 90.2497 85.5231 90.1084 85.9287 90.1084C86.2113 90.1084 86.5964 90.2314 87.084 90.4775C87.3529 90.6143 87.5671 90.6826 87.7266 90.6826C87.8724 90.6826 87.984 90.6439 88.0615 90.5664C88.139 90.4844 88.1937 90.3249 88.2256 90.0879H89.1143C89.1006 90.6074 88.9684 90.9971 88.7178 91.2568C88.4717 91.5166 88.1572 91.6465 87.7744 91.6465C87.4873 91.6465 87.109 91.5189 86.6396 91.2637C86.3343 91.0996 86.111 91.0176 85.9697 91.0176C85.8148 91.0176 85.6895 91.0723 85.5938 91.1816C85.4935 91.291 85.4456 91.4528 85.4502 91.667H84.541ZM96.6475 97.6621L97.9189 97.8193C97.7184 98.5622 97.347 99.1387 96.8047 99.5488C96.2624 99.959 95.5697 100.164 94.7266 100.164C93.6647 100.164 92.8216 99.8382 92.1973 99.1865C91.5775 98.5303 91.2676 97.612 91.2676 96.4316C91.2676 95.2103 91.582 94.2624 92.2109 93.5879C92.8398 92.9134 93.6556 92.5762 94.6582 92.5762C95.6289 92.5762 96.4219 92.9066 97.0371 93.5674C97.6523 94.2282 97.96 95.1579 97.96 96.3564C97.96 96.4294 97.9577 96.5387 97.9531 96.6846H92.5391C92.5846 97.4821 92.8102 98.0928 93.2158 98.5166C93.6214 98.9404 94.1273 99.1523 94.7334 99.1523C95.1846 99.1523 95.5697 99.0339 95.8887 98.7969C96.2077 98.5599 96.4606 98.1816 96.6475 97.6621ZM92.6074 95.6729H96.6611C96.6064 95.0622 96.4515 94.6042 96.1963 94.2988C95.8044 93.8249 95.2962 93.5879 94.6719 93.5879C94.1068 93.5879 93.6305 93.777 93.2432 94.1553C92.8604 94.5335 92.6484 95.0394 92.6074 95.6729ZM98.9785 97.833L100.195 97.6416C100.264 98.1292 100.453 98.5029 100.763 98.7627C101.077 99.0225 101.515 99.1523 102.075 99.1523C102.64 99.1523 103.06 99.0384 103.333 98.8105C103.606 98.5781 103.743 98.307 103.743 97.9971C103.743 97.7191 103.622 97.5003 103.381 97.3408C103.212 97.2314 102.793 97.0924 102.123 96.9238C101.221 96.696 100.594 96.5 100.243 96.3359C99.8968 96.1673 99.6325 95.9372 99.4502 95.6455C99.2725 95.3493 99.1836 95.0234 99.1836 94.668C99.1836 94.3444 99.2565 94.0459 99.4023 93.7725C99.5527 93.4945 99.7555 93.2643 100.011 93.082C100.202 92.9408 100.462 92.8223 100.79 92.7266C101.123 92.6263 101.478 92.5762 101.856 92.5762C102.426 92.5762 102.925 92.6582 103.354 92.8223C103.786 92.9863 104.105 93.2096 104.311 93.4922C104.516 93.7702 104.657 94.1439 104.734 94.6133L103.531 94.7773C103.477 94.4036 103.317 94.112 103.053 93.9023C102.793 93.6927 102.424 93.5879 101.945 93.5879C101.38 93.5879 100.977 93.6813 100.735 93.8682C100.494 94.055 100.373 94.2738 100.373 94.5244C100.373 94.6839 100.423 94.8275 100.523 94.9551C100.624 95.0872 100.781 95.1966 100.995 95.2832C101.118 95.3288 101.48 95.4336 102.082 95.5977C102.952 95.8301 103.559 96.0215 103.9 96.1719C104.247 96.3177 104.518 96.5319 104.714 96.8145C104.91 97.097 105.008 97.4479 105.008 97.8672C105.008 98.2773 104.887 98.6647 104.646 99.0293C104.409 99.3893 104.064 99.6696 103.613 99.8701C103.162 100.066 102.652 100.164 102.082 100.164C101.139 100.164 100.419 99.9681 99.9219 99.5762C99.4297 99.1842 99.1152 98.6032 98.9785 97.833Z" fill="#003C44"/>
<circle cx="53.5" cy="41.5" r="41.5" fill="#32BCAD"/>
<path d="M42.8889 53.1111H47.3333V42H42.8889V53.1111ZM60.6667 53.1111H65.1111V30.8889H60.6667V53.1111ZM51.7778 53.1111H56.2222V46.4444H51.7778V53.1111ZM51.7778 42H56.2222V37.5556H51.7778V42ZM38.4444 62C37.2222 62 36.1759 61.5648 35.3056 60.6944C34.4352 59.8241 34 58.7778 34 57.5556V26.4444C34 25.2222 34.4352 24.1759 35.3056 23.3056C36.1759 22.4352 37.2222 22 38.4444 22H69.5556C70.7778 22 71.8241 22.4352 72.6944 23.3056C73.5648 24.1759 74 25.2222 74 26.4444V57.5556C74 58.7778 73.5648 59.8241 72.6944 60.6944C71.8241 61.5648 70.7778 62 69.5556 62H38.4444ZM38.4444 57.5556H69.5556V26.4444H38.4444V57.5556Z" fill="#F5F5F5"/>
</svg>
