<svg width="106" height="119" viewBox="0 0 106 119" fill="none" xmlns="http://www.w3.org/2000/svg">
<path d="M20.584 100V89.9785H24.3643C25.0296 89.9785 25.5378 90.0104 25.8887 90.0742C26.3809 90.1562 26.7933 90.3135 27.126 90.5459C27.4587 90.7738 27.7253 91.0951 27.9258 91.5098C28.1309 91.9245 28.2334 92.3802 28.2334 92.877C28.2334 93.7292 27.9622 94.4515 27.4199 95.0439C26.8776 95.6318 25.8978 95.9258 24.4805 95.9258H21.9102V100H20.584ZM21.9102 94.7432H24.501C25.3577 94.7432 25.9661 94.5837 26.3262 94.2646C26.6862 93.9456 26.8662 93.4967 26.8662 92.918C26.8662 92.4987 26.7591 92.141 26.5449 91.8447C26.3353 91.5439 26.0573 91.3457 25.7109 91.25C25.4876 91.1908 25.0752 91.1611 24.4736 91.1611H21.9102V94.7432ZM29.3066 96.3701C29.3066 95.0257 29.6803 94.0299 30.4277 93.3828C31.0521 92.8451 31.8132 92.5762 32.7109 92.5762C33.709 92.5762 34.5247 92.9043 35.1582 93.5605C35.7917 94.2122 36.1084 95.1146 36.1084 96.2676C36.1084 97.2018 35.9671 97.9378 35.6846 98.4756C35.4066 99.0088 34.9987 99.4235 34.4609 99.7197C33.9277 100.016 33.3444 100.164 32.7109 100.164C31.6947 100.164 30.8721 99.8382 30.2432 99.1865C29.6188 98.5348 29.3066 97.596 29.3066 96.3701ZM30.5713 96.3701C30.5713 97.2998 30.7741 97.9971 31.1797 98.4619C31.5853 98.9222 32.0957 99.1523 32.7109 99.1523C33.3216 99.1523 33.8298 98.9199 34.2354 98.4551C34.641 97.9902 34.8438 97.2816 34.8438 96.3291C34.8438 95.4313 34.6387 94.7523 34.2285 94.292C33.8229 93.8271 33.3171 93.5947 32.7109 93.5947C32.0957 93.5947 31.5853 93.8249 31.1797 94.2852C30.7741 94.7454 30.5713 95.4404 30.5713 96.3701ZM37.5576 100V92.7402H38.665V93.7725C39.1982 92.9749 39.9684 92.5762 40.9756 92.5762C41.4131 92.5762 41.8141 92.6559 42.1787 92.8154C42.5479 92.9704 42.8236 93.1755 43.0059 93.4307C43.1882 93.6859 43.3158 93.9889 43.3887 94.3398C43.4342 94.5677 43.457 94.9665 43.457 95.5361V100H42.2266V95.584C42.2266 95.0827 42.1787 94.709 42.083 94.4629C41.9873 94.2122 41.8164 94.014 41.5703 93.8682C41.3288 93.7178 41.0439 93.6426 40.7158 93.6426C40.1917 93.6426 39.7383 93.8089 39.3555 94.1416C38.9772 94.4743 38.7881 95.1055 38.7881 96.0352V100H37.5576ZM48.0371 98.8994L48.2148 99.9863C47.8685 100.059 47.5586 100.096 47.2852 100.096C46.8385 100.096 46.4922 100.025 46.2461 99.8838C46 99.7425 45.8268 99.5579 45.7266 99.3301C45.6263 99.0977 45.5762 98.6123 45.5762 97.874V93.6973H44.6738V92.7402H45.5762V90.9424L46.7998 90.2041V92.7402H48.0371V93.6973H46.7998V97.9424C46.7998 98.2933 46.8203 98.5189 46.8613 98.6191C46.9069 98.7194 46.9775 98.7992 47.0732 98.8584C47.1735 98.9176 47.3148 98.9473 47.4971 98.9473C47.6338 98.9473 47.8138 98.9313 48.0371 98.8994ZM48.7891 96.3701C48.7891 95.0257 49.1628 94.0299 49.9102 93.3828C50.5345 92.8451 51.2956 92.5762 52.1934 92.5762C53.1914 92.5762 54.0072 92.9043 54.6406 93.5605C55.2741 94.2122 55.5908 95.1146 55.5908 96.2676C55.5908 97.2018 55.4495 97.9378 55.167 98.4756C54.889 99.0088 54.4811 99.4235 53.9434 99.7197C53.4102 100.016 52.8268 100.164 52.1934 100.164C51.1771 100.164 50.3545 99.8382 49.7256 99.1865C49.1012 98.5348 48.7891 97.596 48.7891 96.3701ZM50.0537 96.3701C50.0537 97.2998 50.2565 97.9971 50.6621 98.4619C51.0677 98.9222 51.5781 99.1523 52.1934 99.1523C52.804 99.1523 53.3122 98.9199 53.7178 98.4551C54.1234 97.9902 54.3262 97.2816 54.3262 96.3291C54.3262 95.4313 54.1211 94.7523 53.7109 94.292C53.3053 93.8271 52.7995 93.5947 52.1934 93.5947C51.5781 93.5947 51.0677 93.8249 50.6621 94.2852C50.2565 94.7454 50.0537 95.4404 50.0537 96.3701ZM56.5479 97.833L57.7646 97.6416C57.833 98.1292 58.0221 98.5029 58.332 98.7627C58.6465 99.0225 59.084 99.1523 59.6445 99.1523C60.2096 99.1523 60.6289 99.0384 60.9023 98.8105C61.1758 98.5781 61.3125 98.307 61.3125 97.9971C61.3125 97.7191 61.1917 97.5003 60.9502 97.3408C60.7816 97.2314 60.3623 97.0924 59.6924 96.9238C58.79 96.696 58.1634 96.5 57.8125 96.3359C57.4661 96.1673 57.2018 95.9372 57.0195 95.6455C56.8418 95.3493 56.7529 95.0234 56.7529 94.668C56.7529 94.3444 56.8258 94.0459 56.9717 93.7725C57.1221 93.4945 57.3249 93.2643 57.5801 93.082C57.7715 92.9408 58.0312 92.8223 58.3594 92.7266C58.6921 92.6263 59.0475 92.5762 59.4258 92.5762C59.9954 92.5762 60.4945 92.6582 60.9229 92.8223C61.3558 92.9863 61.6748 93.2096 61.8799 93.4922C62.085 93.7702 62.2262 94.1439 62.3037 94.6133L61.1006 94.7773C61.0459 94.4036 60.8864 94.112 60.6221 93.9023C60.3623 93.6927 59.9932 93.5879 59.5146 93.5879C58.9495 93.5879 58.5462 93.6813 58.3047 93.8682C58.0632 94.055 57.9424 94.2738 57.9424 94.5244C57.9424 94.6839 57.9925 94.8275 58.0928 94.9551C58.193 95.0872 58.3503 95.1966 58.5645 95.2832C58.6875 95.3288 59.0498 95.4336 59.6514 95.5977C60.5218 95.8301 61.1279 96.0215 61.4697 96.1719C61.8161 96.3177 62.0872 96.5319 62.2832 96.8145C62.4792 97.097 62.5771 97.4479 62.5771 97.8672C62.5771 98.2773 62.4564 98.6647 62.2148 99.0293C61.9779 99.3893 61.6338 99.6696 61.1826 99.8701C60.7314 100.066 60.221 100.164 59.6514 100.164C58.708 100.164 57.988 99.9681 57.4912 99.5762C56.999 99.1842 56.6846 98.6032 56.5479 97.833ZM72.6465 100V99.084C72.1862 99.804 71.5094 100.164 70.6162 100.164C70.0374 100.164 69.5042 100.005 69.0166 99.6855C68.5335 99.3665 68.1576 98.9222 67.8887 98.3525C67.6243 97.7783 67.4922 97.1198 67.4922 96.377C67.4922 95.6523 67.613 94.9961 67.8545 94.4082C68.096 93.8158 68.4583 93.3623 68.9414 93.0479C69.4245 92.7334 69.9645 92.5762 70.5615 92.5762C70.999 92.5762 71.3887 92.6696 71.7305 92.8564C72.0723 93.0387 72.3503 93.278 72.5645 93.5742V89.9785H73.7881V100H72.6465ZM68.7568 96.377C68.7568 97.3066 68.9528 98.0016 69.3447 98.4619C69.7367 98.9222 70.1992 99.1523 70.7324 99.1523C71.2702 99.1523 71.7259 98.9336 72.0996 98.4961C72.4779 98.054 72.667 97.3818 72.667 96.4795C72.667 95.486 72.4756 94.7568 72.0928 94.292C71.71 93.8271 71.2383 93.5947 70.6777 93.5947C70.1309 93.5947 69.6729 93.818 69.3037 94.2646C68.9391 94.7113 68.7568 95.4154 68.7568 96.377ZM80.6992 97.6621L81.9707 97.8193C81.7702 98.5622 81.3988 99.1387 80.8564 99.5488C80.3141 99.959 79.6214 100.164 78.7783 100.164C77.7165 100.164 76.8734 99.8382 76.249 99.1865C75.6292 98.5303 75.3193 97.612 75.3193 96.4316C75.3193 95.2103 75.6338 94.2624 76.2627 93.5879C76.8916 92.9134 77.7074 92.5762 78.71 92.5762C79.6807 92.5762 80.4736 92.9066 81.0889 93.5674C81.7041 94.2282 82.0117 95.1579 82.0117 96.3564C82.0117 96.4294 82.0094 96.5387 82.0049 96.6846H76.5908C76.6364 97.4821 76.862 98.0928 77.2676 98.5166C77.6732 98.9404 78.179 99.1523 78.7852 99.1523C79.2363 99.1523 79.6214 99.0339 79.9404 98.7969C80.2594 98.5599 80.5124 98.1816 80.6992 97.6621ZM76.6592 95.6729H80.7129C80.6582 95.0622 80.5033 94.6042 80.248 94.2988C79.8561 93.8249 79.348 93.5879 78.7236 93.5879C78.1585 93.5879 77.6823 93.777 77.2949 94.1553C76.9121 94.5335 76.7002 95.0394 76.6592 95.6729ZM13.6455 116L17.4941 105.979H18.9229L23.0244 116H21.5137L20.3447 112.965H16.1543L15.0537 116H13.6455ZM16.5371 111.885H19.9346L18.8887 109.109C18.5697 108.266 18.3327 107.574 18.1777 107.031C18.0501 107.674 17.8701 108.312 17.6377 108.945L16.5371 111.885ZM26.6133 114.899L26.791 115.986C26.4447 116.059 26.1348 116.096 25.8613 116.096C25.4147 116.096 25.0684 116.025 24.8223 115.884C24.5762 115.743 24.403 115.558 24.3027 115.33C24.2025 115.098 24.1523 114.612 24.1523 113.874V109.697H23.25V108.74H24.1523V106.942L25.376 106.204V108.74H26.6133V109.697H25.376V113.942C25.376 114.293 25.3965 114.519 25.4375 114.619C25.4831 114.719 25.5537 114.799 25.6494 114.858C25.7497 114.918 25.891 114.947 26.0732 114.947C26.21 114.947 26.39 114.931 26.6133 114.899ZM32.793 113.662L34.0645 113.819C33.8639 114.562 33.4925 115.139 32.9502 115.549C32.4079 115.959 31.7152 116.164 30.8721 116.164C29.8102 116.164 28.9671 115.838 28.3428 115.187C27.723 114.53 27.4131 113.612 27.4131 112.432C27.4131 111.21 27.7275 110.262 28.3564 109.588C28.9854 108.913 29.8011 108.576 30.8037 108.576C31.7744 108.576 32.5674 108.907 33.1826 109.567C33.7979 110.228 34.1055 111.158 34.1055 112.356C34.1055 112.429 34.1032 112.539 34.0986 112.685H28.6846C28.7301 113.482 28.9557 114.093 29.3613 114.517C29.7669 114.94 30.2728 115.152 30.8789 115.152C31.3301 115.152 31.7152 115.034 32.0342 114.797C32.3532 114.56 32.6061 114.182 32.793 113.662ZM28.7529 111.673H32.8066C32.752 111.062 32.597 110.604 32.3418 110.299C31.9499 109.825 31.4417 109.588 30.8174 109.588C30.2523 109.588 29.776 109.777 29.3887 110.155C29.0059 110.534 28.7939 111.039 28.7529 111.673ZM35.6162 116V108.74H36.7236V109.772C37.2568 108.975 38.027 108.576 39.0342 108.576C39.4717 108.576 39.8727 108.656 40.2373 108.815C40.6064 108.97 40.8822 109.175 41.0645 109.431C41.2467 109.686 41.3743 109.989 41.4473 110.34C41.4928 110.568 41.5156 110.966 41.5156 111.536V116H40.2852V111.584C40.2852 111.083 40.2373 110.709 40.1416 110.463C40.0459 110.212 39.875 110.014 39.6289 109.868C39.3874 109.718 39.1025 109.643 38.7744 109.643C38.2503 109.643 37.7969 109.809 37.4141 110.142C37.0358 110.474 36.8467 111.105 36.8467 112.035V116H35.6162ZM48.1191 116V115.084C47.6589 115.804 46.9821 116.164 46.0889 116.164C45.5101 116.164 44.9769 116.005 44.4893 115.686C44.0062 115.367 43.6302 114.922 43.3613 114.353C43.097 113.778 42.9648 113.12 42.9648 112.377C42.9648 111.652 43.0856 110.996 43.3271 110.408C43.5687 109.816 43.931 109.362 44.4141 109.048C44.8971 108.733 45.4372 108.576 46.0342 108.576C46.4717 108.576 46.8613 108.67 47.2031 108.856C47.5449 109.039 47.8229 109.278 48.0371 109.574V105.979H49.2607V116H48.1191ZM44.2295 112.377C44.2295 113.307 44.4255 114.002 44.8174 114.462C45.2093 114.922 45.6719 115.152 46.2051 115.152C46.7428 115.152 47.1986 114.934 47.5723 114.496C47.9505 114.054 48.1396 113.382 48.1396 112.479C48.1396 111.486 47.9482 110.757 47.5654 110.292C47.1826 109.827 46.7109 109.595 46.1504 109.595C45.6035 109.595 45.1455 109.818 44.7764 110.265C44.4118 110.711 44.2295 111.415 44.2295 112.377ZM51.209 107.394V105.979H52.4395V107.394H51.209ZM51.209 116V108.74H52.4395V116H51.209ZM54.3193 116V108.74H55.4199V109.759C55.6478 109.403 55.9508 109.118 56.3291 108.904C56.7074 108.686 57.138 108.576 57.6211 108.576C58.1589 108.576 58.5986 108.688 58.9404 108.911C59.2868 109.134 59.5306 109.447 59.6719 109.848C60.2461 109 60.9935 108.576 61.9141 108.576C62.6341 108.576 63.1878 108.777 63.5752 109.178C63.9626 109.574 64.1562 110.187 64.1562 111.017V116H62.9326V111.427C62.9326 110.935 62.8916 110.581 62.8096 110.367C62.7321 110.148 62.5885 109.973 62.3789 109.841C62.1693 109.709 61.9232 109.643 61.6406 109.643C61.1302 109.643 60.7064 109.813 60.3691 110.155C60.0319 110.493 59.8633 111.035 59.8633 111.782V116H58.6328V111.283C58.6328 110.736 58.5326 110.326 58.332 110.053C58.1315 109.779 57.8034 109.643 57.3477 109.643C57.0013 109.643 56.68 109.734 56.3838 109.916C56.0921 110.098 55.8802 110.365 55.748 110.716C55.6159 111.067 55.5498 111.573 55.5498 112.233V116H54.3193ZM70.9512 113.662L72.2227 113.819C72.0221 114.562 71.6507 115.139 71.1084 115.549C70.5661 115.959 69.8734 116.164 69.0303 116.164C67.9684 116.164 67.1253 115.838 66.501 115.187C65.8812 114.53 65.5713 113.612 65.5713 112.432C65.5713 111.21 65.8857 110.262 66.5146 109.588C67.1436 108.913 67.9593 108.576 68.9619 108.576C69.9326 108.576 70.7256 108.907 71.3408 109.567C71.9561 110.228 72.2637 111.158 72.2637 112.356C72.2637 112.429 72.2614 112.539 72.2568 112.685H66.8428C66.8883 113.482 67.1139 114.093 67.5195 114.517C67.9251 114.94 68.431 115.152 69.0371 115.152C69.4883 115.152 69.8734 115.034 70.1924 114.797C70.5114 114.56 70.7643 114.182 70.9512 113.662ZM66.9111 111.673H70.9648C70.9102 111.062 70.7552 110.604 70.5 110.299C70.1081 109.825 69.5999 109.588 68.9756 109.588C68.4105 109.588 67.9342 109.777 67.5469 110.155C67.1641 110.534 66.9521 111.039 66.9111 111.673ZM73.7744 116V108.74H74.8818V109.772C75.415 108.975 76.1852 108.576 77.1924 108.576C77.6299 108.576 78.0309 108.656 78.3955 108.815C78.7646 108.97 79.0404 109.175 79.2227 109.431C79.4049 109.686 79.5326 109.989 79.6055 110.34C79.651 110.568 79.6738 110.966 79.6738 111.536V116H78.4434V111.584C78.4434 111.083 78.3955 110.709 78.2998 110.463C78.2041 110.212 78.0332 110.014 77.7871 109.868C77.5456 109.718 77.2607 109.643 76.9326 109.643C76.4085 109.643 75.9551 109.809 75.5723 110.142C75.194 110.474 75.0049 111.105 75.0049 112.035V116H73.7744ZM84.2539 114.899L84.4316 115.986C84.0853 116.059 83.7754 116.096 83.502 116.096C83.0553 116.096 82.709 116.025 82.4629 115.884C82.2168 115.743 82.0436 115.558 81.9434 115.33C81.8431 115.098 81.793 114.612 81.793 113.874V109.697H80.8906V108.74H81.793V106.942L83.0166 106.204V108.74H84.2539V109.697H83.0166V113.942C83.0166 114.293 83.0371 114.519 83.0781 114.619C83.1237 114.719 83.1943 114.799 83.29 114.858C83.3903 114.918 83.5316 114.947 83.7139 114.947C83.8506 114.947 84.0306 114.931 84.2539 114.899ZM85.0059 112.37C85.0059 111.026 85.3796 110.03 86.127 109.383C86.7513 108.845 87.5124 108.576 88.4102 108.576C89.4082 108.576 90.224 108.904 90.8574 109.561C91.4909 110.212 91.8076 111.115 91.8076 112.268C91.8076 113.202 91.6663 113.938 91.3838 114.476C91.1058 115.009 90.6979 115.424 90.1602 115.72C89.627 116.016 89.0436 116.164 88.4102 116.164C87.3939 116.164 86.5713 115.838 85.9424 115.187C85.318 114.535 85.0059 113.596 85.0059 112.37ZM86.2705 112.37C86.2705 113.3 86.4733 113.997 86.8789 114.462C87.2845 114.922 87.7949 115.152 88.4102 115.152C89.0208 115.152 89.529 114.92 89.9346 114.455C90.3402 113.99 90.543 113.282 90.543 112.329C90.543 111.431 90.3379 110.752 89.9277 110.292C89.5221 109.827 89.0163 109.595 88.4102 109.595C87.7949 109.595 87.2845 109.825 86.8789 110.285C86.4733 110.745 86.2705 111.44 86.2705 112.37Z" fill="#003C44"/>
<circle cx="52.5" cy="41.5" r="41.5" fill="#32BCAD"/>
<path d="M32.5 27V22H72.5V27H32.5ZM32.5 62V47H30V42L32.5 29.5H72.5L75 42V47H72.5V62H67.5V47H57.5V62H32.5ZM37.5 57H52.5V47H37.5V57ZM35.125 42H69.875L68.375 34.5H36.625L35.125 42Z" fill="#F5F5F5"/>
</svg>
