<svg width="106" height="120" viewBox="0 0 106 120" fill="none" xmlns="http://www.w3.org/2000/svg">
<path d="M20.584 101V90.9785H24.3643C25.0296 90.9785 25.5378 91.0104 25.8887 91.0742C26.3809 91.1562 26.7933 91.3135 27.126 91.5459C27.4587 91.7738 27.7253 92.0951 27.9258 92.5098C28.1309 92.9245 28.2334 93.3802 28.2334 93.877C28.2334 94.7292 27.9622 95.4515 27.4199 96.0439C26.8776 96.6318 25.8978 96.9258 24.4805 96.9258H21.9102V101H20.584ZM21.9102 95.7432H24.501C25.3577 95.7432 25.9661 95.5837 26.3262 95.2646C26.6862 94.9456 26.8662 94.4967 26.8662 93.918C26.8662 93.4987 26.7591 93.141 26.5449 92.8447C26.3353 92.5439 26.0573 92.3457 25.7109 92.25C25.4876 92.1908 25.0752 92.1611 24.4736 92.1611H21.9102V95.7432ZM29.3066 97.3701C29.3066 96.0257 29.6803 95.0299 30.4277 94.3828C31.0521 93.8451 31.8132 93.5762 32.7109 93.5762C33.709 93.5762 34.5247 93.9043 35.1582 94.5605C35.7917 95.2122 36.1084 96.1146 36.1084 97.2676C36.1084 98.2018 35.9671 98.9378 35.6846 99.4756C35.4066 100.009 34.9987 100.424 34.4609 100.72C33.9277 101.016 33.3444 101.164 32.7109 101.164C31.6947 101.164 30.8721 100.838 30.2432 100.187C29.6188 99.5348 29.3066 98.596 29.3066 97.3701ZM30.5713 97.3701C30.5713 98.2998 30.7741 98.9971 31.1797 99.4619C31.5853 99.9222 32.0957 100.152 32.7109 100.152C33.3216 100.152 33.8298 99.9199 34.2354 99.4551C34.641 98.9902 34.8438 98.2816 34.8438 97.3291C34.8438 96.4313 34.6387 95.7523 34.2285 95.292C33.8229 94.8271 33.3171 94.5947 32.7109 94.5947C32.0957 94.5947 31.5853 94.8249 31.1797 95.2852C30.7741 95.7454 30.5713 96.4404 30.5713 97.3701ZM37.5576 101V93.7402H38.665V94.7725C39.1982 93.9749 39.9684 93.5762 40.9756 93.5762C41.4131 93.5762 41.8141 93.6559 42.1787 93.8154C42.5479 93.9704 42.8236 94.1755 43.0059 94.4307C43.1882 94.6859 43.3158 94.9889 43.3887 95.3398C43.4342 95.5677 43.457 95.9665 43.457 96.5361V101H42.2266V96.584C42.2266 96.0827 42.1787 95.709 42.083 95.4629C41.9873 95.2122 41.8164 95.014 41.5703 94.8682C41.3288 94.7178 41.0439 94.6426 40.7158 94.6426C40.1917 94.6426 39.7383 94.8089 39.3555 95.1416C38.9772 95.4743 38.7881 96.1055 38.7881 97.0352V101H37.5576ZM48.0371 99.8994L48.2148 100.986C47.8685 101.059 47.5586 101.096 47.2852 101.096C46.8385 101.096 46.4922 101.025 46.2461 100.884C46 100.743 45.8268 100.558 45.7266 100.33C45.6263 100.098 45.5762 99.6123 45.5762 98.874V94.6973H44.6738V93.7402H45.5762V91.9424L46.7998 91.2041V93.7402H48.0371V94.6973H46.7998V98.9424C46.7998 99.2933 46.8203 99.5189 46.8613 99.6191C46.9069 99.7194 46.9775 99.7992 47.0732 99.8584C47.1735 99.9176 47.3148 99.9473 47.4971 99.9473C47.6338 99.9473 47.8138 99.9313 48.0371 99.8994ZM48.7891 97.3701C48.7891 96.0257 49.1628 95.0299 49.9102 94.3828C50.5345 93.8451 51.2956 93.5762 52.1934 93.5762C53.1914 93.5762 54.0072 93.9043 54.6406 94.5605C55.2741 95.2122 55.5908 96.1146 55.5908 97.2676C55.5908 98.2018 55.4495 98.9378 55.167 99.4756C54.889 100.009 54.4811 100.424 53.9434 100.72C53.4102 101.016 52.8268 101.164 52.1934 101.164C51.1771 101.164 50.3545 100.838 49.7256 100.187C49.1012 99.5348 48.7891 98.596 48.7891 97.3701ZM50.0537 97.3701C50.0537 98.2998 50.2565 98.9971 50.6621 99.4619C51.0677 99.9222 51.5781 100.152 52.1934 100.152C52.804 100.152 53.3122 99.9199 53.7178 99.4551C54.1234 98.9902 54.3262 98.2816 54.3262 97.3291C54.3262 96.4313 54.1211 95.7523 53.7109 95.292C53.3053 94.8271 52.7995 94.5947 52.1934 94.5947C51.5781 94.5947 51.0677 94.8249 50.6621 95.2852C50.2565 95.7454 50.0537 96.4404 50.0537 97.3701ZM56.5479 98.833L57.7646 98.6416C57.833 99.1292 58.0221 99.5029 58.332 99.7627C58.6465 100.022 59.084 100.152 59.6445 100.152C60.2096 100.152 60.6289 100.038 60.9023 99.8105C61.1758 99.5781 61.3125 99.307 61.3125 98.9971C61.3125 98.7191 61.1917 98.5003 60.9502 98.3408C60.7816 98.2314 60.3623 98.0924 59.6924 97.9238C58.79 97.696 58.1634 97.5 57.8125 97.3359C57.4661 97.1673 57.2018 96.9372 57.0195 96.6455C56.8418 96.3493 56.7529 96.0234 56.7529 95.668C56.7529 95.3444 56.8258 95.0459 56.9717 94.7725C57.1221 94.4945 57.3249 94.2643 57.5801 94.082C57.7715 93.9408 58.0312 93.8223 58.3594 93.7266C58.6921 93.6263 59.0475 93.5762 59.4258 93.5762C59.9954 93.5762 60.4945 93.6582 60.9229 93.8223C61.3558 93.9863 61.6748 94.2096 61.8799 94.4922C62.085 94.7702 62.2262 95.1439 62.3037 95.6133L61.1006 95.7773C61.0459 95.4036 60.8864 95.112 60.6221 94.9023C60.3623 94.6927 59.9932 94.5879 59.5146 94.5879C58.9495 94.5879 58.5462 94.6813 58.3047 94.8682C58.0632 95.055 57.9424 95.2738 57.9424 95.5244C57.9424 95.6839 57.9925 95.8275 58.0928 95.9551C58.193 96.0872 58.3503 96.1966 58.5645 96.2832C58.6875 96.3288 59.0498 96.4336 59.6514 96.5977C60.5218 96.8301 61.1279 97.0215 61.4697 97.1719C61.8161 97.3177 62.0872 97.5319 62.2832 97.8145C62.4792 98.097 62.5771 98.4479 62.5771 98.8672C62.5771 99.2773 62.4564 99.6647 62.2148 100.029C61.9779 100.389 61.6338 100.67 61.1826 100.87C60.7314 101.066 60.221 101.164 59.6514 101.164C58.708 101.164 57.988 100.968 57.4912 100.576C56.999 100.184 56.6846 99.6032 56.5479 98.833ZM72.6465 101V100.084C72.1862 100.804 71.5094 101.164 70.6162 101.164C70.0374 101.164 69.5042 101.005 69.0166 100.686C68.5335 100.367 68.1576 99.9222 67.8887 99.3525C67.6243 98.7783 67.4922 98.1198 67.4922 97.377C67.4922 96.6523 67.613 95.9961 67.8545 95.4082C68.096 94.8158 68.4583 94.3623 68.9414 94.0479C69.4245 93.7334 69.9645 93.5762 70.5615 93.5762C70.999 93.5762 71.3887 93.6696 71.7305 93.8564C72.0723 94.0387 72.3503 94.278 72.5645 94.5742V90.9785H73.7881V101H72.6465ZM68.7568 97.377C68.7568 98.3066 68.9528 99.0016 69.3447 99.4619C69.7367 99.9222 70.1992 100.152 70.7324 100.152C71.2702 100.152 71.7259 99.9336 72.0996 99.4961C72.4779 99.054 72.667 98.3818 72.667 97.4795C72.667 96.486 72.4756 95.7568 72.0928 95.292C71.71 94.8271 71.2383 94.5947 70.6777 94.5947C70.1309 94.5947 69.6729 94.818 69.3037 95.2646C68.9391 95.7113 68.7568 96.4154 68.7568 97.377ZM80.6992 98.6621L81.9707 98.8193C81.7702 99.5622 81.3988 100.139 80.8564 100.549C80.3141 100.959 79.6214 101.164 78.7783 101.164C77.7165 101.164 76.8734 100.838 76.249 100.187C75.6292 99.5303 75.3193 98.612 75.3193 97.4316C75.3193 96.2103 75.6338 95.2624 76.2627 94.5879C76.8916 93.9134 77.7074 93.5762 78.71 93.5762C79.6807 93.5762 80.4736 93.9066 81.0889 94.5674C81.7041 95.2282 82.0117 96.1579 82.0117 97.3564C82.0117 97.4294 82.0094 97.5387 82.0049 97.6846H76.5908C76.6364 98.4821 76.862 99.0928 77.2676 99.5166C77.6732 99.9404 78.179 100.152 78.7852 100.152C79.2363 100.152 79.6214 100.034 79.9404 99.7969C80.2594 99.5599 80.5124 99.1816 80.6992 98.6621ZM76.6592 96.6729H80.7129C80.6582 96.0622 80.5033 95.6042 80.248 95.2988C79.8561 94.8249 79.348 94.5879 78.7236 94.5879C78.1585 94.5879 77.6823 94.777 77.2949 95.1553C76.9121 95.5335 76.7002 96.0394 76.6592 96.6729ZM13.6455 117L17.4941 106.979H18.9229L23.0244 117H21.5137L20.3447 113.965H16.1543L15.0537 117H13.6455ZM16.5371 112.885H19.9346L18.8887 110.109C18.5697 109.266 18.3327 108.574 18.1777 108.031C18.0501 108.674 17.8701 109.312 17.6377 109.945L16.5371 112.885ZM26.6133 115.899L26.791 116.986C26.4447 117.059 26.1348 117.096 25.8613 117.096C25.4147 117.096 25.0684 117.025 24.8223 116.884C24.5762 116.743 24.403 116.558 24.3027 116.33C24.2025 116.098 24.1523 115.612 24.1523 114.874V110.697H23.25V109.74H24.1523V107.942L25.376 107.204V109.74H26.6133V110.697H25.376V114.942C25.376 115.293 25.3965 115.519 25.4375 115.619C25.4831 115.719 25.5537 115.799 25.6494 115.858C25.7497 115.918 25.891 115.947 26.0732 115.947C26.21 115.947 26.39 115.931 26.6133 115.899ZM32.793 114.662L34.0645 114.819C33.8639 115.562 33.4925 116.139 32.9502 116.549C32.4079 116.959 31.7152 117.164 30.8721 117.164C29.8102 117.164 28.9671 116.838 28.3428 116.187C27.723 115.53 27.4131 114.612 27.4131 113.432C27.4131 112.21 27.7275 111.262 28.3564 110.588C28.9854 109.913 29.8011 109.576 30.8037 109.576C31.7744 109.576 32.5674 109.907 33.1826 110.567C33.7979 111.228 34.1055 112.158 34.1055 113.356C34.1055 113.429 34.1032 113.539 34.0986 113.685H28.6846C28.7301 114.482 28.9557 115.093 29.3613 115.517C29.7669 115.94 30.2728 116.152 30.8789 116.152C31.3301 116.152 31.7152 116.034 32.0342 115.797C32.3532 115.56 32.6061 115.182 32.793 114.662ZM28.7529 112.673H32.8066C32.752 112.062 32.597 111.604 32.3418 111.299C31.9499 110.825 31.4417 110.588 30.8174 110.588C30.2523 110.588 29.776 110.777 29.3887 111.155C29.0059 111.534 28.7939 112.039 28.7529 112.673ZM35.6162 117V109.74H36.7236V110.772C37.2568 109.975 38.027 109.576 39.0342 109.576C39.4717 109.576 39.8727 109.656 40.2373 109.815C40.6064 109.97 40.8822 110.175 41.0645 110.431C41.2467 110.686 41.3743 110.989 41.4473 111.34C41.4928 111.568 41.5156 111.966 41.5156 112.536V117H40.2852V112.584C40.2852 112.083 40.2373 111.709 40.1416 111.463C40.0459 111.212 39.875 111.014 39.6289 110.868C39.3874 110.718 39.1025 110.643 38.7744 110.643C38.2503 110.643 37.7969 110.809 37.4141 111.142C37.0358 111.474 36.8467 112.105 36.8467 113.035V117H35.6162ZM48.1191 117V116.084C47.6589 116.804 46.9821 117.164 46.0889 117.164C45.5101 117.164 44.9769 117.005 44.4893 116.686C44.0062 116.367 43.6302 115.922 43.3613 115.353C43.097 114.778 42.9648 114.12 42.9648 113.377C42.9648 112.652 43.0856 111.996 43.3271 111.408C43.5687 110.816 43.931 110.362 44.4141 110.048C44.8971 109.733 45.4372 109.576 46.0342 109.576C46.4717 109.576 46.8613 109.67 47.2031 109.856C47.5449 110.039 47.8229 110.278 48.0371 110.574V106.979H49.2607V117H48.1191ZM44.2295 113.377C44.2295 114.307 44.4255 115.002 44.8174 115.462C45.2093 115.922 45.6719 116.152 46.2051 116.152C46.7428 116.152 47.1986 115.934 47.5723 115.496C47.9505 115.054 48.1396 114.382 48.1396 113.479C48.1396 112.486 47.9482 111.757 47.5654 111.292C47.1826 110.827 46.7109 110.595 46.1504 110.595C45.6035 110.595 45.1455 110.818 44.7764 111.265C44.4118 111.711 44.2295 112.415 44.2295 113.377ZM51.209 108.394V106.979H52.4395V108.394H51.209ZM51.209 117V109.74H52.4395V117H51.209ZM54.3193 117V109.74H55.4199V110.759C55.6478 110.403 55.9508 110.118 56.3291 109.904C56.7074 109.686 57.138 109.576 57.6211 109.576C58.1589 109.576 58.5986 109.688 58.9404 109.911C59.2868 110.134 59.5306 110.447 59.6719 110.848C60.2461 110 60.9935 109.576 61.9141 109.576C62.6341 109.576 63.1878 109.777 63.5752 110.178C63.9626 110.574 64.1562 111.187 64.1562 112.017V117H62.9326V112.427C62.9326 111.935 62.8916 111.581 62.8096 111.367C62.7321 111.148 62.5885 110.973 62.3789 110.841C62.1693 110.709 61.9232 110.643 61.6406 110.643C61.1302 110.643 60.7064 110.813 60.3691 111.155C60.0319 111.493 59.8633 112.035 59.8633 112.782V117H58.6328V112.283C58.6328 111.736 58.5326 111.326 58.332 111.053C58.1315 110.779 57.8034 110.643 57.3477 110.643C57.0013 110.643 56.68 110.734 56.3838 110.916C56.0921 111.098 55.8802 111.365 55.748 111.716C55.6159 112.067 55.5498 112.573 55.5498 113.233V117H54.3193ZM70.9512 114.662L72.2227 114.819C72.0221 115.562 71.6507 116.139 71.1084 116.549C70.5661 116.959 69.8734 117.164 69.0303 117.164C67.9684 117.164 67.1253 116.838 66.501 116.187C65.8812 115.53 65.5713 114.612 65.5713 113.432C65.5713 112.21 65.8857 111.262 66.5146 110.588C67.1436 109.913 67.9593 109.576 68.9619 109.576C69.9326 109.576 70.7256 109.907 71.3408 110.567C71.9561 111.228 72.2637 112.158 72.2637 113.356C72.2637 113.429 72.2614 113.539 72.2568 113.685H66.8428C66.8883 114.482 67.1139 115.093 67.5195 115.517C67.9251 115.94 68.431 116.152 69.0371 116.152C69.4883 116.152 69.8734 116.034 70.1924 115.797C70.5114 115.56 70.7643 115.182 70.9512 114.662ZM66.9111 112.673H70.9648C70.9102 112.062 70.7552 111.604 70.5 111.299C70.1081 110.825 69.5999 110.588 68.9756 110.588C68.4105 110.588 67.9342 110.777 67.5469 111.155C67.1641 111.534 66.9521 112.039 66.9111 112.673ZM73.7744 117V109.74H74.8818V110.772C75.415 109.975 76.1852 109.576 77.1924 109.576C77.6299 109.576 78.0309 109.656 78.3955 109.815C78.7646 109.97 79.0404 110.175 79.2227 110.431C79.4049 110.686 79.5326 110.989 79.6055 111.34C79.651 111.568 79.6738 111.966 79.6738 112.536V117H78.4434V112.584C78.4434 112.083 78.3955 111.709 78.2998 111.463C78.2041 111.212 78.0332 111.014 77.7871 110.868C77.5456 110.718 77.2607 110.643 76.9326 110.643C76.4085 110.643 75.9551 110.809 75.5723 111.142C75.194 111.474 75.0049 112.105 75.0049 113.035V117H73.7744ZM84.2539 115.899L84.4316 116.986C84.0853 117.059 83.7754 117.096 83.502 117.096C83.0553 117.096 82.709 117.025 82.4629 116.884C82.2168 116.743 82.0436 116.558 81.9434 116.33C81.8431 116.098 81.793 115.612 81.793 114.874V110.697H80.8906V109.74H81.793V107.942L83.0166 107.204V109.74H84.2539V110.697H83.0166V114.942C83.0166 115.293 83.0371 115.519 83.0781 115.619C83.1237 115.719 83.1943 115.799 83.29 115.858C83.3903 115.918 83.5316 115.947 83.7139 115.947C83.8506 115.947 84.0306 115.931 84.2539 115.899ZM85.0059 113.37C85.0059 112.026 85.3796 111.03 86.127 110.383C86.7513 109.845 87.5124 109.576 88.4102 109.576C89.4082 109.576 90.224 109.904 90.8574 110.561C91.4909 111.212 91.8076 112.115 91.8076 113.268C91.8076 114.202 91.6663 114.938 91.3838 115.476C91.1058 116.009 90.6979 116.424 90.1602 116.72C89.627 117.016 89.0436 117.164 88.4102 117.164C87.3939 117.164 86.5713 116.838 85.9424 116.187C85.318 115.535 85.0059 114.596 85.0059 113.37ZM86.2705 113.37C86.2705 114.3 86.4733 114.997 86.8789 115.462C87.2845 115.922 87.7949 116.152 88.4102 116.152C89.0208 116.152 89.529 115.92 89.9346 115.455C90.3402 114.99 90.543 114.282 90.543 113.329C90.543 112.431 90.3379 111.752 89.9277 111.292C89.5221 110.827 89.0163 110.595 88.4102 110.595C87.7949 110.595 87.2845 110.825 86.8789 111.285C86.4733 111.745 86.2705 112.44 86.2705 113.37Z" fill="#003C44"/>
<circle cx="52.5" cy="42.5" r="41.5" fill="#F5F5F5" stroke="#32BCAD" stroke-width="2"/>
<path d="M32.5 28V23H72.5V28H32.5ZM32.5 63V48H30V43L32.5 30.5H72.5L75 43V48H72.5V63H67.5V48H57.5V63H32.5ZM37.5 58H52.5V48H37.5V58ZM35.125 43H69.875L68.375 35.5H36.625L35.125 43Z" fill="#32BCAD"/>
</svg>
