<svg width="106" height="104" viewBox="0 0 106 104" fill="none" xmlns="http://www.w3.org/2000/svg">
<path d="M20.2969 101V92.1611H16.9951V90.9785H24.9385V92.1611H21.623V101H20.2969ZM25.6152 101V93.7402H26.7227V94.8408C27.0052 94.3258 27.265 93.9863 27.502 93.8223C27.7435 93.6582 28.0078 93.5762 28.2949 93.5762C28.7096 93.5762 29.1312 93.7083 29.5596 93.9727L29.1357 95.1143C28.835 94.9365 28.5342 94.8477 28.2334 94.8477C27.9645 94.8477 27.723 94.9297 27.5088 95.0938C27.2946 95.2533 27.1419 95.4766 27.0508 95.7637C26.9141 96.2012 26.8457 96.6797 26.8457 97.1992V101H25.6152ZM35.0283 100.104C34.5726 100.492 34.1328 100.765 33.709 100.925C33.2897 101.084 32.8385 101.164 32.3555 101.164C31.5579 101.164 30.945 100.97 30.5166 100.583C30.0882 100.191 29.874 99.6921 29.874 99.0859C29.874 98.7305 29.9538 98.4069 30.1133 98.1152C30.2773 97.819 30.4893 97.582 30.749 97.4043C31.0133 97.2266 31.3096 97.0921 31.6377 97.001C31.8792 96.9372 32.2438 96.8757 32.7314 96.8164C33.7249 96.6979 34.4564 96.5566 34.9258 96.3926C34.9303 96.224 34.9326 96.1169 34.9326 96.0713C34.9326 95.57 34.8164 95.2168 34.584 95.0117C34.2695 94.7337 33.8024 94.5947 33.1826 94.5947C32.6038 94.5947 32.1755 94.6973 31.8975 94.9023C31.624 95.1029 31.4212 95.4606 31.2891 95.9756L30.0859 95.8115C30.1953 95.2965 30.3753 94.8818 30.626 94.5674C30.8766 94.2484 31.2389 94.0046 31.7129 93.8359C32.1868 93.6628 32.736 93.5762 33.3604 93.5762C33.9801 93.5762 34.4837 93.6491 34.8711 93.7949C35.2585 93.9408 35.5433 94.1253 35.7256 94.3486C35.9079 94.5674 36.0355 94.8454 36.1084 95.1826C36.1494 95.3923 36.1699 95.7705 36.1699 96.3174V97.958C36.1699 99.1019 36.195 99.8265 36.2451 100.132C36.2998 100.433 36.4046 100.722 36.5596 101H35.2744C35.1468 100.745 35.0648 100.446 35.0283 100.104ZM34.9258 97.3564C34.4792 97.5387 33.8092 97.6937 32.916 97.8213C32.4102 97.8942 32.0524 97.9762 31.8428 98.0674C31.6331 98.1585 31.4714 98.293 31.3574 98.4707C31.2435 98.6439 31.1865 98.8376 31.1865 99.0518C31.1865 99.3799 31.3096 99.6533 31.5557 99.8721C31.8063 100.091 32.1709 100.2 32.6494 100.2C33.1234 100.2 33.5449 100.098 33.9141 99.8926C34.2832 99.6829 34.5544 99.3981 34.7275 99.0381C34.8597 98.7601 34.9258 98.3499 34.9258 97.8076V97.3564ZM38.084 101V93.7402H39.1914V94.7725C39.7246 93.9749 40.4948 93.5762 41.502 93.5762C41.9395 93.5762 42.3405 93.6559 42.7051 93.8154C43.0742 93.9704 43.3499 94.1755 43.5322 94.4307C43.7145 94.6859 43.8421 94.9889 43.915 95.3398C43.9606 95.5677 43.9834 95.9665 43.9834 96.5361V101H42.7529V96.584C42.7529 96.0827 42.7051 95.709 42.6094 95.4629C42.5137 95.2122 42.3428 95.014 42.0967 94.8682C41.8551 94.7178 41.5703 94.6426 41.2422 94.6426C40.7181 94.6426 40.2646 94.8089 39.8818 95.1416C39.5036 95.4743 39.3145 96.1055 39.3145 97.0352V101H38.084ZM45.3848 98.833L46.6016 98.6416C46.6699 99.1292 46.859 99.5029 47.1689 99.7627C47.4834 100.022 47.9209 100.152 48.4814 100.152C49.0465 100.152 49.4658 100.038 49.7393 99.8105C50.0127 99.5781 50.1494 99.307 50.1494 98.9971C50.1494 98.7191 50.0286 98.5003 49.7871 98.3408C49.6185 98.2314 49.1992 98.0924 48.5293 97.9238C47.627 97.696 47.0003 97.5 46.6494 97.3359C46.3031 97.1673 46.0387 96.9372 45.8564 96.6455C45.6787 96.3493 45.5898 96.0234 45.5898 95.668C45.5898 95.3444 45.6628 95.0459 45.8086 94.7725C45.959 94.4945 46.1618 94.2643 46.417 94.082C46.6084 93.9408 46.8682 93.8223 47.1963 93.7266C47.529 93.6263 47.8844 93.5762 48.2627 93.5762C48.8324 93.5762 49.3314 93.6582 49.7598 93.8223C50.1927 93.9863 50.5117 94.2096 50.7168 94.4922C50.9219 94.7702 51.0632 95.1439 51.1406 95.6133L49.9375 95.7773C49.8828 95.4036 49.7233 95.112 49.459 94.9023C49.1992 94.6927 48.8301 94.5879 48.3516 94.5879C47.7865 94.5879 47.3831 94.6813 47.1416 94.8682C46.9001 95.055 46.7793 95.2738 46.7793 95.5244C46.7793 95.6839 46.8294 95.8275 46.9297 95.9551C47.0299 96.0872 47.1872 96.1966 47.4014 96.2832C47.5244 96.3288 47.8867 96.4336 48.4883 96.5977C49.3587 96.8301 49.9648 97.0215 50.3066 97.1719C50.653 97.3177 50.9242 97.5319 51.1201 97.8145C51.3161 98.097 51.4141 98.4479 51.4141 98.8672C51.4141 99.2773 51.2933 99.6647 51.0518 100.029C50.8148 100.389 50.4707 100.67 50.0195 100.87C49.5684 101.066 49.0579 101.164 48.4883 101.164C47.5449 101.164 46.8249 100.968 46.3281 100.576C45.8359 100.184 45.5215 99.6032 45.3848 98.833ZM57.6143 100.104C57.1585 100.492 56.7188 100.765 56.2949 100.925C55.8757 101.084 55.4245 101.164 54.9414 101.164C54.1439 101.164 53.5309 100.97 53.1025 100.583C52.6742 100.191 52.46 99.6921 52.46 99.0859C52.46 98.7305 52.5397 98.4069 52.6992 98.1152C52.8633 97.819 53.0752 97.582 53.335 97.4043C53.5993 97.2266 53.8955 97.0921 54.2236 97.001C54.4652 96.9372 54.8298 96.8757 55.3174 96.8164C56.3109 96.6979 57.0423 96.5566 57.5117 96.3926C57.5163 96.224 57.5186 96.1169 57.5186 96.0713C57.5186 95.57 57.4023 95.2168 57.1699 95.0117C56.8555 94.7337 56.3883 94.5947 55.7686 94.5947C55.1898 94.5947 54.7614 94.6973 54.4834 94.9023C54.21 95.1029 54.0072 95.4606 53.875 95.9756L52.6719 95.8115C52.7812 95.2965 52.9613 94.8818 53.2119 94.5674C53.4626 94.2484 53.8249 94.0046 54.2988 93.8359C54.7728 93.6628 55.3219 93.5762 55.9463 93.5762C56.5661 93.5762 57.0697 93.6491 57.457 93.7949C57.8444 93.9408 58.1292 94.1253 58.3115 94.3486C58.4938 94.5674 58.6214 94.8454 58.6943 95.1826C58.7354 95.3923 58.7559 95.7705 58.7559 96.3174V97.958C58.7559 99.1019 58.7809 99.8265 58.8311 100.132C58.8857 100.433 58.9906 100.722 59.1455 101H57.8604C57.7327 100.745 57.6507 100.446 57.6143 100.104ZM57.5117 97.3564C57.0651 97.5387 56.3952 97.6937 55.502 97.8213C54.9961 97.8942 54.6383 97.9762 54.4287 98.0674C54.2191 98.1585 54.0573 98.293 53.9434 98.4707C53.8294 98.6439 53.7725 98.8376 53.7725 99.0518C53.7725 99.3799 53.8955 99.6533 54.1416 99.8721C54.3923 100.091 54.7568 100.2 55.2354 100.2C55.7093 100.2 56.1309 100.098 56.5 99.8926C56.8691 99.6829 57.1403 99.3981 57.3135 99.0381C57.4456 98.7601 57.5117 98.3499 57.5117 97.8076V97.3564ZM65.4072 98.3408L66.6172 98.498C66.485 99.332 66.1455 99.986 65.5986 100.46C65.0563 100.929 64.3887 101.164 63.5957 101.164C62.6022 101.164 61.8024 100.84 61.1963 100.193C60.5947 99.5417 60.2939 98.6097 60.2939 97.3975C60.2939 96.6136 60.4238 95.9277 60.6836 95.3398C60.9434 94.752 61.3376 94.3122 61.8662 94.0205C62.3994 93.7243 62.9782 93.5762 63.6025 93.5762C64.391 93.5762 65.0358 93.7767 65.5371 94.1777C66.0384 94.5742 66.3597 95.1393 66.501 95.873L65.3047 96.0576C65.1908 95.57 64.988 95.2031 64.6963 94.957C64.4092 94.7109 64.0605 94.5879 63.6504 94.5879C63.0306 94.5879 62.527 94.8112 62.1396 95.2578C61.7523 95.6999 61.5586 96.4017 61.5586 97.3633C61.5586 98.3385 61.7454 99.0472 62.1191 99.4893C62.4928 99.9313 62.9805 100.152 63.582 100.152C64.0651 100.152 64.4684 100.004 64.792 99.708C65.1156 99.4118 65.3206 98.9561 65.4072 98.3408ZM62.5566 101.916L62.9121 100.706H63.8281L63.6025 101.438C63.9899 101.483 64.2816 101.602 64.4775 101.793C64.6735 101.989 64.7715 102.205 64.7715 102.442C64.7715 102.784 64.6074 103.085 64.2793 103.345C63.9512 103.609 63.4567 103.741 62.7959 103.741C62.4222 103.741 62.0941 103.714 61.8115 103.659L61.8867 102.859C62.1784 102.878 62.3926 102.887 62.5293 102.887C62.9577 102.887 63.2585 102.827 63.4316 102.709C63.5638 102.618 63.6299 102.506 63.6299 102.374C63.6299 102.292 63.6025 102.219 63.5479 102.155C63.4977 102.091 63.402 102.037 63.2607 101.991C63.1195 101.946 62.8848 101.921 62.5566 101.916ZM67.2119 97.3701C67.2119 96.0257 67.5856 95.0299 68.333 94.3828C68.9574 93.8451 69.7184 93.5762 70.6162 93.5762C71.6143 93.5762 72.43 93.9043 73.0635 94.5605C73.6969 95.2122 74.0137 96.1146 74.0137 97.2676C74.0137 98.2018 73.8724 98.9378 73.5898 99.4756C73.3118 100.009 72.904 100.424 72.3662 100.72C71.833 101.016 71.2497 101.164 70.6162 101.164C69.5999 101.164 68.7773 100.838 68.1484 100.187C67.5241 99.5348 67.2119 98.596 67.2119 97.3701ZM68.4766 97.3701C68.4766 98.2998 68.6794 98.9971 69.085 99.4619C69.4906 99.9222 70.001 100.152 70.6162 100.152C71.2269 100.152 71.735 99.9199 72.1406 99.4551C72.5462 98.9902 72.749 98.2816 72.749 97.3291C72.749 96.4313 72.5439 95.7523 72.1338 95.292C71.7282 94.8271 71.2223 94.5947 70.6162 94.5947C70.001 94.5947 69.4906 94.8249 69.085 95.2852C68.6794 95.7454 68.4766 96.4404 68.4766 97.3701ZM68.3262 92.667C68.3216 92.193 68.4515 91.8148 68.7158 91.5322C68.9756 91.2497 69.3083 91.1084 69.7139 91.1084C69.9964 91.1084 70.3815 91.2314 70.8691 91.4775C71.138 91.6143 71.3522 91.6826 71.5117 91.6826C71.6576 91.6826 71.7692 91.6439 71.8467 91.5664C71.9242 91.4844 71.9788 91.3249 72.0107 91.0879H72.8994C72.8857 91.6074 72.7536 91.9971 72.5029 92.2568C72.2568 92.5166 71.9424 92.6465 71.5596 92.6465C71.2725 92.6465 70.8942 92.5189 70.4248 92.2637C70.1195 92.0996 69.8962 92.0176 69.7549 92.0176C69.5999 92.0176 69.4746 92.0723 69.3789 92.1816C69.2786 92.291 69.2308 92.4528 69.2354 92.667H68.3262ZM80.4326 98.6621L81.7041 98.8193C81.5036 99.5622 81.1322 100.139 80.5898 100.549C80.0475 100.959 79.3548 101.164 78.5117 101.164C77.4499 101.164 76.6068 100.838 75.9824 100.187C75.3626 99.5303 75.0527 98.612 75.0527 97.4316C75.0527 96.2103 75.3672 95.2624 75.9961 94.5879C76.625 93.9134 77.4408 93.5762 78.4434 93.5762C79.4141 93.5762 80.207 93.9066 80.8223 94.5674C81.4375 95.2282 81.7451 96.1579 81.7451 97.3564C81.7451 97.4294 81.7428 97.5387 81.7383 97.6846H76.3242C76.3698 98.4821 76.5954 99.0928 77.001 99.5166C77.4066 99.9404 77.9124 100.152 78.5186 100.152C78.9697 100.152 79.3548 100.034 79.6738 99.7969C79.9928 99.5599 80.2458 99.1816 80.4326 98.6621ZM76.3926 96.6729H80.4463C80.3916 96.0622 80.2367 95.6042 79.9814 95.2988C79.5895 94.8249 79.0814 94.5879 78.457 94.5879C77.8919 94.5879 77.4157 94.777 77.0283 95.1553C76.6455 95.5335 76.4336 96.0394 76.3926 96.6729ZM82.7637 98.833L83.9805 98.6416C84.0488 99.1292 84.238 99.5029 84.5479 99.7627C84.8623 100.022 85.2998 100.152 85.8604 100.152C86.4255 100.152 86.8447 100.038 87.1182 99.8105C87.3916 99.5781 87.5283 99.307 87.5283 98.9971C87.5283 98.7191 87.4076 98.5003 87.166 98.3408C86.9974 98.2314 86.5781 98.0924 85.9082 97.9238C85.0059 97.696 84.3792 97.5 84.0283 97.3359C83.682 97.1673 83.4176 96.9372 83.2354 96.6455C83.0576 96.3493 82.9688 96.0234 82.9688 95.668C82.9688 95.3444 83.0417 95.0459 83.1875 94.7725C83.3379 94.4945 83.5407 94.2643 83.7959 94.082C83.9873 93.9408 84.2471 93.8223 84.5752 93.7266C84.9079 93.6263 85.2633 93.5762 85.6416 93.5762C86.2113 93.5762 86.7103 93.6582 87.1387 93.8223C87.5716 93.9863 87.8906 94.2096 88.0957 94.4922C88.3008 94.7702 88.4421 95.1439 88.5195 95.6133L87.3164 95.7773C87.2617 95.4036 87.1022 95.112 86.8379 94.9023C86.5781 94.6927 86.209 94.5879 85.7305 94.5879C85.1654 94.5879 84.762 94.6813 84.5205 94.8682C84.279 95.055 84.1582 95.2738 84.1582 95.5244C84.1582 95.6839 84.2083 95.8275 84.3086 95.9551C84.4089 96.0872 84.5661 96.1966 84.7803 96.2832C84.9033 96.3288 85.2656 96.4336 85.8672 96.5977C86.7376 96.8301 87.3438 97.0215 87.6855 97.1719C88.0319 97.3177 88.3031 97.5319 88.499 97.8145C88.695 98.097 88.793 98.4479 88.793 98.8672C88.793 99.2773 88.6722 99.6647 88.4307 100.029C88.1937 100.389 87.8496 100.67 87.3984 100.87C86.9473 101.066 86.4368 101.164 85.8672 101.164C84.9238 101.164 84.2038 100.968 83.707 100.576C83.2148 100.184 82.9004 99.6032 82.7637 98.833Z" fill="#003C44"/>
<circle cx="53.5" cy="42.5" r="41.5" fill="#F5F5F5" stroke="#32BCAD" stroke-width="2"/>
<path d="M53 61.3333C49.8889 61.3333 47.0278 60.625 44.4167 59.2083C41.8056 57.7917 39.6667 55.9028 38 53.5417V58H34.6667V48H44.6667V51.3333H40.5417C41.875 53.3333 43.6319 54.9444 45.8125 56.1667C47.9931 57.3889 50.3889 58 53 58C55.0833 58 57.0347 57.6042 58.8542 56.8125C60.6736 56.0208 62.2569 54.9514 63.6042 53.6042C64.9514 52.2569 66.0208 50.6736 66.8125 48.8542C67.6042 47.0347 68 45.0833 68 43H71.3333C71.3333 45.5278 70.8542 47.9028 69.8958 50.125C68.9375 52.3472 67.625 54.2917 65.9583 55.9583C64.2917 57.625 62.3472 58.9375 60.125 59.8958C57.9028 60.8542 55.5278 61.3333 53 61.3333ZM51.5 54.6667V52.5C50.1944 52.1944 49.1319 51.6319 48.3125 50.8125C47.4931 49.9931 46.8889 48.9167 46.5 47.5833L49.25 46.5C49.5833 47.6389 50.1042 48.4931 50.8125 49.0625C51.5208 49.6319 52.3333 49.9167 53.25 49.9167C54.1667 49.9167 54.9514 49.7014 55.6042 49.2708C56.2569 48.8403 56.5833 48.1667 56.5833 47.25C56.5833 46.4444 56.2431 45.7917 55.5625 45.2917C54.8819 44.7917 53.6667 44.2222 51.9167 43.5833C50.2778 43 49.0764 42.3056 48.3125 41.5C47.5486 40.6944 47.1667 39.6389 47.1667 38.3333C47.1667 37.1944 47.5625 36.1597 48.3542 35.2292C49.1458 34.2986 50.2222 33.6944 51.5833 33.4167V31.3333H54.5V33.4167C55.5 33.5 56.4097 33.9028 57.2292 34.625C58.0486 35.3472 58.6111 36.1944 58.9167 37.1667L56.25 38.25C56.0278 37.6111 55.6667 37.0764 55.1667 36.6458C54.6667 36.2153 53.9722 36 53.0833 36C52.1111 36 51.3681 36.2083 50.8542 36.625C50.3403 37.0417 50.0833 37.6111 50.0833 38.3333C50.0833 39.0556 50.4028 39.625 51.0417 40.0417C51.6806 40.4583 52.8333 40.9444 54.5 41.5C56.5 42.2222 57.8333 43.0694 58.5 44.0417C59.1667 45.0139 59.5 46.0833 59.5 47.25C59.5 48.0556 59.3611 48.7639 59.0833 49.375C58.8056 49.9861 58.4375 50.5069 57.9792 50.9375C57.5208 51.3681 56.9861 51.7153 56.375 51.9792C55.7639 52.2431 55.1111 52.4444 54.4167 52.5833V54.6667H51.5ZM34.6667 43C34.6667 40.4722 35.1458 38.0972 36.1042 35.875C37.0625 33.6528 38.375 31.7083 40.0417 30.0417C41.7083 28.375 43.6528 27.0625 45.875 26.1042C48.0972 25.1458 50.4722 24.6667 53 24.6667C56.1111 24.6667 58.9722 25.375 61.5833 26.7917C64.1944 28.2083 66.3333 30.0972 68 32.4583V28H71.3333V38H61.3333V34.6667H65.4583C64.125 32.6667 62.3681 31.0556 60.1875 29.8333C58.0069 28.6111 55.6111 28 53 28C50.9167 28 48.9653 28.3958 47.1458 29.1875C45.3264 29.9792 43.7431 31.0486 42.3958 32.3958C41.0486 33.7431 39.9792 35.3264 39.1875 37.1458C38.3958 38.9653 38 40.9167 38 43H34.6667Z" fill="#32BCAD"/>
</svg>
