<svg width="106" height="103" viewBox="0 0 106 103" fill="none" xmlns="http://www.w3.org/2000/svg">
<path d="M5.49707 100V91.1611H2.19531V89.9785H10.1387V91.1611H6.82324V100H5.49707ZM10.8154 100V92.7402H11.9229V93.8408C12.2054 93.3258 12.4652 92.9863 12.7021 92.8223C12.9437 92.6582 13.208 92.5762 13.4951 92.5762C13.9098 92.5762 14.3314 92.7083 14.7598 92.9727L14.3359 94.1143C14.0352 93.9365 13.7344 93.8477 13.4336 93.8477C13.1647 93.8477 12.9232 93.9297 12.709 94.0938C12.4948 94.2533 12.3421 94.4766 12.251 94.7637C12.1143 95.2012 12.0459 95.6797 12.0459 96.1992V100H10.8154ZM20.2285 99.1045C19.7728 99.4919 19.333 99.7653 18.9092 99.9248C18.4899 100.084 18.0387 100.164 17.5557 100.164C16.7581 100.164 16.1452 99.9704 15.7168 99.583C15.2884 99.1911 15.0742 98.6921 15.0742 98.0859C15.0742 97.7305 15.154 97.4069 15.3135 97.1152C15.4775 96.819 15.6895 96.582 15.9492 96.4043C16.2135 96.2266 16.5098 96.0921 16.8379 96.001C17.0794 95.9372 17.444 95.8757 17.9316 95.8164C18.9251 95.6979 19.6566 95.5566 20.126 95.3926C20.1305 95.224 20.1328 95.1169 20.1328 95.0713C20.1328 94.57 20.0166 94.2168 19.7842 94.0117C19.4697 93.7337 19.0026 93.5947 18.3828 93.5947C17.804 93.5947 17.3757 93.6973 17.0977 93.9023C16.8242 94.1029 16.6214 94.4606 16.4893 94.9756L15.2861 94.8115C15.3955 94.2965 15.5755 93.8818 15.8262 93.5674C16.0768 93.2484 16.4391 93.0046 16.9131 92.8359C17.387 92.6628 17.9362 92.5762 18.5605 92.5762C19.1803 92.5762 19.6839 92.6491 20.0713 92.7949C20.4587 92.9408 20.7435 93.1253 20.9258 93.3486C21.1081 93.5674 21.2357 93.8454 21.3086 94.1826C21.3496 94.3923 21.3701 94.7705 21.3701 95.3174V96.958C21.3701 98.1019 21.3952 98.8265 21.4453 99.1318C21.5 99.4326 21.6048 99.722 21.7598 100H20.4746C20.347 99.7448 20.265 99.4463 20.2285 99.1045ZM20.126 96.3564C19.6794 96.5387 19.0094 96.6937 18.1162 96.8213C17.6104 96.8942 17.2526 96.9762 17.043 97.0674C16.8333 97.1585 16.6715 97.293 16.5576 97.4707C16.4437 97.6439 16.3867 97.8376 16.3867 98.0518C16.3867 98.3799 16.5098 98.6533 16.7559 98.8721C17.0065 99.0908 17.3711 99.2002 17.8496 99.2002C18.3236 99.2002 18.7451 99.0977 19.1143 98.8926C19.4834 98.6829 19.7546 98.3981 19.9277 98.0381C20.0599 97.7601 20.126 97.3499 20.126 96.8076V96.3564ZM23.2842 100V92.7402H24.3916V93.7725C24.9248 92.9749 25.695 92.5762 26.7021 92.5762C27.1396 92.5762 27.5407 92.6559 27.9053 92.8154C28.2744 92.9704 28.5501 93.1755 28.7324 93.4307C28.9147 93.6859 29.0423 93.9889 29.1152 94.3398C29.1608 94.5677 29.1836 94.9665 29.1836 95.5361V100H27.9531V95.584C27.9531 95.0827 27.9053 94.709 27.8096 94.4629C27.7139 94.2122 27.543 94.014 27.2969 93.8682C27.0553 93.7178 26.7705 93.6426 26.4424 93.6426C25.9183 93.6426 25.4648 93.8089 25.082 94.1416C24.7038 94.4743 24.5146 95.1055 24.5146 96.0352V100H23.2842ZM30.585 97.833L31.8018 97.6416C31.8701 98.1292 32.0592 98.5029 32.3691 98.7627C32.6836 99.0225 33.1211 99.1523 33.6816 99.1523C34.2467 99.1523 34.666 99.0384 34.9395 98.8105C35.2129 98.5781 35.3496 98.307 35.3496 97.9971C35.3496 97.7191 35.2288 97.5003 34.9873 97.3408C34.8187 97.2314 34.3994 97.0924 33.7295 96.9238C32.8271 96.696 32.2005 96.5 31.8496 96.3359C31.5033 96.1673 31.2389 95.9372 31.0566 95.6455C30.8789 95.3493 30.79 95.0234 30.79 94.668C30.79 94.3444 30.863 94.0459 31.0088 93.7725C31.1592 93.4945 31.362 93.2643 31.6172 93.082C31.8086 92.9408 32.0684 92.8223 32.3965 92.7266C32.7292 92.6263 33.0846 92.5762 33.4629 92.5762C34.0326 92.5762 34.5316 92.6582 34.96 92.8223C35.3929 92.9863 35.7119 93.2096 35.917 93.4922C36.1221 93.7702 36.2633 94.1439 36.3408 94.6133L35.1377 94.7773C35.083 94.4036 34.9235 94.112 34.6592 93.9023C34.3994 93.6927 34.0303 93.5879 33.5518 93.5879C32.9867 93.5879 32.5833 93.6813 32.3418 93.8682C32.1003 94.055 31.9795 94.2738 31.9795 94.5244C31.9795 94.6839 32.0296 94.8275 32.1299 94.9551C32.2301 95.0872 32.3874 95.1966 32.6016 95.2832C32.7246 95.3288 33.0869 95.4336 33.6885 95.5977C34.5589 95.8301 35.165 96.0215 35.5068 96.1719C35.8532 96.3177 36.1243 96.5319 36.3203 96.8145C36.5163 97.097 36.6143 97.4479 36.6143 97.8672C36.6143 98.2773 36.4935 98.6647 36.252 99.0293C36.015 99.3893 35.6709 99.6696 35.2197 99.8701C34.7686 100.066 34.2581 100.164 33.6885 100.164C32.7451 100.164 32.0251 99.9681 31.5283 99.5762C31.0361 99.1842 30.7217 98.6032 30.585 97.833ZM38.0771 102.782V92.7402H39.1982V93.6836C39.4626 93.3145 39.7611 93.0387 40.0938 92.8564C40.4264 92.6696 40.8298 92.5762 41.3037 92.5762C41.9235 92.5762 42.4704 92.7357 42.9443 93.0547C43.4183 93.3737 43.776 93.8249 44.0176 94.4082C44.2591 94.987 44.3799 95.6227 44.3799 96.3154C44.3799 97.0583 44.2454 97.7282 43.9766 98.3252C43.7122 98.9176 43.3249 99.3734 42.8145 99.6924C42.3086 100.007 41.7754 100.164 41.2148 100.164C40.8047 100.164 40.4355 100.077 40.1074 99.9043C39.7839 99.7311 39.5173 99.5124 39.3076 99.248V102.782H38.0771ZM39.1914 96.4111C39.1914 97.3454 39.3805 98.0358 39.7588 98.4824C40.137 98.929 40.5951 99.1523 41.1328 99.1523C41.6797 99.1523 42.1468 98.9222 42.5342 98.4619C42.9261 97.9971 43.1221 97.2793 43.1221 96.3086C43.1221 95.3835 42.9307 94.6908 42.5479 94.2305C42.1696 93.7702 41.7161 93.54 41.1875 93.54C40.6634 93.54 40.1986 93.7861 39.793 94.2783C39.3919 94.766 39.1914 95.4769 39.1914 96.4111ZM45.4121 96.3701C45.4121 95.0257 45.7858 94.0299 46.5332 93.3828C47.1576 92.8451 47.9186 92.5762 48.8164 92.5762C49.8145 92.5762 50.6302 92.9043 51.2637 93.5605C51.8971 94.2122 52.2139 95.1146 52.2139 96.2676C52.2139 97.2018 52.0726 97.9378 51.79 98.4756C51.512 99.0088 51.1042 99.4235 50.5664 99.7197C50.0332 100.016 49.4499 100.164 48.8164 100.164C47.8001 100.164 46.9775 99.8382 46.3486 99.1865C45.7243 98.5348 45.4121 97.596 45.4121 96.3701ZM46.6768 96.3701C46.6768 97.2998 46.8796 97.9971 47.2852 98.4619C47.6908 98.9222 48.2012 99.1523 48.8164 99.1523C49.4271 99.1523 49.9352 98.9199 50.3408 98.4551C50.7464 97.9902 50.9492 97.2816 50.9492 96.3291C50.9492 95.4313 50.7441 94.7523 50.334 94.292C49.9284 93.8271 49.4225 93.5947 48.8164 93.5947C48.2012 93.5947 47.6908 93.8249 47.2852 94.2852C46.8796 94.7454 46.6768 95.4404 46.6768 96.3701ZM53.6494 100V92.7402H54.7568V93.8408C55.0394 93.3258 55.2992 92.9863 55.5361 92.8223C55.7777 92.6582 56.042 92.5762 56.3291 92.5762C56.7438 92.5762 57.1654 92.7083 57.5938 92.9727L57.1699 94.1143C56.8691 93.9365 56.5684 93.8477 56.2676 93.8477C55.9987 93.8477 55.7572 93.9297 55.543 94.0938C55.3288 94.2533 55.1761 94.4766 55.085 94.7637C54.9482 95.2012 54.8799 95.6797 54.8799 96.1992V100H53.6494ZM61.0117 98.8994L61.1895 99.9863C60.8431 100.059 60.5332 100.096 60.2598 100.096C59.8132 100.096 59.4668 100.025 59.2207 99.8838C58.9746 99.7425 58.8014 99.5579 58.7012 99.3301C58.6009 99.0977 58.5508 98.6123 58.5508 97.874V93.6973H57.6484V92.7402H58.5508V90.9424L59.7744 90.2041V92.7402H61.0117V93.6973H59.7744V97.9424C59.7744 98.2933 59.7949 98.5189 59.8359 98.6191C59.8815 98.7194 59.9521 98.7992 60.0479 98.8584C60.1481 98.9176 60.2894 98.9473 60.4717 98.9473C60.6084 98.9473 60.7884 98.9313 61.0117 98.8994ZM66.959 99.1045C66.5033 99.4919 66.0635 99.7653 65.6396 99.9248C65.2204 100.084 64.7692 100.164 64.2861 100.164C63.4886 100.164 62.8757 99.9704 62.4473 99.583C62.0189 99.1911 61.8047 98.6921 61.8047 98.0859C61.8047 97.7305 61.8844 97.4069 62.0439 97.1152C62.208 96.819 62.4199 96.582 62.6797 96.4043C62.944 96.2266 63.2402 96.0921 63.5684 96.001C63.8099 95.9372 64.1745 95.8757 64.6621 95.8164C65.6556 95.6979 66.387 95.5566 66.8564 95.3926C66.861 95.224 66.8633 95.1169 66.8633 95.0713C66.8633 94.57 66.7471 94.2168 66.5146 94.0117C66.2002 93.7337 65.7331 93.5947 65.1133 93.5947C64.5345 93.5947 64.1061 93.6973 63.8281 93.9023C63.5547 94.1029 63.3519 94.4606 63.2197 94.9756L62.0166 94.8115C62.126 94.2965 62.306 93.8818 62.5566 93.5674C62.8073 93.2484 63.1696 93.0046 63.6436 92.8359C64.1175 92.6628 64.6667 92.5762 65.291 92.5762C65.9108 92.5762 66.4144 92.6491 66.8018 92.7949C67.1891 92.9408 67.474 93.1253 67.6562 93.3486C67.8385 93.5674 67.9661 93.8454 68.0391 94.1826C68.0801 94.3923 68.1006 94.7705 68.1006 95.3174V96.958C68.1006 98.1019 68.1257 98.8265 68.1758 99.1318C68.2305 99.4326 68.3353 99.722 68.4902 100H67.2051C67.0775 99.7448 66.9954 99.4463 66.959 99.1045ZM66.8564 96.3564C66.4098 96.5387 65.7399 96.6937 64.8467 96.8213C64.3408 96.8942 63.9831 96.9762 63.7734 97.0674C63.5638 97.1585 63.402 97.293 63.2881 97.4707C63.1742 97.6439 63.1172 97.8376 63.1172 98.0518C63.1172 98.3799 63.2402 98.6533 63.4863 98.8721C63.737 99.0908 64.1016 99.2002 64.5801 99.2002C65.054 99.2002 65.4756 99.0977 65.8447 98.8926C66.2139 98.6829 66.485 98.3981 66.6582 98.0381C66.7904 97.7601 66.8564 97.3499 66.8564 96.8076V96.3564ZM74.7246 100V99.084C74.2643 99.804 73.5876 100.164 72.6943 100.164C72.1156 100.164 71.5824 100.005 71.0947 99.6855C70.6117 99.3665 70.2357 98.9222 69.9668 98.3525C69.7025 97.7783 69.5703 97.1198 69.5703 96.377C69.5703 95.6523 69.6911 94.9961 69.9326 94.4082C70.1742 93.8158 70.5365 93.3623 71.0195 93.0479C71.5026 92.7334 72.0426 92.5762 72.6396 92.5762C73.0771 92.5762 73.4668 92.6696 73.8086 92.8564C74.1504 93.0387 74.4284 93.278 74.6426 93.5742V89.9785H75.8662V100H74.7246ZM70.835 96.377C70.835 97.3066 71.0309 98.0016 71.4229 98.4619C71.8148 98.9222 72.2773 99.1523 72.8105 99.1523C73.3483 99.1523 73.804 98.9336 74.1777 98.4961C74.556 98.054 74.7451 97.3818 74.7451 96.4795C74.7451 95.486 74.5537 94.7568 74.1709 94.292C73.7881 93.8271 73.3164 93.5947 72.7559 93.5947C72.209 93.5947 71.751 93.818 71.3818 94.2646C71.0173 94.7113 70.835 95.4154 70.835 96.377ZM77.3496 96.3701C77.3496 95.0257 77.7233 94.0299 78.4707 93.3828C79.0951 92.8451 79.8561 92.5762 80.7539 92.5762C81.752 92.5762 82.5677 92.9043 83.2012 93.5605C83.8346 94.2122 84.1514 95.1146 84.1514 96.2676C84.1514 97.2018 84.0101 97.9378 83.7275 98.4756C83.4495 99.0088 83.0417 99.4235 82.5039 99.7197C81.9707 100.016 81.3874 100.164 80.7539 100.164C79.7376 100.164 78.915 99.8382 78.2861 99.1865C77.6618 98.5348 77.3496 97.596 77.3496 96.3701ZM78.6143 96.3701C78.6143 97.2998 78.8171 97.9971 79.2227 98.4619C79.6283 98.9222 80.1387 99.1523 80.7539 99.1523C81.3646 99.1523 81.8727 98.9199 82.2783 98.4551C82.6839 97.9902 82.8867 97.2816 82.8867 96.3291C82.8867 95.4313 82.6816 94.7523 82.2715 94.292C81.8659 93.8271 81.36 93.5947 80.7539 93.5947C80.1387 93.5947 79.6283 93.8249 79.2227 94.2852C78.8171 94.7454 78.6143 95.4404 78.6143 96.3701ZM85.5869 100V92.7402H86.6943V93.8408C86.9769 93.3258 87.2367 92.9863 87.4736 92.8223C87.7152 92.6582 87.9795 92.5762 88.2666 92.5762C88.6813 92.5762 89.1029 92.7083 89.5312 92.9727L89.1074 94.1143C88.8066 93.9365 88.5059 93.8477 88.2051 93.8477C87.9362 93.8477 87.6947 93.9297 87.4805 94.0938C87.2663 94.2533 87.1136 94.4766 87.0225 94.7637C86.8857 95.2012 86.8174 95.6797 86.8174 96.1992V100H85.5869ZM95 99.1045C94.5443 99.4919 94.1045 99.7653 93.6807 99.9248C93.2614 100.084 92.8102 100.164 92.3271 100.164C91.5296 100.164 90.9167 99.9704 90.4883 99.583C90.0599 99.1911 89.8457 98.6921 89.8457 98.0859C89.8457 97.7305 89.9255 97.4069 90.085 97.1152C90.249 96.819 90.4609 96.582 90.7207 96.4043C90.985 96.2266 91.2812 96.0921 91.6094 96.001C91.8509 95.9372 92.2155 95.8757 92.7031 95.8164C93.6966 95.6979 94.4281 95.5566 94.8975 95.3926C94.902 95.224 94.9043 95.1169 94.9043 95.0713C94.9043 94.57 94.7881 94.2168 94.5557 94.0117C94.2412 93.7337 93.7741 93.5947 93.1543 93.5947C92.5755 93.5947 92.1471 93.6973 91.8691 93.9023C91.5957 94.1029 91.3929 94.4606 91.2607 94.9756L90.0576 94.8115C90.167 94.2965 90.347 93.8818 90.5977 93.5674C90.8483 93.2484 91.2106 93.0046 91.6846 92.8359C92.1585 92.6628 92.7077 92.5762 93.332 92.5762C93.9518 92.5762 94.4554 92.6491 94.8428 92.7949C95.2301 92.9408 95.515 93.1253 95.6973 93.3486C95.8796 93.5674 96.0072 93.8454 96.0801 94.1826C96.1211 94.3923 96.1416 94.7705 96.1416 95.3174V96.958C96.1416 98.1019 96.1667 98.8265 96.2168 99.1318C96.2715 99.4326 96.3763 99.722 96.5312 100H95.2461C95.1185 99.7448 95.0365 99.4463 95 99.1045ZM94.8975 96.3564C94.4508 96.5387 93.7809 96.6937 92.8877 96.8213C92.3818 96.8942 92.0241 96.9762 91.8145 97.0674C91.6048 97.1585 91.443 97.293 91.3291 97.4707C91.2152 97.6439 91.1582 97.8376 91.1582 98.0518C91.1582 98.3799 91.2812 98.6533 91.5273 98.8721C91.778 99.0908 92.1426 99.2002 92.6211 99.2002C93.0951 99.2002 93.5166 99.0977 93.8857 98.8926C94.2549 98.6829 94.526 98.3981 94.6992 98.0381C94.8314 97.7601 94.8975 97.3499 94.8975 96.8076V96.3564ZM97.5635 97.833L98.7803 97.6416C98.8486 98.1292 99.0378 98.5029 99.3477 98.7627C99.6621 99.0225 100.1 99.1523 100.66 99.1523C101.225 99.1523 101.645 99.0384 101.918 98.8105C102.191 98.5781 102.328 98.307 102.328 97.9971C102.328 97.7191 102.207 97.5003 101.966 97.3408C101.797 97.2314 101.378 97.0924 100.708 96.9238C99.8057 96.696 99.179 96.5 98.8281 96.3359C98.4818 96.1673 98.2174 95.9372 98.0352 95.6455C97.8574 95.3493 97.7686 95.0234 97.7686 94.668C97.7686 94.3444 97.8415 94.0459 97.9873 93.7725C98.1377 93.4945 98.3405 93.2643 98.5957 93.082C98.7871 92.9408 99.0469 92.8223 99.375 92.7266C99.7077 92.6263 100.063 92.5762 100.441 92.5762C101.011 92.5762 101.51 92.6582 101.938 92.8223C102.371 92.9863 102.69 93.2096 102.896 93.4922C103.101 93.7702 103.242 94.1439 103.319 94.6133L102.116 94.7773C102.062 94.4036 101.902 94.112 101.638 93.9023C101.378 93.6927 101.009 93.5879 100.53 93.5879C99.9652 93.5879 99.5618 93.6813 99.3203 93.8682C99.0788 94.055 98.958 94.2738 98.958 94.5244C98.958 94.6839 99.0081 94.8275 99.1084 94.9551C99.2087 95.0872 99.3659 95.1966 99.5801 95.2832C99.7031 95.3288 100.065 95.4336 100.667 95.5977C101.537 95.8301 102.144 96.0215 102.485 96.1719C102.832 96.3177 103.103 96.5319 103.299 96.8145C103.495 97.097 103.593 97.4479 103.593 97.8672C103.593 98.2773 103.472 98.6647 103.23 99.0293C102.993 99.3893 102.649 99.6696 102.198 99.8701C101.747 100.066 101.237 100.164 100.667 100.164C99.7236 100.164 99.0036 99.9681 98.5068 99.5762C98.0146 99.1842 97.7002 98.6032 97.5635 97.833Z" fill="#003C44"/>
<circle cx="52.5" cy="41.5" r="41.5" fill="#32BCAD"/>
<path d="M37.5 62C35.4167 62 33.6458 61.2708 32.1875 59.8125C30.7292 58.3542 30 56.5833 30 54.5H25V27C25 25.625 25.4896 24.4479 26.4688 23.4688C27.4479 22.4896 28.625 22 30 22H65V32H72.5L80 42V54.5H75C75 56.5833 74.2708 58.3542 72.8125 59.8125C71.3542 61.2708 69.5833 62 67.5 62C65.4167 62 63.6458 61.2708 62.1875 59.8125C60.7292 58.3542 60 56.5833 60 54.5H45C45 56.5833 44.2708 58.3542 42.8125 59.8125C41.3542 61.2708 39.5833 62 37.5 62ZM37.5 57C38.2083 57 38.8021 56.7604 39.2812 56.2812C39.7604 55.8021 40 55.2083 40 54.5C40 53.7917 39.7604 53.1979 39.2812 52.7188C38.8021 52.2396 38.2083 52 37.5 52C36.7917 52 36.1979 52.2396 35.7188 52.7188C35.2396 53.1979 35 53.7917 35 54.5C35 55.2083 35.2396 55.8021 35.7188 56.2812C36.1979 56.7604 36.7917 57 37.5 57ZM30 49.5H32C32.7083 48.75 33.5208 48.1458 34.4375 47.6875C35.3542 47.2292 36.375 47 37.5 47C38.625 47 39.6458 47.2292 40.5625 47.6875C41.4792 48.1458 42.2917 48.75 43 49.5H60V27H30V49.5ZM67.5 57C68.2083 57 68.8021 56.7604 69.2812 56.2812C69.7604 55.8021 70 55.2083 70 54.5C70 53.7917 69.7604 53.1979 69.2812 52.7188C68.8021 52.2396 68.2083 52 67.5 52C66.7917 52 66.1979 52.2396 65.7188 52.7188C65.2396 53.1979 65 53.7917 65 54.5C65 55.2083 65.2396 55.8021 65.7188 56.2812C66.1979 56.7604 66.7917 57 67.5 57ZM65 44.5H75.625L70 37H65V44.5Z" fill="#F5F5F5"/>
</svg>
