<svg width="106" height="103" viewBox="0 0 106 103" fill="none" xmlns="http://www.w3.org/2000/svg">
<path d="M20.2969 100V91.1611H16.9951V89.9785H24.9385V91.1611H21.623V100H20.2969ZM25.6152 100V92.7402H26.7227V93.8408C27.0052 93.3258 27.265 92.9863 27.502 92.8223C27.7435 92.6582 28.0078 92.5762 28.2949 92.5762C28.7096 92.5762 29.1312 92.7083 29.5596 92.9727L29.1357 94.1143C28.835 93.9365 28.5342 93.8477 28.2334 93.8477C27.9645 93.8477 27.723 93.9297 27.5088 94.0938C27.2946 94.2533 27.1419 94.4766 27.0508 94.7637C26.9141 95.2012 26.8457 95.6797 26.8457 96.1992V100H25.6152ZM35.0283 99.1045C34.5726 99.4919 34.1328 99.7653 33.709 99.9248C33.2897 100.084 32.8385 100.164 32.3555 100.164C31.5579 100.164 30.945 99.9704 30.5166 99.583C30.0882 99.1911 29.874 98.6921 29.874 98.0859C29.874 97.7305 29.9538 97.4069 30.1133 97.1152C30.2773 96.819 30.4893 96.582 30.749 96.4043C31.0133 96.2266 31.3096 96.0921 31.6377 96.001C31.8792 95.9372 32.2438 95.8757 32.7314 95.8164C33.7249 95.6979 34.4564 95.5566 34.9258 95.3926C34.9303 95.224 34.9326 95.1169 34.9326 95.0713C34.9326 94.57 34.8164 94.2168 34.584 94.0117C34.2695 93.7337 33.8024 93.5947 33.1826 93.5947C32.6038 93.5947 32.1755 93.6973 31.8975 93.9023C31.624 94.1029 31.4212 94.4606 31.2891 94.9756L30.0859 94.8115C30.1953 94.2965 30.3753 93.8818 30.626 93.5674C30.8766 93.2484 31.2389 93.0046 31.7129 92.8359C32.1868 92.6628 32.736 92.5762 33.3604 92.5762C33.9801 92.5762 34.4837 92.6491 34.8711 92.7949C35.2585 92.9408 35.5433 93.1253 35.7256 93.3486C35.9079 93.5674 36.0355 93.8454 36.1084 94.1826C36.1494 94.3923 36.1699 94.7705 36.1699 95.3174V96.958C36.1699 98.1019 36.195 98.8265 36.2451 99.1318C36.2998 99.4326 36.4046 99.722 36.5596 100H35.2744C35.1468 99.7448 35.0648 99.4463 35.0283 99.1045ZM34.9258 96.3564C34.4792 96.5387 33.8092 96.6937 32.916 96.8213C32.4102 96.8942 32.0524 96.9762 31.8428 97.0674C31.6331 97.1585 31.4714 97.293 31.3574 97.4707C31.2435 97.6439 31.1865 97.8376 31.1865 98.0518C31.1865 98.3799 31.3096 98.6533 31.5557 98.8721C31.8063 99.0908 32.1709 99.2002 32.6494 99.2002C33.1234 99.2002 33.5449 99.0977 33.9141 98.8926C34.2832 98.6829 34.5544 98.3981 34.7275 98.0381C34.8597 97.7601 34.9258 97.3499 34.9258 96.8076V96.3564ZM38.084 100V92.7402H39.1914V93.7725C39.7246 92.9749 40.4948 92.5762 41.502 92.5762C41.9395 92.5762 42.3405 92.6559 42.7051 92.8154C43.0742 92.9704 43.3499 93.1755 43.5322 93.4307C43.7145 93.6859 43.8421 93.9889 43.915 94.3398C43.9606 94.5677 43.9834 94.9665 43.9834 95.5361V100H42.7529V95.584C42.7529 95.0827 42.7051 94.709 42.6094 94.4629C42.5137 94.2122 42.3428 94.014 42.0967 93.8682C41.8551 93.7178 41.5703 93.6426 41.2422 93.6426C40.7181 93.6426 40.2646 93.8089 39.8818 94.1416C39.5036 94.4743 39.3145 95.1055 39.3145 96.0352V100H38.084ZM45.3848 97.833L46.6016 97.6416C46.6699 98.1292 46.859 98.5029 47.1689 98.7627C47.4834 99.0225 47.9209 99.1523 48.4814 99.1523C49.0465 99.1523 49.4658 99.0384 49.7393 98.8105C50.0127 98.5781 50.1494 98.307 50.1494 97.9971C50.1494 97.7191 50.0286 97.5003 49.7871 97.3408C49.6185 97.2314 49.1992 97.0924 48.5293 96.9238C47.627 96.696 47.0003 96.5 46.6494 96.3359C46.3031 96.1673 46.0387 95.9372 45.8564 95.6455C45.6787 95.3493 45.5898 95.0234 45.5898 94.668C45.5898 94.3444 45.6628 94.0459 45.8086 93.7725C45.959 93.4945 46.1618 93.2643 46.417 93.082C46.6084 92.9408 46.8682 92.8223 47.1963 92.7266C47.529 92.6263 47.8844 92.5762 48.2627 92.5762C48.8324 92.5762 49.3314 92.6582 49.7598 92.8223C50.1927 92.9863 50.5117 93.2096 50.7168 93.4922C50.9219 93.7702 51.0632 94.1439 51.1406 94.6133L49.9375 94.7773C49.8828 94.4036 49.7233 94.112 49.459 93.9023C49.1992 93.6927 48.8301 93.5879 48.3516 93.5879C47.7865 93.5879 47.3831 93.6813 47.1416 93.8682C46.9001 94.055 46.7793 94.2738 46.7793 94.5244C46.7793 94.6839 46.8294 94.8275 46.9297 94.9551C47.0299 95.0872 47.1872 95.1966 47.4014 95.2832C47.5244 95.3288 47.8867 95.4336 48.4883 95.5977C49.3587 95.8301 49.9648 96.0215 50.3066 96.1719C50.653 96.3177 50.9242 96.5319 51.1201 96.8145C51.3161 97.097 51.4141 97.4479 51.4141 97.8672C51.4141 98.2773 51.2933 98.6647 51.0518 99.0293C50.8148 99.3893 50.4707 99.6696 50.0195 99.8701C49.5684 100.066 49.0579 100.164 48.4883 100.164C47.5449 100.164 46.8249 99.9681 46.3281 99.5762C45.8359 99.1842 45.5215 98.6032 45.3848 97.833ZM57.6143 99.1045C57.1585 99.4919 56.7188 99.7653 56.2949 99.9248C55.8757 100.084 55.4245 100.164 54.9414 100.164C54.1439 100.164 53.5309 99.9704 53.1025 99.583C52.6742 99.1911 52.46 98.6921 52.46 98.0859C52.46 97.7305 52.5397 97.4069 52.6992 97.1152C52.8633 96.819 53.0752 96.582 53.335 96.4043C53.5993 96.2266 53.8955 96.0921 54.2236 96.001C54.4652 95.9372 54.8298 95.8757 55.3174 95.8164C56.3109 95.6979 57.0423 95.5566 57.5117 95.3926C57.5163 95.224 57.5186 95.1169 57.5186 95.0713C57.5186 94.57 57.4023 94.2168 57.1699 94.0117C56.8555 93.7337 56.3883 93.5947 55.7686 93.5947C55.1898 93.5947 54.7614 93.6973 54.4834 93.9023C54.21 94.1029 54.0072 94.4606 53.875 94.9756L52.6719 94.8115C52.7812 94.2965 52.9613 93.8818 53.2119 93.5674C53.4626 93.2484 53.8249 93.0046 54.2988 92.8359C54.7728 92.6628 55.3219 92.5762 55.9463 92.5762C56.5661 92.5762 57.0697 92.6491 57.457 92.7949C57.8444 92.9408 58.1292 93.1253 58.3115 93.3486C58.4938 93.5674 58.6214 93.8454 58.6943 94.1826C58.7354 94.3923 58.7559 94.7705 58.7559 95.3174V96.958C58.7559 98.1019 58.7809 98.8265 58.8311 99.1318C58.8857 99.4326 58.9906 99.722 59.1455 100H57.8604C57.7327 99.7448 57.6507 99.4463 57.6143 99.1045ZM57.5117 96.3564C57.0651 96.5387 56.3952 96.6937 55.502 96.8213C54.9961 96.8942 54.6383 96.9762 54.4287 97.0674C54.2191 97.1585 54.0573 97.293 53.9434 97.4707C53.8294 97.6439 53.7725 97.8376 53.7725 98.0518C53.7725 98.3799 53.8955 98.6533 54.1416 98.8721C54.3923 99.0908 54.7568 99.2002 55.2354 99.2002C55.7093 99.2002 56.1309 99.0977 56.5 98.8926C56.8691 98.6829 57.1403 98.3981 57.3135 98.0381C57.4456 97.7601 57.5117 97.3499 57.5117 96.8076V96.3564ZM65.4072 97.3408L66.6172 97.498C66.485 98.332 66.1455 98.986 65.5986 99.46C65.0563 99.9294 64.3887 100.164 63.5957 100.164C62.6022 100.164 61.8024 99.8405 61.1963 99.1934C60.5947 98.5417 60.2939 97.6097 60.2939 96.3975C60.2939 95.6136 60.4238 94.9277 60.6836 94.3398C60.9434 93.752 61.3376 93.3122 61.8662 93.0205C62.3994 92.7243 62.9782 92.5762 63.6025 92.5762C64.391 92.5762 65.0358 92.7767 65.5371 93.1777C66.0384 93.5742 66.3597 94.1393 66.501 94.873L65.3047 95.0576C65.1908 94.57 64.988 94.2031 64.6963 93.957C64.4092 93.7109 64.0605 93.5879 63.6504 93.5879C63.0306 93.5879 62.527 93.8112 62.1396 94.2578C61.7523 94.6999 61.5586 95.4017 61.5586 96.3633C61.5586 97.3385 61.7454 98.0472 62.1191 98.4893C62.4928 98.9313 62.9805 99.1523 63.582 99.1523C64.0651 99.1523 64.4684 99.0042 64.792 98.708C65.1156 98.4118 65.3206 97.9561 65.4072 97.3408ZM62.5566 100.916L62.9121 99.7061H63.8281L63.6025 100.438C63.9899 100.483 64.2816 100.602 64.4775 100.793C64.6735 100.989 64.7715 101.205 64.7715 101.442C64.7715 101.784 64.6074 102.085 64.2793 102.345C63.9512 102.609 63.4567 102.741 62.7959 102.741C62.4222 102.741 62.0941 102.714 61.8115 102.659L61.8867 101.859C62.1784 101.878 62.3926 101.887 62.5293 101.887C62.9577 101.887 63.2585 101.827 63.4316 101.709C63.5638 101.618 63.6299 101.506 63.6299 101.374C63.6299 101.292 63.6025 101.219 63.5479 101.155C63.4977 101.091 63.402 101.037 63.2607 100.991C63.1195 100.946 62.8848 100.921 62.5566 100.916ZM67.2119 96.3701C67.2119 95.0257 67.5856 94.0299 68.333 93.3828C68.9574 92.8451 69.7184 92.5762 70.6162 92.5762C71.6143 92.5762 72.43 92.9043 73.0635 93.5605C73.6969 94.2122 74.0137 95.1146 74.0137 96.2676C74.0137 97.2018 73.8724 97.9378 73.5898 98.4756C73.3118 99.0088 72.904 99.4235 72.3662 99.7197C71.833 100.016 71.2497 100.164 70.6162 100.164C69.5999 100.164 68.7773 99.8382 68.1484 99.1865C67.5241 98.5348 67.2119 97.596 67.2119 96.3701ZM68.4766 96.3701C68.4766 97.2998 68.6794 97.9971 69.085 98.4619C69.4906 98.9222 70.001 99.1523 70.6162 99.1523C71.2269 99.1523 71.735 98.9199 72.1406 98.4551C72.5462 97.9902 72.749 97.2816 72.749 96.3291C72.749 95.4313 72.5439 94.7523 72.1338 94.292C71.7282 93.8271 71.2223 93.5947 70.6162 93.5947C70.001 93.5947 69.4906 93.8249 69.085 94.2852C68.6794 94.7454 68.4766 95.4404 68.4766 96.3701ZM68.3262 91.667C68.3216 91.193 68.4515 90.8148 68.7158 90.5322C68.9756 90.2497 69.3083 90.1084 69.7139 90.1084C69.9964 90.1084 70.3815 90.2314 70.8691 90.4775C71.138 90.6143 71.3522 90.6826 71.5117 90.6826C71.6576 90.6826 71.7692 90.6439 71.8467 90.5664C71.9242 90.4844 71.9788 90.3249 72.0107 90.0879H72.8994C72.8857 90.6074 72.7536 90.9971 72.5029 91.2568C72.2568 91.5166 71.9424 91.6465 71.5596 91.6465C71.2725 91.6465 70.8942 91.5189 70.4248 91.2637C70.1195 91.0996 69.8962 91.0176 69.7549 91.0176C69.5999 91.0176 69.4746 91.0723 69.3789 91.1816C69.2786 91.291 69.2308 91.4528 69.2354 91.667H68.3262ZM80.4326 97.6621L81.7041 97.8193C81.5036 98.5622 81.1322 99.1387 80.5898 99.5488C80.0475 99.959 79.3548 100.164 78.5117 100.164C77.4499 100.164 76.6068 99.8382 75.9824 99.1865C75.3626 98.5303 75.0527 97.612 75.0527 96.4316C75.0527 95.2103 75.3672 94.2624 75.9961 93.5879C76.625 92.9134 77.4408 92.5762 78.4434 92.5762C79.4141 92.5762 80.207 92.9066 80.8223 93.5674C81.4375 94.2282 81.7451 95.1579 81.7451 96.3564C81.7451 96.4294 81.7428 96.5387 81.7383 96.6846H76.3242C76.3698 97.4821 76.5954 98.0928 77.001 98.5166C77.4066 98.9404 77.9124 99.1523 78.5186 99.1523C78.9697 99.1523 79.3548 99.0339 79.6738 98.7969C79.9928 98.5599 80.2458 98.1816 80.4326 97.6621ZM76.3926 95.6729H80.4463C80.3916 95.0622 80.2367 94.6042 79.9814 94.2988C79.5895 93.8249 79.0814 93.5879 78.457 93.5879C77.8919 93.5879 77.4157 93.777 77.0283 94.1553C76.6455 94.5335 76.4336 95.0394 76.3926 95.6729ZM82.7637 97.833L83.9805 97.6416C84.0488 98.1292 84.238 98.5029 84.5479 98.7627C84.8623 99.0225 85.2998 99.1523 85.8604 99.1523C86.4255 99.1523 86.8447 99.0384 87.1182 98.8105C87.3916 98.5781 87.5283 98.307 87.5283 97.9971C87.5283 97.7191 87.4076 97.5003 87.166 97.3408C86.9974 97.2314 86.5781 97.0924 85.9082 96.9238C85.0059 96.696 84.3792 96.5 84.0283 96.3359C83.682 96.1673 83.4176 95.9372 83.2354 95.6455C83.0576 95.3493 82.9688 95.0234 82.9688 94.668C82.9688 94.3444 83.0417 94.0459 83.1875 93.7725C83.3379 93.4945 83.5407 93.2643 83.7959 93.082C83.9873 92.9408 84.2471 92.8223 84.5752 92.7266C84.9079 92.6263 85.2633 92.5762 85.6416 92.5762C86.2113 92.5762 86.7103 92.6582 87.1387 92.8223C87.5716 92.9863 87.8906 93.2096 88.0957 93.4922C88.3008 93.7702 88.4421 94.1439 88.5195 94.6133L87.3164 94.7773C87.2617 94.4036 87.1022 94.112 86.8379 93.9023C86.5781 93.6927 86.209 93.5879 85.7305 93.5879C85.1654 93.5879 84.762 93.6813 84.5205 93.8682C84.279 94.055 84.1582 94.2738 84.1582 94.5244C84.1582 94.6839 84.2083 94.8275 84.3086 94.9551C84.4089 95.0872 84.5661 95.1966 84.7803 95.2832C84.9033 95.3288 85.2656 95.4336 85.8672 95.5977C86.7376 95.8301 87.3438 96.0215 87.6855 96.1719C88.0319 96.3177 88.3031 96.5319 88.499 96.8145C88.695 97.097 88.793 97.4479 88.793 97.8672C88.793 98.2773 88.6722 98.6647 88.4307 99.0293C88.1937 99.3893 87.8496 99.6696 87.3984 99.8701C86.9473 100.066 86.4368 100.164 85.8672 100.164C84.9238 100.164 84.2038 99.9681 83.707 99.5762C83.2148 99.1842 82.9004 98.6032 82.7637 97.833Z" fill="#003C44"/>
<circle cx="53.5" cy="41.5" r="41.5" fill="#32BCAD"/>
<path d="M53 60.3333C49.8889 60.3333 47.0278 59.625 44.4167 58.2083C41.8056 56.7917 39.6667 54.9028 38 52.5417V57H34.6667V47H44.6667V50.3333H40.5417C41.875 52.3333 43.6319 53.9444 45.8125 55.1667C47.9931 56.3889 50.3889 57 53 57C55.0833 57 57.0347 56.6042 58.8542 55.8125C60.6736 55.0208 62.2569 53.9514 63.6042 52.6042C64.9514 51.2569 66.0208 49.6736 66.8125 47.8542C67.6042 46.0347 68 44.0833 68 42H71.3333C71.3333 44.5278 70.8542 46.9028 69.8958 49.125C68.9375 51.3472 67.625 53.2917 65.9583 54.9583C64.2917 56.625 62.3472 57.9375 60.125 58.8958C57.9028 59.8542 55.5278 60.3333 53 60.3333ZM51.5 53.6667V51.5C50.1944 51.1944 49.1319 50.6319 48.3125 49.8125C47.4931 48.9931 46.8889 47.9167 46.5 46.5833L49.25 45.5C49.5833 46.6389 50.1042 47.4931 50.8125 48.0625C51.5208 48.6319 52.3333 48.9167 53.25 48.9167C54.1667 48.9167 54.9514 48.7014 55.6042 48.2708C56.2569 47.8403 56.5833 47.1667 56.5833 46.25C56.5833 45.4444 56.2431 44.7917 55.5625 44.2917C54.8819 43.7917 53.6667 43.2222 51.9167 42.5833C50.2778 42 49.0764 41.3056 48.3125 40.5C47.5486 39.6944 47.1667 38.6389 47.1667 37.3333C47.1667 36.1944 47.5625 35.1597 48.3542 34.2292C49.1458 33.2986 50.2222 32.6944 51.5833 32.4167V30.3333H54.5V32.4167C55.5 32.5 56.4097 32.9028 57.2292 33.625C58.0486 34.3472 58.6111 35.1944 58.9167 36.1667L56.25 37.25C56.0278 36.6111 55.6667 36.0764 55.1667 35.6458C54.6667 35.2153 53.9722 35 53.0833 35C52.1111 35 51.3681 35.2083 50.8542 35.625C50.3403 36.0417 50.0833 36.6111 50.0833 37.3333C50.0833 38.0556 50.4028 38.625 51.0417 39.0417C51.6806 39.4583 52.8333 39.9444 54.5 40.5C56.5 41.2222 57.8333 42.0694 58.5 43.0417C59.1667 44.0139 59.5 45.0833 59.5 46.25C59.5 47.0556 59.3611 47.7639 59.0833 48.375C58.8056 48.9861 58.4375 49.5069 57.9792 49.9375C57.5208 50.3681 56.9861 50.7153 56.375 50.9792C55.7639 51.2431 55.1111 51.4444 54.4167 51.5833V53.6667H51.5ZM34.6667 42C34.6667 39.4722 35.1458 37.0972 36.1042 34.875C37.0625 32.6528 38.375 30.7083 40.0417 29.0417C41.7083 27.375 43.6528 26.0625 45.875 25.1042C48.0972 24.1458 50.4722 23.6667 53 23.6667C56.1111 23.6667 58.9722 24.375 61.5833 25.7917C64.1944 27.2083 66.3333 29.0972 68 31.4583V27H71.3333V37H61.3333V33.6667H65.4583C64.125 31.6667 62.3681 30.0556 60.1875 28.8333C58.0069 27.6111 55.6111 27 53 27C50.9167 27 48.9653 27.3958 47.1458 28.1875C45.3264 28.9792 43.7431 30.0486 42.3958 31.3958C41.0486 32.7431 39.9792 34.3264 39.1875 36.1458C38.3958 37.9653 38 39.9167 38 42H34.6667Z" fill="#F5F5F5"/>
</svg>
