<svg width="106" height="104" viewBox="0 0 106 104" fill="none" xmlns="http://www.w3.org/2000/svg">
<path d="M5.49707 101V92.1611H2.19531V90.9785H10.1387V92.1611H6.82324V101H5.49707ZM10.8154 101V93.7402H11.9229V94.8408C12.2054 94.3258 12.4652 93.9863 12.7021 93.8223C12.9437 93.6582 13.208 93.5762 13.4951 93.5762C13.9098 93.5762 14.3314 93.7083 14.7598 93.9727L14.3359 95.1143C14.0352 94.9365 13.7344 94.8477 13.4336 94.8477C13.1647 94.8477 12.9232 94.9297 12.709 95.0938C12.4948 95.2533 12.3421 95.4766 12.251 95.7637C12.1143 96.2012 12.0459 96.6797 12.0459 97.1992V101H10.8154ZM20.2285 100.104C19.7728 100.492 19.333 100.765 18.9092 100.925C18.4899 101.084 18.0387 101.164 17.5557 101.164C16.7581 101.164 16.1452 100.97 15.7168 100.583C15.2884 100.191 15.0742 99.6921 15.0742 99.0859C15.0742 98.7305 15.154 98.4069 15.3135 98.1152C15.4775 97.819 15.6895 97.582 15.9492 97.4043C16.2135 97.2266 16.5098 97.0921 16.8379 97.001C17.0794 96.9372 17.444 96.8757 17.9316 96.8164C18.9251 96.6979 19.6566 96.5566 20.126 96.3926C20.1305 96.224 20.1328 96.1169 20.1328 96.0713C20.1328 95.57 20.0166 95.2168 19.7842 95.0117C19.4697 94.7337 19.0026 94.5947 18.3828 94.5947C17.804 94.5947 17.3757 94.6973 17.0977 94.9023C16.8242 95.1029 16.6214 95.4606 16.4893 95.9756L15.2861 95.8115C15.3955 95.2965 15.5755 94.8818 15.8262 94.5674C16.0768 94.2484 16.4391 94.0046 16.9131 93.8359C17.387 93.6628 17.9362 93.5762 18.5605 93.5762C19.1803 93.5762 19.6839 93.6491 20.0713 93.7949C20.4587 93.9408 20.7435 94.1253 20.9258 94.3486C21.1081 94.5674 21.2357 94.8454 21.3086 95.1826C21.3496 95.3923 21.3701 95.7705 21.3701 96.3174V97.958C21.3701 99.1019 21.3952 99.8265 21.4453 100.132C21.5 100.433 21.6048 100.722 21.7598 101H20.4746C20.347 100.745 20.265 100.446 20.2285 100.104ZM20.126 97.3564C19.6794 97.5387 19.0094 97.6937 18.1162 97.8213C17.6104 97.8942 17.2526 97.9762 17.043 98.0674C16.8333 98.1585 16.6715 98.293 16.5576 98.4707C16.4437 98.6439 16.3867 98.8376 16.3867 99.0518C16.3867 99.3799 16.5098 99.6533 16.7559 99.8721C17.0065 100.091 17.3711 100.2 17.8496 100.2C18.3236 100.2 18.7451 100.098 19.1143 99.8926C19.4834 99.6829 19.7546 99.3981 19.9277 99.0381C20.0599 98.7601 20.126 98.3499 20.126 97.8076V97.3564ZM23.2842 101V93.7402H24.3916V94.7725C24.9248 93.9749 25.695 93.5762 26.7021 93.5762C27.1396 93.5762 27.5407 93.6559 27.9053 93.8154C28.2744 93.9704 28.5501 94.1755 28.7324 94.4307C28.9147 94.6859 29.0423 94.9889 29.1152 95.3398C29.1608 95.5677 29.1836 95.9665 29.1836 96.5361V101H27.9531V96.584C27.9531 96.0827 27.9053 95.709 27.8096 95.4629C27.7139 95.2122 27.543 95.014 27.2969 94.8682C27.0553 94.7178 26.7705 94.6426 26.4424 94.6426C25.9183 94.6426 25.4648 94.8089 25.082 95.1416C24.7038 95.4743 24.5146 96.1055 24.5146 97.0352V101H23.2842ZM30.585 98.833L31.8018 98.6416C31.8701 99.1292 32.0592 99.5029 32.3691 99.7627C32.6836 100.022 33.1211 100.152 33.6816 100.152C34.2467 100.152 34.666 100.038 34.9395 99.8105C35.2129 99.5781 35.3496 99.307 35.3496 98.9971C35.3496 98.7191 35.2288 98.5003 34.9873 98.3408C34.8187 98.2314 34.3994 98.0924 33.7295 97.9238C32.8271 97.696 32.2005 97.5 31.8496 97.3359C31.5033 97.1673 31.2389 96.9372 31.0566 96.6455C30.8789 96.3493 30.79 96.0234 30.79 95.668C30.79 95.3444 30.863 95.0459 31.0088 94.7725C31.1592 94.4945 31.362 94.2643 31.6172 94.082C31.8086 93.9408 32.0684 93.8223 32.3965 93.7266C32.7292 93.6263 33.0846 93.5762 33.4629 93.5762C34.0326 93.5762 34.5316 93.6582 34.96 93.8223C35.3929 93.9863 35.7119 94.2096 35.917 94.4922C36.1221 94.7702 36.2633 95.1439 36.3408 95.6133L35.1377 95.7773C35.083 95.4036 34.9235 95.112 34.6592 94.9023C34.3994 94.6927 34.0303 94.5879 33.5518 94.5879C32.9867 94.5879 32.5833 94.6813 32.3418 94.8682C32.1003 95.055 31.9795 95.2738 31.9795 95.5244C31.9795 95.6839 32.0296 95.8275 32.1299 95.9551C32.2301 96.0872 32.3874 96.1966 32.6016 96.2832C32.7246 96.3288 33.0869 96.4336 33.6885 96.5977C34.5589 96.8301 35.165 97.0215 35.5068 97.1719C35.8532 97.3177 36.1243 97.5319 36.3203 97.8145C36.5163 98.097 36.6143 98.4479 36.6143 98.8672C36.6143 99.2773 36.4935 99.6647 36.252 100.029C36.015 100.389 35.6709 100.67 35.2197 100.87C34.7686 101.066 34.2581 101.164 33.6885 101.164C32.7451 101.164 32.0251 100.968 31.5283 100.576C31.0361 100.184 30.7217 99.6032 30.585 98.833ZM38.0771 103.782V93.7402H39.1982V94.6836C39.4626 94.3145 39.7611 94.0387 40.0938 93.8564C40.4264 93.6696 40.8298 93.5762 41.3037 93.5762C41.9235 93.5762 42.4704 93.7357 42.9443 94.0547C43.4183 94.3737 43.776 94.8249 44.0176 95.4082C44.2591 95.987 44.3799 96.6227 44.3799 97.3154C44.3799 98.0583 44.2454 98.7282 43.9766 99.3252C43.7122 99.9176 43.3249 100.373 42.8145 100.692C42.3086 101.007 41.7754 101.164 41.2148 101.164C40.8047 101.164 40.4355 101.077 40.1074 100.904C39.7839 100.731 39.5173 100.512 39.3076 100.248V103.782H38.0771ZM39.1914 97.4111C39.1914 98.3454 39.3805 99.0358 39.7588 99.4824C40.137 99.929 40.5951 100.152 41.1328 100.152C41.6797 100.152 42.1468 99.9222 42.5342 99.4619C42.9261 98.9971 43.1221 98.2793 43.1221 97.3086C43.1221 96.3835 42.9307 95.6908 42.5479 95.2305C42.1696 94.7702 41.7161 94.54 41.1875 94.54C40.6634 94.54 40.1986 94.7861 39.793 95.2783C39.3919 95.766 39.1914 96.4769 39.1914 97.4111ZM45.4121 97.3701C45.4121 96.0257 45.7858 95.0299 46.5332 94.3828C47.1576 93.8451 47.9186 93.5762 48.8164 93.5762C49.8145 93.5762 50.6302 93.9043 51.2637 94.5605C51.8971 95.2122 52.2139 96.1146 52.2139 97.2676C52.2139 98.2018 52.0726 98.9378 51.79 99.4756C51.512 100.009 51.1042 100.424 50.5664 100.72C50.0332 101.016 49.4499 101.164 48.8164 101.164C47.8001 101.164 46.9775 100.838 46.3486 100.187C45.7243 99.5348 45.4121 98.596 45.4121 97.3701ZM46.6768 97.3701C46.6768 98.2998 46.8796 98.9971 47.2852 99.4619C47.6908 99.9222 48.2012 100.152 48.8164 100.152C49.4271 100.152 49.9352 99.9199 50.3408 99.4551C50.7464 98.9902 50.9492 98.2816 50.9492 97.3291C50.9492 96.4313 50.7441 95.7523 50.334 95.292C49.9284 94.8271 49.4225 94.5947 48.8164 94.5947C48.2012 94.5947 47.6908 94.8249 47.2852 95.2852C46.8796 95.7454 46.6768 96.4404 46.6768 97.3701ZM53.6494 101V93.7402H54.7568V94.8408C55.0394 94.3258 55.2992 93.9863 55.5361 93.8223C55.7777 93.6582 56.042 93.5762 56.3291 93.5762C56.7438 93.5762 57.1654 93.7083 57.5938 93.9727L57.1699 95.1143C56.8691 94.9365 56.5684 94.8477 56.2676 94.8477C55.9987 94.8477 55.7572 94.9297 55.543 95.0938C55.3288 95.2533 55.1761 95.4766 55.085 95.7637C54.9482 96.2012 54.8799 96.6797 54.8799 97.1992V101H53.6494ZM61.0117 99.8994L61.1895 100.986C60.8431 101.059 60.5332 101.096 60.2598 101.096C59.8132 101.096 59.4668 101.025 59.2207 100.884C58.9746 100.743 58.8014 100.558 58.7012 100.33C58.6009 100.098 58.5508 99.6123 58.5508 98.874V94.6973H57.6484V93.7402H58.5508V91.9424L59.7744 91.2041V93.7402H61.0117V94.6973H59.7744V98.9424C59.7744 99.2933 59.7949 99.5189 59.8359 99.6191C59.8815 99.7194 59.9521 99.7992 60.0479 99.8584C60.1481 99.9176 60.2894 99.9473 60.4717 99.9473C60.6084 99.9473 60.7884 99.9313 61.0117 99.8994ZM66.959 100.104C66.5033 100.492 66.0635 100.765 65.6396 100.925C65.2204 101.084 64.7692 101.164 64.2861 101.164C63.4886 101.164 62.8757 100.97 62.4473 100.583C62.0189 100.191 61.8047 99.6921 61.8047 99.0859C61.8047 98.7305 61.8844 98.4069 62.0439 98.1152C62.208 97.819 62.4199 97.582 62.6797 97.4043C62.944 97.2266 63.2402 97.0921 63.5684 97.001C63.8099 96.9372 64.1745 96.8757 64.6621 96.8164C65.6556 96.6979 66.387 96.5566 66.8564 96.3926C66.861 96.224 66.8633 96.1169 66.8633 96.0713C66.8633 95.57 66.7471 95.2168 66.5146 95.0117C66.2002 94.7337 65.7331 94.5947 65.1133 94.5947C64.5345 94.5947 64.1061 94.6973 63.8281 94.9023C63.5547 95.1029 63.3519 95.4606 63.2197 95.9756L62.0166 95.8115C62.126 95.2965 62.306 94.8818 62.5566 94.5674C62.8073 94.2484 63.1696 94.0046 63.6436 93.8359C64.1175 93.6628 64.6667 93.5762 65.291 93.5762C65.9108 93.5762 66.4144 93.6491 66.8018 93.7949C67.1891 93.9408 67.474 94.1253 67.6562 94.3486C67.8385 94.5674 67.9661 94.8454 68.0391 95.1826C68.0801 95.3923 68.1006 95.7705 68.1006 96.3174V97.958C68.1006 99.1019 68.1257 99.8265 68.1758 100.132C68.2305 100.433 68.3353 100.722 68.4902 101H67.2051C67.0775 100.745 66.9954 100.446 66.959 100.104ZM66.8564 97.3564C66.4098 97.5387 65.7399 97.6937 64.8467 97.8213C64.3408 97.8942 63.9831 97.9762 63.7734 98.0674C63.5638 98.1585 63.402 98.293 63.2881 98.4707C63.1742 98.6439 63.1172 98.8376 63.1172 99.0518C63.1172 99.3799 63.2402 99.6533 63.4863 99.8721C63.737 100.091 64.1016 100.2 64.5801 100.2C65.054 100.2 65.4756 100.098 65.8447 99.8926C66.2139 99.6829 66.485 99.3981 66.6582 99.0381C66.7904 98.7601 66.8564 98.3499 66.8564 97.8076V97.3564ZM74.7246 101V100.084C74.2643 100.804 73.5876 101.164 72.6943 101.164C72.1156 101.164 71.5824 101.005 71.0947 100.686C70.6117 100.367 70.2357 99.9222 69.9668 99.3525C69.7025 98.7783 69.5703 98.1198 69.5703 97.377C69.5703 96.6523 69.6911 95.9961 69.9326 95.4082C70.1742 94.8158 70.5365 94.3623 71.0195 94.0479C71.5026 93.7334 72.0426 93.5762 72.6396 93.5762C73.0771 93.5762 73.4668 93.6696 73.8086 93.8564C74.1504 94.0387 74.4284 94.278 74.6426 94.5742V90.9785H75.8662V101H74.7246ZM70.835 97.377C70.835 98.3066 71.0309 99.0016 71.4229 99.4619C71.8148 99.9222 72.2773 100.152 72.8105 100.152C73.3483 100.152 73.804 99.9336 74.1777 99.4961C74.556 99.054 74.7451 98.3818 74.7451 97.4795C74.7451 96.486 74.5537 95.7568 74.1709 95.292C73.7881 94.8271 73.3164 94.5947 72.7559 94.5947C72.209 94.5947 71.751 94.818 71.3818 95.2646C71.0173 95.7113 70.835 96.4154 70.835 97.377ZM77.3496 97.3701C77.3496 96.0257 77.7233 95.0299 78.4707 94.3828C79.0951 93.8451 79.8561 93.5762 80.7539 93.5762C81.752 93.5762 82.5677 93.9043 83.2012 94.5605C83.8346 95.2122 84.1514 96.1146 84.1514 97.2676C84.1514 98.2018 84.0101 98.9378 83.7275 99.4756C83.4495 100.009 83.0417 100.424 82.5039 100.72C81.9707 101.016 81.3874 101.164 80.7539 101.164C79.7376 101.164 78.915 100.838 78.2861 100.187C77.6618 99.5348 77.3496 98.596 77.3496 97.3701ZM78.6143 97.3701C78.6143 98.2998 78.8171 98.9971 79.2227 99.4619C79.6283 99.9222 80.1387 100.152 80.7539 100.152C81.3646 100.152 81.8727 99.9199 82.2783 99.4551C82.6839 98.9902 82.8867 98.2816 82.8867 97.3291C82.8867 96.4313 82.6816 95.7523 82.2715 95.292C81.8659 94.8271 81.36 94.5947 80.7539 94.5947C80.1387 94.5947 79.6283 94.8249 79.2227 95.2852C78.8171 95.7454 78.6143 96.4404 78.6143 97.3701ZM85.5869 101V93.7402H86.6943V94.8408C86.9769 94.3258 87.2367 93.9863 87.4736 93.8223C87.7152 93.6582 87.9795 93.5762 88.2666 93.5762C88.6813 93.5762 89.1029 93.7083 89.5312 93.9727L89.1074 95.1143C88.8066 94.9365 88.5059 94.8477 88.2051 94.8477C87.9362 94.8477 87.6947 94.9297 87.4805 95.0938C87.2663 95.2533 87.1136 95.4766 87.0225 95.7637C86.8857 96.2012 86.8174 96.6797 86.8174 97.1992V101H85.5869ZM95 100.104C94.5443 100.492 94.1045 100.765 93.6807 100.925C93.2614 101.084 92.8102 101.164 92.3271 101.164C91.5296 101.164 90.9167 100.97 90.4883 100.583C90.0599 100.191 89.8457 99.6921 89.8457 99.0859C89.8457 98.7305 89.9255 98.4069 90.085 98.1152C90.249 97.819 90.4609 97.582 90.7207 97.4043C90.985 97.2266 91.2812 97.0921 91.6094 97.001C91.8509 96.9372 92.2155 96.8757 92.7031 96.8164C93.6966 96.6979 94.4281 96.5566 94.8975 96.3926C94.902 96.224 94.9043 96.1169 94.9043 96.0713C94.9043 95.57 94.7881 95.2168 94.5557 95.0117C94.2412 94.7337 93.7741 94.5947 93.1543 94.5947C92.5755 94.5947 92.1471 94.6973 91.8691 94.9023C91.5957 95.1029 91.3929 95.4606 91.2607 95.9756L90.0576 95.8115C90.167 95.2965 90.347 94.8818 90.5977 94.5674C90.8483 94.2484 91.2106 94.0046 91.6846 93.8359C92.1585 93.6628 92.7077 93.5762 93.332 93.5762C93.9518 93.5762 94.4554 93.6491 94.8428 93.7949C95.2301 93.9408 95.515 94.1253 95.6973 94.3486C95.8796 94.5674 96.0072 94.8454 96.0801 95.1826C96.1211 95.3923 96.1416 95.7705 96.1416 96.3174V97.958C96.1416 99.1019 96.1667 99.8265 96.2168 100.132C96.2715 100.433 96.3763 100.722 96.5312 101H95.2461C95.1185 100.745 95.0365 100.446 95 100.104ZM94.8975 97.3564C94.4508 97.5387 93.7809 97.6937 92.8877 97.8213C92.3818 97.8942 92.0241 97.9762 91.8145 98.0674C91.6048 98.1585 91.443 98.293 91.3291 98.4707C91.2152 98.6439 91.1582 98.8376 91.1582 99.0518C91.1582 99.3799 91.2812 99.6533 91.5273 99.8721C91.778 100.091 92.1426 100.2 92.6211 100.2C93.0951 100.2 93.5166 100.098 93.8857 99.8926C94.2549 99.6829 94.526 99.3981 94.6992 99.0381C94.8314 98.7601 94.8975 98.3499 94.8975 97.8076V97.3564ZM97.5635 98.833L98.7803 98.6416C98.8486 99.1292 99.0378 99.5029 99.3477 99.7627C99.6621 100.022 100.1 100.152 100.66 100.152C101.225 100.152 101.645 100.038 101.918 99.8105C102.191 99.5781 102.328 99.307 102.328 98.9971C102.328 98.7191 102.207 98.5003 101.966 98.3408C101.797 98.2314 101.378 98.0924 100.708 97.9238C99.8057 97.696 99.179 97.5 98.8281 97.3359C98.4818 97.1673 98.2174 96.9372 98.0352 96.6455C97.8574 96.3493 97.7686 96.0234 97.7686 95.668C97.7686 95.3444 97.8415 95.0459 97.9873 94.7725C98.1377 94.4945 98.3405 94.2643 98.5957 94.082C98.7871 93.9408 99.0469 93.8223 99.375 93.7266C99.7077 93.6263 100.063 93.5762 100.441 93.5762C101.011 93.5762 101.51 93.6582 101.938 93.8223C102.371 93.9863 102.69 94.2096 102.896 94.4922C103.101 94.7702 103.242 95.1439 103.319 95.6133L102.116 95.7773C102.062 95.4036 101.902 95.112 101.638 94.9023C101.378 94.6927 101.009 94.5879 100.53 94.5879C99.9652 94.5879 99.5618 94.6813 99.3203 94.8682C99.0788 95.055 98.958 95.2738 98.958 95.5244C98.958 95.6839 99.0081 95.8275 99.1084 95.9551C99.2087 96.0872 99.3659 96.1966 99.5801 96.2832C99.7031 96.3288 100.065 96.4336 100.667 96.5977C101.537 96.8301 102.144 97.0215 102.485 97.1719C102.832 97.3177 103.103 97.5319 103.299 97.8145C103.495 98.097 103.593 98.4479 103.593 98.8672C103.593 99.2773 103.472 99.6647 103.23 100.029C102.993 100.389 102.649 100.67 102.198 100.87C101.747 101.066 101.237 101.164 100.667 101.164C99.7236 101.164 99.0036 100.968 98.5068 100.576C98.0146 100.184 97.7002 99.6032 97.5635 98.833Z" fill="#003C44"/>
<circle cx="52.5" cy="42.5" r="41.5" fill="#F5F5F5" stroke="#32BCAD" stroke-width="2"/>
<path d="M37.5 63C35.4167 63 33.6458 62.2708 32.1875 60.8125C30.7292 59.3542 30 57.5833 30 55.5H25V28C25 26.625 25.4896 25.4479 26.4688 24.4688C27.4479 23.4896 28.625 23 30 23H65V33H72.5L80 43V55.5H75C75 57.5833 74.2708 59.3542 72.8125 60.8125C71.3542 62.2708 69.5833 63 67.5 63C65.4167 63 63.6458 62.2708 62.1875 60.8125C60.7292 59.3542 60 57.5833 60 55.5H45C45 57.5833 44.2708 59.3542 42.8125 60.8125C41.3542 62.2708 39.5833 63 37.5 63ZM37.5 58C38.2083 58 38.8021 57.7604 39.2812 57.2812C39.7604 56.8021 40 56.2083 40 55.5C40 54.7917 39.7604 54.1979 39.2812 53.7188C38.8021 53.2396 38.2083 53 37.5 53C36.7917 53 36.1979 53.2396 35.7188 53.7188C35.2396 54.1979 35 54.7917 35 55.5C35 56.2083 35.2396 56.8021 35.7188 57.2812C36.1979 57.7604 36.7917 58 37.5 58ZM30 50.5H32C32.7083 49.75 33.5208 49.1458 34.4375 48.6875C35.3542 48.2292 36.375 48 37.5 48C38.625 48 39.6458 48.2292 40.5625 48.6875C41.4792 49.1458 42.2917 49.75 43 50.5H60V28H30V50.5ZM67.5 58C68.2083 58 68.8021 57.7604 69.2812 57.2812C69.7604 56.8021 70 56.2083 70 55.5C70 54.7917 69.7604 54.1979 69.2812 53.7188C68.8021 53.2396 68.2083 53 67.5 53C66.7917 53 66.1979 53.2396 65.7188 53.7188C65.2396 54.1979 65 54.7917 65 55.5C65 56.2083 65.2396 56.8021 65.7188 57.2812C66.1979 57.7604 66.7917 58 67.5 58ZM65 45.5H75.625L70 38H65V45.5Z" fill="#32BCAD"/>
</svg>
