<svg width="106" height="103" viewBox="0 0 106 103" fill="none" xmlns="http://www.w3.org/2000/svg">
<path d="M33.0186 89.9785H34.3447V95.7686C34.3447 96.7757 34.2308 97.5755 34.0029 98.168C33.7751 98.7604 33.3626 99.2435 32.7656 99.6172C32.1732 99.9863 31.3939 100.171 30.4277 100.171C29.4889 100.171 28.721 100.009 28.124 99.6855C27.527 99.362 27.1009 98.8949 26.8457 98.2842C26.5905 97.6689 26.4629 96.8304 26.4629 95.7686V89.9785H27.7891V95.7617C27.7891 96.6322 27.8688 97.2747 28.0283 97.6895C28.1924 98.0996 28.4704 98.4163 28.8623 98.6396C29.2588 98.863 29.7419 98.9746 30.3115 98.9746C31.2868 98.9746 31.9818 98.7536 32.3965 98.3115C32.8112 97.8695 33.0186 97.0195 33.0186 95.7617V89.9785ZM35.9102 97.833L37.127 97.6416C37.1953 98.1292 37.3844 98.5029 37.6943 98.7627C38.0088 99.0225 38.4463 99.1523 39.0068 99.1523C39.5719 99.1523 39.9912 99.0384 40.2646 98.8105C40.5381 98.5781 40.6748 98.307 40.6748 97.9971C40.6748 97.7191 40.554 97.5003 40.3125 97.3408C40.1439 97.2314 39.7246 97.0924 39.0547 96.9238C38.1523 96.696 37.5257 96.5 37.1748 96.3359C36.8285 96.1673 36.5641 95.9372 36.3818 95.6455C36.2041 95.3493 36.1152 95.0234 36.1152 94.668C36.1152 94.3444 36.1882 94.0459 36.334 93.7725C36.4844 93.4945 36.6872 93.2643 36.9424 93.082C37.1338 92.9408 37.3936 92.8223 37.7217 92.7266C38.0544 92.6263 38.4098 92.5762 38.7881 92.5762C39.3577 92.5762 39.8568 92.6582 40.2852 92.8223C40.7181 92.9863 41.0371 93.2096 41.2422 93.4922C41.4473 93.7702 41.5885 94.1439 41.666 94.6133L40.4629 94.7773C40.4082 94.4036 40.2487 94.112 39.9844 93.9023C39.7246 93.6927 39.3555 93.5879 38.877 93.5879C38.3118 93.5879 37.9085 93.6813 37.667 93.8682C37.4255 94.055 37.3047 94.2738 37.3047 94.5244C37.3047 94.6839 37.3548 94.8275 37.4551 94.9551C37.5553 95.0872 37.7126 95.1966 37.9268 95.2832C38.0498 95.3288 38.4121 95.4336 39.0137 95.5977C39.8841 95.8301 40.4902 96.0215 40.832 96.1719C41.1784 96.3177 41.4495 96.5319 41.6455 96.8145C41.8415 97.097 41.9395 97.4479 41.9395 97.8672C41.9395 98.2773 41.8187 98.6647 41.5771 99.0293C41.3402 99.3893 40.9961 99.6696 40.5449 99.8701C40.0938 100.066 39.5833 100.164 39.0137 100.164C38.0703 100.164 37.3503 99.9681 36.8535 99.5762C36.3613 99.1842 36.0469 98.6032 35.9102 97.833ZM48.1602 100V98.9336C47.5951 99.7539 46.8271 100.164 45.8564 100.164C45.4281 100.164 45.027 100.082 44.6533 99.918C44.2842 99.7539 44.0085 99.5488 43.8262 99.3027C43.6484 99.0521 43.5231 98.7467 43.4502 98.3867C43.4001 98.1452 43.375 97.7624 43.375 97.2383V92.7402H44.6055V96.7666C44.6055 97.4092 44.6305 97.8421 44.6807 98.0654C44.7581 98.389 44.9222 98.6442 45.1729 98.8311C45.4235 99.0133 45.7334 99.1045 46.1025 99.1045C46.4717 99.1045 46.818 99.0111 47.1416 98.8242C47.4652 98.6328 47.693 98.3753 47.8252 98.0518C47.9619 97.7236 48.0303 97.2497 48.0303 96.6299V92.7402H49.2607V100H48.1602ZM55.9326 99.1045C55.4769 99.4919 55.0371 99.7653 54.6133 99.9248C54.194 100.084 53.7428 100.164 53.2598 100.164C52.4622 100.164 51.8493 99.9704 51.4209 99.583C50.9925 99.1911 50.7783 98.6921 50.7783 98.0859C50.7783 97.7305 50.8581 97.4069 51.0176 97.1152C51.1816 96.819 51.3936 96.582 51.6533 96.4043C51.9176 96.2266 52.2139 96.0921 52.542 96.001C52.7835 95.9372 53.1481 95.8757 53.6357 95.8164C54.6292 95.6979 55.3607 95.5566 55.8301 95.3926C55.8346 95.224 55.8369 95.1169 55.8369 95.0713C55.8369 94.57 55.7207 94.2168 55.4883 94.0117C55.1738 93.7337 54.7067 93.5947 54.0869 93.5947C53.5081 93.5947 53.0798 93.6973 52.8018 93.9023C52.5283 94.1029 52.3255 94.4606 52.1934 94.9756L50.9902 94.8115C51.0996 94.2965 51.2796 93.8818 51.5303 93.5674C51.7809 93.2484 52.1432 93.0046 52.6172 92.8359C53.0911 92.6628 53.6403 92.5762 54.2646 92.5762C54.8844 92.5762 55.388 92.6491 55.7754 92.7949C56.1628 92.9408 56.4476 93.1253 56.6299 93.3486C56.8122 93.5674 56.9398 93.8454 57.0127 94.1826C57.0537 94.3923 57.0742 94.7705 57.0742 95.3174V96.958C57.0742 98.1019 57.0993 98.8265 57.1494 99.1318C57.2041 99.4326 57.3089 99.722 57.4639 100H56.1787C56.0511 99.7448 55.9691 99.4463 55.9326 99.1045ZM55.8301 96.3564C55.3835 96.5387 54.7135 96.6937 53.8203 96.8213C53.3145 96.8942 52.9567 96.9762 52.7471 97.0674C52.5374 97.1585 52.3757 97.293 52.2617 97.4707C52.1478 97.6439 52.0908 97.8376 52.0908 98.0518C52.0908 98.3799 52.2139 98.6533 52.46 98.8721C52.7106 99.0908 53.0752 99.2002 53.5537 99.2002C54.0277 99.2002 54.4492 99.0977 54.8184 98.8926C55.1875 98.6829 55.4587 98.3981 55.6318 98.0381C55.764 97.7601 55.8301 97.3499 55.8301 96.8076V96.3564ZM53.4375 91.8379L54.3467 89.9238H55.96L54.4561 91.8379H53.4375ZM58.9746 100V92.7402H60.082V93.8408C60.3646 93.3258 60.6243 92.9863 60.8613 92.8223C61.1029 92.6582 61.3672 92.5762 61.6543 92.5762C62.069 92.5762 62.4906 92.7083 62.9189 92.9727L62.4951 94.1143C62.1943 93.9365 61.8936 93.8477 61.5928 93.8477C61.3239 93.8477 61.0824 93.9297 60.8682 94.0938C60.654 94.2533 60.5013 94.4766 60.4102 94.7637C60.2734 95.2012 60.2051 95.6797 60.2051 96.1992V100H58.9746ZM63.6572 91.3936V89.9785H64.8877V91.3936H63.6572ZM63.6572 100V92.7402H64.8877V100H63.6572ZM66.3096 96.3701C66.3096 95.0257 66.6833 94.0299 67.4307 93.3828C68.055 92.8451 68.8161 92.5762 69.7139 92.5762C70.7119 92.5762 71.5277 92.9043 72.1611 93.5605C72.7946 94.2122 73.1113 95.1146 73.1113 96.2676C73.1113 97.2018 72.9701 97.9378 72.6875 98.4756C72.4095 99.0088 72.0016 99.4235 71.4639 99.7197C70.9307 100.016 70.3473 100.164 69.7139 100.164C68.6976 100.164 67.875 99.8382 67.2461 99.1865C66.6217 98.5348 66.3096 97.596 66.3096 96.3701ZM67.5742 96.3701C67.5742 97.2998 67.777 97.9971 68.1826 98.4619C68.5882 98.9222 69.0986 99.1523 69.7139 99.1523C70.3245 99.1523 70.8327 98.9199 71.2383 98.4551C71.6439 97.9902 71.8467 97.2816 71.8467 96.3291C71.8467 95.4313 71.6416 94.7523 71.2314 94.292C70.8258 93.8271 70.32 93.5947 69.7139 93.5947C69.0986 93.5947 68.5882 93.8249 68.1826 94.2852C67.777 94.7454 67.5742 95.4404 67.5742 96.3701ZM74.0684 97.833L75.2852 97.6416C75.3535 98.1292 75.5426 98.5029 75.8525 98.7627C76.167 99.0225 76.6045 99.1523 77.165 99.1523C77.7301 99.1523 78.1494 99.0384 78.4229 98.8105C78.6963 98.5781 78.833 98.307 78.833 97.9971C78.833 97.7191 78.7122 97.5003 78.4707 97.3408C78.3021 97.2314 77.8828 97.0924 77.2129 96.9238C76.3105 96.696 75.6839 96.5 75.333 96.3359C74.9867 96.1673 74.7223 95.9372 74.54 95.6455C74.3623 95.3493 74.2734 95.0234 74.2734 94.668C74.2734 94.3444 74.3464 94.0459 74.4922 93.7725C74.6426 93.4945 74.8454 93.2643 75.1006 93.082C75.292 92.9408 75.5518 92.8223 75.8799 92.7266C76.2126 92.6263 76.568 92.5762 76.9463 92.5762C77.516 92.5762 78.015 92.6582 78.4434 92.8223C78.8763 92.9863 79.1953 93.2096 79.4004 93.4922C79.6055 93.7702 79.7467 94.1439 79.8242 94.6133L78.6211 94.7773C78.5664 94.4036 78.4069 94.112 78.1426 93.9023C77.8828 93.6927 77.5137 93.5879 77.0352 93.5879C76.4701 93.5879 76.0667 93.6813 75.8252 93.8682C75.5837 94.055 75.4629 94.2738 75.4629 94.5244C75.4629 94.6839 75.513 94.8275 75.6133 94.9551C75.7135 95.0872 75.8708 95.1966 76.085 95.2832C76.208 95.3288 76.5703 95.4336 77.1719 95.5977C78.0423 95.8301 78.6484 96.0215 78.9902 96.1719C79.3366 96.3177 79.6077 96.5319 79.8037 96.8145C79.9997 97.097 80.0977 97.4479 80.0977 97.8672C80.0977 98.2773 79.9769 98.6647 79.7354 99.0293C79.4984 99.3893 79.1543 99.6696 78.7031 99.8701C78.252 100.066 77.7415 100.164 77.1719 100.164C76.2285 100.164 75.5085 99.9681 75.0117 99.5762C74.5195 99.1842 74.2051 98.6032 74.0684 97.833Z" fill="#003C44"/>
<circle cx="52.5" cy="41.5" r="41.5" fill="#32BCAD"/>
<path d="M34.6667 55.3333V50.6667C34.6667 49.7222 34.9097 48.8542 35.3958 48.0625C35.8819 47.2708 36.5278 46.6667 37.3333 46.25C39.0556 45.3889 40.8056 44.7431 42.5833 44.3125C44.3611 43.8819 46.1667 43.6667 48 43.6667C49.8333 43.6667 51.6389 43.8819 53.4167 44.3125C55.1945 44.7431 56.9445 45.3889 58.6667 46.25C59.4722 46.6667 60.1181 47.2708 60.6042 48.0625C61.0903 48.8542 61.3333 49.7222 61.3333 50.6667V55.3333H34.6667ZM64.6667 55.3333V50.3333C64.6667 49.1111 64.3264 47.9375 63.6458 46.8125C62.9653 45.6875 62 44.7222 60.75 43.9167C62.1667 44.0833 63.5 44.3681 64.75 44.7708C66 45.1736 67.1667 45.6667 68.25 46.25C69.25 46.8056 70.0139 47.4236 70.5417 48.1042C71.0695 48.7847 71.3333 49.5278 71.3333 50.3333V55.3333H64.6667ZM48 42C46.1667 42 44.5972 41.3472 43.2917 40.0417C41.9861 38.7361 41.3333 37.1667 41.3333 35.3333C41.3333 33.5 41.9861 31.9306 43.2917 30.625C44.5972 29.3194 46.1667 28.6667 48 28.6667C49.8333 28.6667 51.4028 29.3194 52.7083 30.625C54.0139 31.9306 54.6667 33.5 54.6667 35.3333C54.6667 37.1667 54.0139 38.7361 52.7083 40.0417C51.4028 41.3472 49.8333 42 48 42ZM64.6667 35.3333C64.6667 37.1667 64.0139 38.7361 62.7083 40.0417C61.4028 41.3472 59.8333 42 58 42C57.6945 42 57.3056 41.9653 56.8333 41.8958C56.3611 41.8264 55.9722 41.75 55.6667 41.6667C56.4167 40.7778 56.9931 39.7917 57.3958 38.7083C57.7986 37.625 58 36.5 58 35.3333C58 34.1667 57.7986 33.0417 57.3958 31.9583C56.9931 30.875 56.4167 29.8889 55.6667 29C56.0556 28.8611 56.4445 28.7708 56.8333 28.7292C57.2222 28.6875 57.6111 28.6667 58 28.6667C59.8333 28.6667 61.4028 29.3194 62.7083 30.625C64.0139 31.9306 64.6667 33.5 64.6667 35.3333ZM38 52H58V50.6667C58 50.3611 57.9236 50.0833 57.7708 49.8333C57.6181 49.5833 57.4167 49.3889 57.1667 49.25C55.6667 48.5 54.1528 47.9375 52.625 47.5625C51.0972 47.1875 49.5556 47 48 47C46.4445 47 44.9028 47.1875 43.375 47.5625C41.8472 47.9375 40.3333 48.5 38.8333 49.25C38.5833 49.3889 38.3819 49.5833 38.2292 49.8333C38.0764 50.0833 38 50.3611 38 50.6667V52ZM48 38.6667C48.9167 38.6667 49.7014 38.3403 50.3542 37.6875C51.007 37.0347 51.3333 36.25 51.3333 35.3333C51.3333 34.4167 51.007 33.6319 50.3542 32.9792C49.7014 32.3264 48.9167 32 48 32C47.0833 32 46.2986 32.3264 45.6458 32.9792C44.9931 33.6319 44.6667 34.4167 44.6667 35.3333C44.6667 36.25 44.9931 37.0347 45.6458 37.6875C46.2986 38.3403 47.0833 38.6667 48 38.6667Z" fill="white"/>
</svg>
