<svg width="106" height="104" viewBox="0 0 106 104" fill="none" xmlns="http://www.w3.org/2000/svg">
<path d="M33.0186 90.9785H34.3447V96.7686C34.3447 97.7757 34.2308 98.5755 34.0029 99.168C33.7751 99.7604 33.3626 100.243 32.7656 100.617C32.1732 100.986 31.3939 101.171 30.4277 101.171C29.4889 101.171 28.721 101.009 28.124 100.686C27.527 100.362 27.1009 99.8949 26.8457 99.2842C26.5905 98.6689 26.4629 97.8304 26.4629 96.7686V90.9785H27.7891V96.7617C27.7891 97.6322 27.8688 98.2747 28.0283 98.6895C28.1924 99.0996 28.4704 99.4163 28.8623 99.6396C29.2588 99.863 29.7419 99.9746 30.3115 99.9746C31.2868 99.9746 31.9818 99.7536 32.3965 99.3115C32.8112 98.8695 33.0186 98.0195 33.0186 96.7617V90.9785ZM35.9102 98.833L37.127 98.6416C37.1953 99.1292 37.3844 99.5029 37.6943 99.7627C38.0088 100.022 38.4463 100.152 39.0068 100.152C39.5719 100.152 39.9912 100.038 40.2646 99.8105C40.5381 99.5781 40.6748 99.307 40.6748 98.9971C40.6748 98.7191 40.554 98.5003 40.3125 98.3408C40.1439 98.2314 39.7246 98.0924 39.0547 97.9238C38.1523 97.696 37.5257 97.5 37.1748 97.3359C36.8285 97.1673 36.5641 96.9372 36.3818 96.6455C36.2041 96.3493 36.1152 96.0234 36.1152 95.668C36.1152 95.3444 36.1882 95.0459 36.334 94.7725C36.4844 94.4945 36.6872 94.2643 36.9424 94.082C37.1338 93.9408 37.3936 93.8223 37.7217 93.7266C38.0544 93.6263 38.4098 93.5762 38.7881 93.5762C39.3577 93.5762 39.8568 93.6582 40.2852 93.8223C40.7181 93.9863 41.0371 94.2096 41.2422 94.4922C41.4473 94.7702 41.5885 95.1439 41.666 95.6133L40.4629 95.7773C40.4082 95.4036 40.2487 95.112 39.9844 94.9023C39.7246 94.6927 39.3555 94.5879 38.877 94.5879C38.3118 94.5879 37.9085 94.6813 37.667 94.8682C37.4255 95.055 37.3047 95.2738 37.3047 95.5244C37.3047 95.6839 37.3548 95.8275 37.4551 95.9551C37.5553 96.0872 37.7126 96.1966 37.9268 96.2832C38.0498 96.3288 38.4121 96.4336 39.0137 96.5977C39.8841 96.8301 40.4902 97.0215 40.832 97.1719C41.1784 97.3177 41.4495 97.5319 41.6455 97.8145C41.8415 98.097 41.9395 98.4479 41.9395 98.8672C41.9395 99.2773 41.8187 99.6647 41.5771 100.029C41.3402 100.389 40.9961 100.67 40.5449 100.87C40.0938 101.066 39.5833 101.164 39.0137 101.164C38.0703 101.164 37.3503 100.968 36.8535 100.576C36.3613 100.184 36.0469 99.6032 35.9102 98.833ZM48.1602 101V99.9336C47.5951 100.754 46.8271 101.164 45.8564 101.164C45.4281 101.164 45.027 101.082 44.6533 100.918C44.2842 100.754 44.0085 100.549 43.8262 100.303C43.6484 100.052 43.5231 99.7467 43.4502 99.3867C43.4001 99.1452 43.375 98.7624 43.375 98.2383V93.7402H44.6055V97.7666C44.6055 98.4092 44.6305 98.8421 44.6807 99.0654C44.7581 99.389 44.9222 99.6442 45.1729 99.8311C45.4235 100.013 45.7334 100.104 46.1025 100.104C46.4717 100.104 46.818 100.011 47.1416 99.8242C47.4652 99.6328 47.693 99.3753 47.8252 99.0518C47.9619 98.7236 48.0303 98.2497 48.0303 97.6299V93.7402H49.2607V101H48.1602ZM55.9326 100.104C55.4769 100.492 55.0371 100.765 54.6133 100.925C54.194 101.084 53.7428 101.164 53.2598 101.164C52.4622 101.164 51.8493 100.97 51.4209 100.583C50.9925 100.191 50.7783 99.6921 50.7783 99.0859C50.7783 98.7305 50.8581 98.4069 51.0176 98.1152C51.1816 97.819 51.3936 97.582 51.6533 97.4043C51.9176 97.2266 52.2139 97.0921 52.542 97.001C52.7835 96.9372 53.1481 96.8757 53.6357 96.8164C54.6292 96.6979 55.3607 96.5566 55.8301 96.3926C55.8346 96.224 55.8369 96.1169 55.8369 96.0713C55.8369 95.57 55.7207 95.2168 55.4883 95.0117C55.1738 94.7337 54.7067 94.5947 54.0869 94.5947C53.5081 94.5947 53.0798 94.6973 52.8018 94.9023C52.5283 95.1029 52.3255 95.4606 52.1934 95.9756L50.9902 95.8115C51.0996 95.2965 51.2796 94.8818 51.5303 94.5674C51.7809 94.2484 52.1432 94.0046 52.6172 93.8359C53.0911 93.6628 53.6403 93.5762 54.2646 93.5762C54.8844 93.5762 55.388 93.6491 55.7754 93.7949C56.1628 93.9408 56.4476 94.1253 56.6299 94.3486C56.8122 94.5674 56.9398 94.8454 57.0127 95.1826C57.0537 95.3923 57.0742 95.7705 57.0742 96.3174V97.958C57.0742 99.1019 57.0993 99.8265 57.1494 100.132C57.2041 100.433 57.3089 100.722 57.4639 101H56.1787C56.0511 100.745 55.9691 100.446 55.9326 100.104ZM55.8301 97.3564C55.3835 97.5387 54.7135 97.6937 53.8203 97.8213C53.3145 97.8942 52.9567 97.9762 52.7471 98.0674C52.5374 98.1585 52.3757 98.293 52.2617 98.4707C52.1478 98.6439 52.0908 98.8376 52.0908 99.0518C52.0908 99.3799 52.2139 99.6533 52.46 99.8721C52.7106 100.091 53.0752 100.2 53.5537 100.2C54.0277 100.2 54.4492 100.098 54.8184 99.8926C55.1875 99.6829 55.4587 99.3981 55.6318 99.0381C55.764 98.7601 55.8301 98.3499 55.8301 97.8076V97.3564ZM53.4375 92.8379L54.3467 90.9238H55.96L54.4561 92.8379H53.4375ZM58.9746 101V93.7402H60.082V94.8408C60.3646 94.3258 60.6243 93.9863 60.8613 93.8223C61.1029 93.6582 61.3672 93.5762 61.6543 93.5762C62.069 93.5762 62.4906 93.7083 62.9189 93.9727L62.4951 95.1143C62.1943 94.9365 61.8936 94.8477 61.5928 94.8477C61.3239 94.8477 61.0824 94.9297 60.8682 95.0938C60.654 95.2533 60.5013 95.4766 60.4102 95.7637C60.2734 96.2012 60.2051 96.6797 60.2051 97.1992V101H58.9746ZM63.6572 92.3936V90.9785H64.8877V92.3936H63.6572ZM63.6572 101V93.7402H64.8877V101H63.6572ZM66.3096 97.3701C66.3096 96.0257 66.6833 95.0299 67.4307 94.3828C68.055 93.8451 68.8161 93.5762 69.7139 93.5762C70.7119 93.5762 71.5277 93.9043 72.1611 94.5605C72.7946 95.2122 73.1113 96.1146 73.1113 97.2676C73.1113 98.2018 72.9701 98.9378 72.6875 99.4756C72.4095 100.009 72.0016 100.424 71.4639 100.72C70.9307 101.016 70.3473 101.164 69.7139 101.164C68.6976 101.164 67.875 100.838 67.2461 100.187C66.6217 99.5348 66.3096 98.596 66.3096 97.3701ZM67.5742 97.3701C67.5742 98.2998 67.777 98.9971 68.1826 99.4619C68.5882 99.9222 69.0986 100.152 69.7139 100.152C70.3245 100.152 70.8327 99.9199 71.2383 99.4551C71.6439 98.9902 71.8467 98.2816 71.8467 97.3291C71.8467 96.4313 71.6416 95.7523 71.2314 95.292C70.8258 94.8271 70.32 94.5947 69.7139 94.5947C69.0986 94.5947 68.5882 94.8249 68.1826 95.2852C67.777 95.7454 67.5742 96.4404 67.5742 97.3701ZM74.0684 98.833L75.2852 98.6416C75.3535 99.1292 75.5426 99.5029 75.8525 99.7627C76.167 100.022 76.6045 100.152 77.165 100.152C77.7301 100.152 78.1494 100.038 78.4229 99.8105C78.6963 99.5781 78.833 99.307 78.833 98.9971C78.833 98.7191 78.7122 98.5003 78.4707 98.3408C78.3021 98.2314 77.8828 98.0924 77.2129 97.9238C76.3105 97.696 75.6839 97.5 75.333 97.3359C74.9867 97.1673 74.7223 96.9372 74.54 96.6455C74.3623 96.3493 74.2734 96.0234 74.2734 95.668C74.2734 95.3444 74.3464 95.0459 74.4922 94.7725C74.6426 94.4945 74.8454 94.2643 75.1006 94.082C75.292 93.9408 75.5518 93.8223 75.8799 93.7266C76.2126 93.6263 76.568 93.5762 76.9463 93.5762C77.516 93.5762 78.015 93.6582 78.4434 93.8223C78.8763 93.9863 79.1953 94.2096 79.4004 94.4922C79.6055 94.7702 79.7467 95.1439 79.8242 95.6133L78.6211 95.7773C78.5664 95.4036 78.4069 95.112 78.1426 94.9023C77.8828 94.6927 77.5137 94.5879 77.0352 94.5879C76.4701 94.5879 76.0667 94.6813 75.8252 94.8682C75.5837 95.055 75.4629 95.2738 75.4629 95.5244C75.4629 95.6839 75.513 95.8275 75.6133 95.9551C75.7135 96.0872 75.8708 96.1966 76.085 96.2832C76.208 96.3288 76.5703 96.4336 77.1719 96.5977C78.0423 96.8301 78.6484 97.0215 78.9902 97.1719C79.3366 97.3177 79.6077 97.5319 79.8037 97.8145C79.9997 98.097 80.0977 98.4479 80.0977 98.8672C80.0977 99.2773 79.9769 99.6647 79.7354 100.029C79.4984 100.389 79.1543 100.67 78.7031 100.87C78.252 101.066 77.7415 101.164 77.1719 101.164C76.2285 101.164 75.5085 100.968 75.0117 100.576C74.5195 100.184 74.2051 99.6032 74.0684 98.833Z" fill="#003C44"/>
<circle cx="52.5" cy="42.5" r="41.5" fill="white" stroke="#32BCAD" stroke-width="2"/>
<path d="M34.6667 56.3333V51.6667C34.6667 50.7222 34.9097 49.8542 35.3958 49.0625C35.8819 48.2708 36.5278 47.6667 37.3333 47.25C39.0555 46.3889 40.8055 45.743 42.5833 45.3125C44.3611 44.8819 46.1667 44.6667 48 44.6667C49.8333 44.6667 51.6389 44.8819 53.4167 45.3125C55.1944 45.743 56.9444 46.3889 58.6667 47.25C59.4722 47.6667 60.118 48.2708 60.6042 49.0625C61.0903 49.8542 61.3333 50.7222 61.3333 51.6667V56.3333H34.6667ZM64.6667 56.3333V51.3333C64.6667 50.1111 64.3264 48.9375 63.6458 47.8125C62.9653 46.6875 62 45.7222 60.75 44.9167C62.1667 45.0833 63.5 45.368 64.75 45.7708C66 46.1736 67.1667 46.6667 68.25 47.25C69.25 47.8055 70.0139 48.4236 70.5417 49.1042C71.0694 49.7847 71.3333 50.5278 71.3333 51.3333V56.3333H64.6667ZM48 43C46.1667 43 44.5972 42.3472 43.2917 41.0417C41.9861 39.7361 41.3333 38.1667 41.3333 36.3333C41.3333 34.5 41.9861 32.9305 43.2917 31.625C44.5972 30.3194 46.1667 29.6667 48 29.6667C49.8333 29.6667 51.4028 30.3194 52.7083 31.625C54.0139 32.9305 54.6667 34.5 54.6667 36.3333C54.6667 38.1667 54.0139 39.7361 52.7083 41.0417C51.4028 42.3472 49.8333 43 48 43ZM64.6667 36.3333C64.6667 38.1667 64.0139 39.7361 62.7083 41.0417C61.4028 42.3472 59.8333 43 58 43C57.6944 43 57.3055 42.9653 56.8333 42.8958C56.3611 42.8264 55.9722 42.75 55.6667 42.6667C56.4167 41.7778 56.993 40.7917 57.3958 39.7083C57.7986 38.625 58 37.5 58 36.3333C58 35.1667 57.7986 34.0417 57.3958 32.9583C56.993 31.875 56.4167 30.8889 55.6667 30C56.0555 29.8611 56.4444 29.7708 56.8333 29.7292C57.2222 29.6875 57.6111 29.6667 58 29.6667C59.8333 29.6667 61.4028 30.3194 62.7083 31.625C64.0139 32.9305 64.6667 34.5 64.6667 36.3333ZM38 53H58V51.6667C58 51.3611 57.9236 51.0833 57.7708 50.8333C57.618 50.5833 57.4167 50.3889 57.1667 50.25C55.6667 49.5 54.1528 48.9375 52.625 48.5625C51.0972 48.1875 49.5555 48 48 48C46.4444 48 44.9028 48.1875 43.375 48.5625C41.8472 48.9375 40.3333 49.5 38.8333 50.25C38.5833 50.3889 38.3819 50.5833 38.2292 50.8333C38.0764 51.0833 38 51.3611 38 51.6667V53ZM48 39.6667C48.9167 39.6667 49.7014 39.3403 50.3542 38.6875C51.0069 38.0347 51.3333 37.25 51.3333 36.3333C51.3333 35.4167 51.0069 34.6319 50.3542 33.9792C49.7014 33.3264 48.9167 33 48 33C47.0833 33 46.2986 33.3264 45.6458 33.9792C44.993 34.6319 44.6667 35.4167 44.6667 36.3333C44.6667 37.25 44.993 38.0347 45.6458 38.6875C46.2986 39.3403 47.0833 39.6667 48 39.6667Z" fill="#32BCAD"/>
</svg>
