<svg width="56" height="56" viewBox="0 0 56 56" fill="none" xmlns="http://www.w3.org/2000/svg">
<path d="M27.112 48.0241L5.98193 11.4893C5.88469 11.3221 5.8332 11.1321 5.83265 10.9387C5.83209 10.7452 5.88249 10.555 5.97876 10.3872C6.07504 10.2193 6.21381 10.0798 6.38111 9.98266C6.54841 9.88548 6.73835 9.83407 6.93183 9.83359L49.0645 9.75916C49.2578 9.75929 49.4477 9.81025 49.6152 9.90692C49.7826 10.0036 49.9217 10.1426 50.0185 10.3099C50.1153 10.4773 50.1664 10.6672 50.1667 10.8605C50.1669 11.0538 50.1164 11.2439 50.0201 11.4115L29.0185 48.0207C28.9225 48.1884 28.7839 48.3279 28.6169 48.425C28.4498 48.5221 28.26 48.5734 28.0667 48.5737C27.8735 48.5741 27.6835 48.5235 27.5161 48.4269C27.3487 48.3304 27.2086 48.1915 27.112 48.0241Z" stroke="#F5F5F5" stroke-width="1.16667" stroke-linecap="round" stroke-linejoin="round"/>
<path d="M33.0971 25.7535L22.8981 25.8503L27.9139 16.9454L33.0971 25.7535Z" stroke="#F5F5F5" stroke-width="1.16667" stroke-linecap="round" stroke-linejoin="round"/>
<path d="M27.9165 16.9361L23.874 9.88165" stroke="#F5F5F5" stroke-width="1.16667" stroke-linecap="round" stroke-linejoin="round"/>
<path d="M22.9133 25.8475L18.6689 33.2057" stroke="#F5F5F5" stroke-width="1.16667" stroke-linecap="round" stroke-linejoin="round"/>
<path d="M33.1028 25.7577H41.4568" stroke="#F5F5F5" stroke-width="1.16667" stroke-linecap="round" stroke-linejoin="round"/>
</svg>
