<svg width="56" height="56" viewBox="0 0 56 56" fill="none" xmlns="http://www.w3.org/2000/svg">
<path d="M28.888 7.97593L50.0181 44.5107C50.1153 44.6779 50.1668 44.8679 50.1674 45.0613C50.1679 45.2548 50.1175 45.445 50.0212 45.6128C49.925 45.7807 49.7862 45.9202 49.6189 46.0173C49.4516 46.1145 49.2616 46.1659 49.0682 46.1664L6.93552 46.2408C6.74218 46.2407 6.55228 46.1897 6.38484 46.0931C6.2174 45.9964 6.07832 45.8574 5.98152 45.6901C5.88473 45.5227 5.83363 45.3328 5.83335 45.1395C5.83306 44.9462 5.8836 44.7561 5.9799 44.5885L26.9815 7.97931C27.0775 7.81157 27.2161 7.67211 27.3831 7.57501C27.5502 7.47791 27.74 7.4266 27.9333 7.42626C28.1265 7.42592 28.3165 7.47655 28.4839 7.57305C28.6513 7.66956 28.7914 7.80853 28.888 7.97593Z" stroke="#F5F5F5" stroke-width="1.16667" stroke-linecap="round" stroke-linejoin="round"/>
<path d="M22.9029 30.2465L33.1019 30.1497L28.0861 39.0546L22.9029 30.2465Z" stroke="#F5F5F5" stroke-width="1.16667" stroke-linecap="round" stroke-linejoin="round"/>
<path d="M28.0835 39.0639L32.126 46.1183" stroke="#F5F5F5" stroke-width="1.16667" stroke-linecap="round" stroke-linejoin="round"/>
<path d="M33.0867 30.1525L37.3311 22.7943" stroke="#F5F5F5" stroke-width="1.16667" stroke-linecap="round" stroke-linejoin="round"/>
<path d="M22.8972 30.2423H14.5432" stroke="#F5F5F5" stroke-width="1.16667" stroke-linecap="round" stroke-linejoin="round"/>
</svg>
