<svg width="106" height="103" viewBox="0 0 106 103" fill="none" xmlns="http://www.w3.org/2000/svg">
<path d="M35.8076 100V89.9785H43.0537V91.1611H37.1338V94.2305H42.6777V95.4062H37.1338V98.8174H43.2861V100H35.8076ZM49.6709 100V99.084C49.2106 99.804 48.5339 100.164 47.6406 100.164C47.0618 100.164 46.5286 100.005 46.041 99.6855C45.5579 99.3665 45.182 98.9222 44.9131 98.3525C44.6488 97.7783 44.5166 97.1198 44.5166 96.377C44.5166 95.6523 44.6374 94.9961 44.8789 94.4082C45.1204 93.8158 45.4827 93.3623 45.9658 93.0479C46.4489 92.7334 46.9889 92.5762 47.5859 92.5762C48.0234 92.5762 48.4131 92.6696 48.7549 92.8564C49.0967 93.0387 49.3747 93.278 49.5889 93.5742V89.9785H50.8125V100H49.6709ZM45.7812 96.377C45.7812 97.3066 45.9772 98.0016 46.3691 98.4619C46.7611 98.9222 47.2236 99.1523 47.7568 99.1523C48.2946 99.1523 48.7503 98.9336 49.124 98.4961C49.5023 98.054 49.6914 97.3818 49.6914 96.4795C49.6914 95.486 49.5 94.7568 49.1172 94.292C48.7344 93.8271 48.2627 93.5947 47.7021 93.5947C47.1553 93.5947 46.6973 93.818 46.3281 94.2646C45.9635 94.7113 45.7812 95.4154 45.7812 96.377ZM52.7607 91.3936V89.9785H53.9912V91.3936H52.7607ZM52.7607 100V92.7402H53.9912V100H52.7607ZM58.5576 98.8994L58.7354 99.9863C58.389 100.059 58.0791 100.096 57.8057 100.096C57.359 100.096 57.0127 100.025 56.7666 99.8838C56.5205 99.7425 56.3473 99.5579 56.2471 99.3301C56.1468 99.0977 56.0967 98.6123 56.0967 97.874V93.6973H55.1943V92.7402H56.0967V90.9424L57.3203 90.2041V92.7402H58.5576V93.6973H57.3203V97.9424C57.3203 98.2933 57.3408 98.5189 57.3818 98.6191C57.4274 98.7194 57.498 98.7992 57.5938 98.8584C57.694 98.9176 57.8353 98.9473 58.0176 98.9473C58.1543 98.9473 58.3343 98.9313 58.5576 98.8994ZM64.5049 99.1045C64.0492 99.4919 63.6094 99.7653 63.1855 99.9248C62.7663 100.084 62.3151 100.164 61.832 100.164C61.0345 100.164 60.4215 99.9704 59.9932 99.583C59.5648 99.1911 59.3506 98.6921 59.3506 98.0859C59.3506 97.7305 59.4303 97.4069 59.5898 97.1152C59.7539 96.819 59.9658 96.582 60.2256 96.4043C60.4899 96.2266 60.7861 96.0921 61.1143 96.001C61.3558 95.9372 61.7204 95.8757 62.208 95.8164C63.2015 95.6979 63.9329 95.5566 64.4023 95.3926C64.4069 95.224 64.4092 95.1169 64.4092 95.0713C64.4092 94.57 64.293 94.2168 64.0605 94.0117C63.7461 93.7337 63.279 93.5947 62.6592 93.5947C62.0804 93.5947 61.652 93.6973 61.374 93.9023C61.1006 94.1029 60.8978 94.4606 60.7656 94.9756L59.5625 94.8115C59.6719 94.2965 59.8519 93.8818 60.1025 93.5674C60.3532 93.2484 60.7155 93.0046 61.1895 92.8359C61.6634 92.6628 62.2126 92.5762 62.8369 92.5762C63.4567 92.5762 63.9603 92.6491 64.3477 92.7949C64.735 92.9408 65.0199 93.1253 65.2021 93.3486C65.3844 93.5674 65.512 93.8454 65.585 94.1826C65.626 94.3923 65.6465 94.7705 65.6465 95.3174V96.958C65.6465 98.1019 65.6715 98.8265 65.7217 99.1318C65.7764 99.4326 65.8812 99.722 66.0361 100H64.751C64.6234 99.7448 64.5413 99.4463 64.5049 99.1045ZM64.4023 96.3564C63.9557 96.5387 63.2858 96.6937 62.3926 96.8213C61.8867 96.8942 61.529 96.9762 61.3193 97.0674C61.1097 97.1585 60.9479 97.293 60.834 97.4707C60.7201 97.6439 60.6631 97.8376 60.6631 98.0518C60.6631 98.3799 60.7861 98.6533 61.0322 98.8721C61.2829 99.0908 61.6475 99.2002 62.126 99.2002C62.5999 99.2002 63.0215 99.0977 63.3906 98.8926C63.7598 98.6829 64.0309 98.3981 64.2041 98.0381C64.3363 97.7601 64.4023 97.3499 64.4023 96.8076V96.3564ZM67.5469 100V92.7402H68.6543V93.8408C68.9368 93.3258 69.1966 92.9863 69.4336 92.8223C69.6751 92.6582 69.9395 92.5762 70.2266 92.5762C70.6413 92.5762 71.0628 92.7083 71.4912 92.9727L71.0674 94.1143C70.7666 93.9365 70.4658 93.8477 70.165 93.8477C69.8962 93.8477 69.6546 93.9297 69.4404 94.0938C69.2262 94.2533 69.0736 94.4766 68.9824 94.7637C68.8457 95.2012 68.7773 95.6797 68.7773 96.1992V100H67.5469Z" fill="#003C44"/>
<circle cx="52.5" cy="41.5" r="41.5" fill="#32BCAD"/>
<path d="M40.3333 57C39.4167 57 38.6319 56.6736 37.9792 56.0208C37.3264 55.3681 37 54.5833 37 53.6667V30.3333C37 29.4167 37.3264 28.6319 37.9792 27.9792C38.6319 27.3264 39.4167 27 40.3333 27H55.2083L51.875 30.3333H40.3333V53.6667H63.6667V42.0833L67 38.75V53.6667C67 54.5833 66.6736 55.3681 66.0208 56.0208C65.3681 56.6736 64.5833 57 63.6667 57H40.3333ZM47 47V39.9167L62.2917 24.625C62.625 24.2917 63 24.0417 63.4167 23.875C63.8333 23.7083 64.25 23.625 64.6667 23.625C65.1111 23.625 65.5347 23.7083 65.9375 23.875C66.3403 24.0417 66.7083 24.2917 67.0417 24.625L69.375 27C69.6806 27.3333 69.9167 27.7014 70.0833 28.1042C70.25 28.5069 70.3333 28.9167 70.3333 29.3333C70.3333 29.75 70.2569 30.1597 70.1042 30.5625C69.9514 30.9653 69.7083 31.3333 69.375 31.6667L54.0833 47H47ZM50.3333 43.6667H52.6667L62.3333 34L61.1667 32.8333L59.9583 31.6667L50.3333 41.2917V43.6667Z" fill="white"/>
</svg>
