<svg width="106" height="104" viewBox="0 0 106 104" fill="none" xmlns="http://www.w3.org/2000/svg">
<path d="M35.8076 101V90.9785H43.0537V92.1611H37.1338V95.2305H42.6777V96.4062H37.1338V99.8174H43.2861V101H35.8076ZM49.6709 101V100.084C49.2106 100.804 48.5339 101.164 47.6406 101.164C47.0618 101.164 46.5286 101.005 46.041 100.686C45.5579 100.367 45.182 99.9222 44.9131 99.3525C44.6488 98.7783 44.5166 98.1198 44.5166 97.377C44.5166 96.6523 44.6374 95.9961 44.8789 95.4082C45.1204 94.8158 45.4827 94.3623 45.9658 94.0479C46.4489 93.7334 46.9889 93.5762 47.5859 93.5762C48.0234 93.5762 48.4131 93.6696 48.7549 93.8564C49.0967 94.0387 49.3747 94.278 49.5889 94.5742V90.9785H50.8125V101H49.6709ZM45.7812 97.377C45.7812 98.3066 45.9772 99.0016 46.3691 99.4619C46.7611 99.9222 47.2236 100.152 47.7568 100.152C48.2946 100.152 48.7503 99.9336 49.124 99.4961C49.5023 99.054 49.6914 98.3818 49.6914 97.4795C49.6914 96.486 49.5 95.7568 49.1172 95.292C48.7344 94.8271 48.2627 94.5947 47.7021 94.5947C47.1553 94.5947 46.6973 94.818 46.3281 95.2646C45.9635 95.7113 45.7812 96.4154 45.7812 97.377ZM52.7607 92.3936V90.9785H53.9912V92.3936H52.7607ZM52.7607 101V93.7402H53.9912V101H52.7607ZM58.5576 99.8994L58.7354 100.986C58.389 101.059 58.0791 101.096 57.8057 101.096C57.359 101.096 57.0127 101.025 56.7666 100.884C56.5205 100.743 56.3473 100.558 56.2471 100.33C56.1468 100.098 56.0967 99.6123 56.0967 98.874V94.6973H55.1943V93.7402H56.0967V91.9424L57.3203 91.2041V93.7402H58.5576V94.6973H57.3203V98.9424C57.3203 99.2933 57.3408 99.5189 57.3818 99.6191C57.4274 99.7194 57.498 99.7992 57.5938 99.8584C57.694 99.9176 57.8353 99.9473 58.0176 99.9473C58.1543 99.9473 58.3343 99.9313 58.5576 99.8994ZM64.5049 100.104C64.0492 100.492 63.6094 100.765 63.1855 100.925C62.7663 101.084 62.3151 101.164 61.832 101.164C61.0345 101.164 60.4215 100.97 59.9932 100.583C59.5648 100.191 59.3506 99.6921 59.3506 99.0859C59.3506 98.7305 59.4303 98.4069 59.5898 98.1152C59.7539 97.819 59.9658 97.582 60.2256 97.4043C60.4899 97.2266 60.7861 97.0921 61.1143 97.001C61.3558 96.9372 61.7204 96.8757 62.208 96.8164C63.2015 96.6979 63.9329 96.5566 64.4023 96.3926C64.4069 96.224 64.4092 96.1169 64.4092 96.0713C64.4092 95.57 64.293 95.2168 64.0605 95.0117C63.7461 94.7337 63.279 94.5947 62.6592 94.5947C62.0804 94.5947 61.652 94.6973 61.374 94.9023C61.1006 95.1029 60.8978 95.4606 60.7656 95.9756L59.5625 95.8115C59.6719 95.2965 59.8519 94.8818 60.1025 94.5674C60.3532 94.2484 60.7155 94.0046 61.1895 93.8359C61.6634 93.6628 62.2126 93.5762 62.8369 93.5762C63.4567 93.5762 63.9603 93.6491 64.3477 93.7949C64.735 93.9408 65.0199 94.1253 65.2021 94.3486C65.3844 94.5674 65.512 94.8454 65.585 95.1826C65.626 95.3923 65.6465 95.7705 65.6465 96.3174V97.958C65.6465 99.1019 65.6715 99.8265 65.7217 100.132C65.7764 100.433 65.8812 100.722 66.0361 101H64.751C64.6234 100.745 64.5413 100.446 64.5049 100.104ZM64.4023 97.3564C63.9557 97.5387 63.2858 97.6937 62.3926 97.8213C61.8867 97.8942 61.529 97.9762 61.3193 98.0674C61.1097 98.1585 60.9479 98.293 60.834 98.4707C60.7201 98.6439 60.6631 98.8376 60.6631 99.0518C60.6631 99.3799 60.7861 99.6533 61.0322 99.8721C61.2829 100.091 61.6475 100.2 62.126 100.2C62.5999 100.2 63.0215 100.098 63.3906 99.8926C63.7598 99.6829 64.0309 99.3981 64.2041 99.0381C64.3363 98.7601 64.4023 98.3499 64.4023 97.8076V97.3564ZM67.5469 101V93.7402H68.6543V94.8408C68.9368 94.3258 69.1966 93.9863 69.4336 93.8223C69.6751 93.6582 69.9395 93.5762 70.2266 93.5762C70.6413 93.5762 71.0628 93.7083 71.4912 93.9727L71.0674 95.1143C70.7666 94.9365 70.4658 94.8477 70.165 94.8477C69.8962 94.8477 69.6546 94.9297 69.4404 95.0938C69.2262 95.2533 69.0736 95.4766 68.9824 95.7637C68.8457 96.2012 68.7773 96.6797 68.7773 97.1992V101H67.5469Z" fill="#003C44"/>
<circle cx="52.5" cy="42.5" r="41.5" fill="white" stroke="#32BCAD" stroke-width="2"/>
<path d="M40.3333 58C39.4167 58 38.6319 57.6736 37.9792 57.0208C37.3264 56.3681 37 55.5833 37 54.6667V31.3333C37 30.4167 37.3264 29.6319 37.9792 28.9792C38.6319 28.3264 39.4167 28 40.3333 28H55.2083L51.875 31.3333H40.3333V54.6667H63.6667V43.0833L67 39.75V54.6667C67 55.5833 66.6736 56.3681 66.0208 57.0208C65.3681 57.6736 64.5833 58 63.6667 58H40.3333ZM47 48V40.9167L62.2917 25.625C62.625 25.2917 63 25.0417 63.4167 24.875C63.8333 24.7083 64.25 24.625 64.6667 24.625C65.1111 24.625 65.5347 24.7083 65.9375 24.875C66.3403 25.0417 66.7083 25.2917 67.0417 25.625L69.375 28C69.6806 28.3333 69.9167 28.7014 70.0833 29.1042C70.25 29.5069 70.3333 29.9167 70.3333 30.3333C70.3333 30.75 70.2569 31.1597 70.1042 31.5625C69.9514 31.9653 69.7083 32.3333 69.375 32.6667L54.0833 48H47ZM50.3333 44.6667H52.6667L62.3333 35L61.1667 33.8333L59.9583 32.6667L50.3333 42.2917V44.6667Z" fill="#32BCAD"/>
</svg>
